<?xml version="1.0" encoding="UTF-8"?>
<svg xmlns="http://www.w3.org/2000/svg" width="101" height="100" viewBox="0 0 101 100" fill="none">
  <g clip-path="url(#clip0_3977_57066)">
    <path d="M57.9289 79.2052L57.9282 79.2043C56.7882 77.6796 55.5804 76.4176 54.3821 75.2271C54.0929 74.9397 53.8052 74.6574 53.5193 74.377C52.6144 73.489 51.7281 72.6194 50.872 71.6662L50 70.6952V72.0002C50 75.1505 49.8152 77.5254 49.6742 78.9657L49.6741 78.966C49.6625 79.0858 49.6068 79.1965 49.5185 79.2767C49.4303 79.3568 49.3158 79.4007 49.1975 79.4004H49.1962L38.045 79.4004L38.0421 79.4004C37.9327 79.401 37.8262 79.3634 37.741 79.2935C37.6562 79.2239 37.5978 79.1267 37.576 79.0183C37.0851 76.4033 36.0818 73.7031 35.0396 70.8985C34.7213 70.0419 34.3994 69.1755 34.0873 68.2988C32.7432 64.5227 31.5548 60.4943 31.4806 56.0181L31.4807 56.0181L31.4805 56.0121C31.4286 54.1916 31.7195 52.3779 32.3377 50.6664C33.9613 49.0091 35.2602 47.0603 36.1668 44.9217C36.9851 44.0799 37.8474 43.2945 38.7068 42.5173C38.7569 42.472 38.8069 42.4267 38.857 42.3814C39.6816 41.636 40.5023 40.894 41.2553 40.1287C42.8535 38.5042 44.1961 36.7267 44.6965 34.4478L44.6965 34.4477C45.491 30.8276 44.7566 26.3396 42.337 20.3168L42.3362 20.3148C42.3062 20.2411 42.2947 20.1611 42.3028 20.0818C42.3108 20.0024 42.3382 19.9265 42.3823 19.8605C42.4263 19.7945 42.4857 19.7407 42.5551 19.7035L42.3188 19.2628L42.5551 19.7035C42.6244 19.6663 42.7016 19.6469 42.7799 19.6467H64.3244C64.4507 19.6467 64.5722 19.6969 64.6624 19.7868C64.7526 19.8768 64.8041 19.9994 64.8049 20.1279L64.8049 20.1301C64.8312 22.5754 64.9536 25.1577 65.0889 28.0123C65.3316 33.1321 65.6159 39.1282 65.4615 46.7828L65.4614 46.7865C65.4509 47.61 65.551 48.4813 65.6494 49.2244C65.6703 49.3821 65.6907 49.5321 65.7101 49.6738C65.7855 50.2273 65.8438 50.6544 65.8438 50.9273V50.9814L65.8554 51.0343C66.2892 53.0134 67.0706 55.796 67.9216 58.8262C68.0498 59.2827 68.1796 59.7448 68.31 60.2106C69.3093 63.7805 70.3491 67.5807 71.0217 70.8102C71.9355 75.1973 72.3959 77.5981 72.6195 78.8284C72.6317 78.898 72.6287 78.9695 72.6106 79.0378C72.5925 79.1065 72.5595 79.1703 72.5143 79.2246C72.4691 79.2788 72.4127 79.3224 72.3491 79.3522C72.2857 79.382 72.2165 79.3974 72.1466 79.3974C72.1466 79.3974 72.1465 79.3974 72.1465 79.3974H58.3093C58.2356 79.3973 58.1629 79.3799 58.0969 79.3466C58.0309 79.3133 57.9734 79.265 57.9289 79.2052Z" stroke="#313131"></path>
    <path d="M65.8387 50.1802C61.6602 48.5965 55.9534 48.5766 51.2556 50.076C46.8826 51.4717 43.2063 54.258 42.6138 58.4966C41.232 55.9967 39.5377 53.649 37.8203 51.9881C36.7879 50.9898 35.7204 50.2133 34.6822 49.8168C34.0566 49.5779 33.4261 49.4725 32.8209 49.5507C33.6117 47.9125 34.6711 46.4168 35.9568 45.1272C36.3038 45.1171 36.776 45.0965 37.3561 45.0712C39.5646 44.9749 43.338 44.8104 47.7317 44.8981C53.4207 45.0117 60.0751 45.5492 65.5556 47.192C65.6821 47.6975 65.7562 48.368 65.7968 49.0396C65.8215 49.4471 65.8332 49.8416 65.8387 50.1802ZM43.0069 60.2484L43.0069 60.2484L43.0069 60.2484Z" fill="#3CCACE" stroke="#313131" stroke-linejoin="round"></path>
    <path d="M50.5669 71.3778L50.5767 71.3532C47.3311 67.7356 44.414 64.1716 43.0363 60.2883C40.0947 54.1758 35.5838 48.5656 32.5 50.4999" stroke="#313131" stroke-linecap="round" stroke-linejoin="round"></path>
    <path d="M36.2712 27.1598L35.6529 28.2953C35.4182 28.7258 35.0655 29.0799 34.6366 29.3156L33.5056 29.9362C33.4536 29.9648 33.4103 30.0069 33.3801 30.0581C33.3499 30.1093 33.334 30.1676 33.334 30.2271C33.334 30.2866 33.3499 30.345 33.3801 30.3961C33.4103 30.4473 33.4536 30.4894 33.5056 30.518L34.6366 31.1416C35.0656 31.3769 35.4183 31.7309 35.6529 32.1614L36.2712 33.2969C36.2996 33.349 36.3416 33.3925 36.3925 33.4228C36.4435 33.4531 36.5017 33.4691 36.5609 33.4691C36.6202 33.4691 36.6783 33.4531 36.7293 33.4228C36.7803 33.3925 36.8222 33.349 36.8507 33.2969L37.4694 32.1614C37.7036 31.7307 38.0562 31.3767 38.4852 31.1416L39.6163 30.5205C39.6682 30.4919 39.7116 30.4498 39.7417 30.3986C39.7719 30.3474 39.7879 30.289 39.7879 30.2296C39.7879 30.1701 39.7719 30.1117 39.7417 30.0605C39.7116 30.0094 39.6682 29.9673 39.6163 29.9387L38.4852 29.3156C38.0564 29.08 37.7038 28.7259 37.4694 28.2953L36.8507 27.1598C36.8222 27.1077 36.7803 27.0641 36.7293 27.0338C36.6783 27.0035 36.6202 26.9875 36.5609 26.9875C36.5017 26.9875 36.4435 27.0035 36.3925 27.0338C36.3416 27.0641 36.2996 27.1077 36.2712 27.1598Z" fill="#313131"></path>
    <path d="M72.2014 44.2989L71.6989 45.2213C71.5082 45.5712 71.2217 45.859 70.8733 46.0506L69.954 46.5551C69.9118 46.5783 69.8765 46.6125 69.852 46.654C69.8274 46.6956 69.8145 46.7431 69.8145 46.7914C69.8145 46.8397 69.8274 46.8872 69.852 46.9287C69.8765 46.9703 69.9118 47.0045 69.954 47.0276L70.8733 47.5311C71.2217 47.7228 71.5082 48.0106 71.6989 48.3605L72.2014 49.2828C72.2245 49.3253 72.2585 49.3606 72.2999 49.3853C72.3413 49.4099 72.3886 49.423 72.4367 49.423C72.4849 49.423 72.5321 49.4099 72.5735 49.3853C72.615 49.3606 72.649 49.3253 72.6721 49.2828L73.1746 48.3605C73.3654 48.0105 73.6521 47.7227 74.0007 47.5311L74.9195 47.0267C74.9617 47.0035 74.997 46.9693 75.0215 46.9277C75.0461 46.8862 75.059 46.8387 75.059 46.7904C75.059 46.7421 75.0461 46.6946 75.0215 46.6531C74.997 46.6115 74.9617 46.5773 74.9195 46.5542L74.0007 46.0497C73.6521 45.8581 73.3654 45.5703 73.1746 45.2203L72.6735 44.2989C72.6506 44.2562 72.6165 44.2204 72.5749 44.1955C72.5334 44.1706 72.4859 44.1575 72.4375 44.1575C72.3891 44.1575 72.3416 44.1706 72.3 44.1955C72.2585 44.2204 72.2244 44.2562 72.2014 44.2989Z" fill="#313131"></path>
  </g>
  <defs>
    <clipPath id="clip0_3977_57066">
      <rect width="49" height="63" fill="white" transform="translate(26 18)"></rect>
    </clipPath>
  </defs>
</svg>
