<?xml version="1.0" encoding="UTF-8"?>
<svg xmlns="http://www.w3.org/2000/svg" width="100" height="100" viewBox="0 0 100 100" fill="none">
  <path d="M72.0139 47.2342L72.0139 47.2344L64.184 79.4999H34.1958L26.3659 47.2344L26.3659 47.2342C26.3104 47.0058 26.3078 46.768 26.3584 46.5385C26.409 46.309 26.5115 46.0936 26.6584 45.9086C26.8053 45.7237 26.9927 45.574 27.2068 45.4711C27.421 45.3681 27.6561 45.3147 27.8944 45.3151H27.8951H32.3097V45.3151L32.3151 45.315C32.6255 45.3117 32.9295 45.4012 33.1874 45.5715C33.4451 45.7417 33.6447 45.9845 33.761 46.2681C34.3277 47.6626 35.5411 49.9247 37.9452 51.8581C40.3568 53.7975 43.9352 55.3806 49.1829 55.4548L49.1899 55.4549L49.197 55.4548C54.4447 55.3806 58.0231 53.7975 60.4347 51.8581C62.8391 49.9244 64.0525 47.662 64.6191 46.2675C64.7353 45.9842 64.9348 45.7416 65.1923 45.5715C65.4503 45.4012 65.7543 45.3117 66.0647 45.315L66.0647 45.3151H66.0701L70.4848 45.3151L70.4855 45.3151C70.7238 45.3147 70.9588 45.3681 71.173 45.4711C71.3871 45.574 71.5745 45.7237 71.7214 45.9086C71.8683 46.0936 71.9708 46.309 72.0214 46.5385C72.072 46.768 72.0694 47.0058 72.0139 47.2342Z" fill="#313131" stroke="#313131"></path>
  <path d="M32.9415 42.3485C32.7319 42.3325 32.5217 42.3242 32.3113 42.3237H32.3101H29.4861L26.7113 31.6444L31.0486 32.0577L32.9415 42.3485ZM29.5281 42.4864L29.5265 42.4798C29.5271 42.482 29.5276 42.4842 29.5281 42.4864Z" fill="#3CCACE" stroke="#313131" stroke-linejoin="round"></path>
  <path d="M41.7503 50.6315C41.8062 50.637 41.8625 50.6268 41.9129 50.6023C41.9633 50.5777 42.0058 50.5397 42.0356 50.4926C42.0655 50.4454 42.0816 50.3909 42.082 50.3351M41.7503 50.6315L41.6424 20.0338C41.6903 20.0093 41.7439 19.998 41.7977 20.001C41.8515 20.004 41.9036 20.0212 41.9484 20.0509C41.9933 20.0805 42.0293 20.1216 42.0527 20.1698C42.0762 20.2179 42.0864 20.2714 42.082 20.3248V50.3351M41.7503 50.6315C41.6944 50.6261 41.6412 50.6054 41.5966 50.5716L41.7503 50.6315ZM42.082 50.3351L41.7896 50.3329L41.7779 50.3474L41.7847 50.3391L41.7875 50.3355L41.7878 50.3351H42.082ZM34.3823 25.2417L41.582 20.6646V49.8998C40.7949 49.1801 40.1788 48.2934 39.7806 47.304C39.3574 46.2236 38.7058 45.2464 37.8703 44.4381L34.3823 25.2417ZM41.7796 50.3305L41.7809 50.3313L41.7796 50.3305Z" fill="#3CCACE" stroke="#313131" stroke-linejoin="round"></path>
  <path d="M47.1077 20.6464L53.6019 24.4364L54.083 51.5893C52.5171 52.1514 50.8626 52.4321 49.1967 52.418C48.4977 52.4064 47.8 52.3526 47.1077 52.2568V20.6464ZM53.8195 24.3093L53.8173 24.3106L53.8195 24.3093Z" fill="#3CCACE" stroke="#313131" stroke-linejoin="round"></path>
  <path d="M65.5244 23.7246L65.5251 23.7234M65.5244 23.7246L65.5251 23.7234M65.5244 23.7246L65.5251 23.7234M65.5244 23.7246L65.5251 23.7234M63.334 42.7827C62.2828 43.1516 61.3202 43.7349 60.5084 44.4958C59.8161 45.1447 59.2471 45.91 58.8267 46.7549L58.3395 27.075L65.2785 24.0694L63.334 42.7827ZM58.3356 26.9272C58.3357 26.9293 58.3358 26.9314 58.3359 26.9336L58.3356 26.9272Z" fill="#3CCACE" stroke="#313131" stroke-linejoin="round"></path>
  <path d="M67.6814 42.8236H70.4933H67.6814ZM67.6814 42.8236C67.6384 42.8239 67.5959 42.8152 67.5566 42.7979L67.6814 42.8236ZM73.3243 30.5134L73.3238 30.5165L73.3243 30.5134ZM70.4932 42.3236C70.493 42.3236 70.4928 42.3236 70.4926 42.3236L67.9019 42.3236L69.1775 31.5053L73.2801 30.8047L71.5222 42.3855C71.1809 42.3438 70.8373 42.3231 70.4933 42.3236C70.4933 42.3236 70.4933 42.3236 70.4932 42.3236Z" fill="#3CCACE" stroke="#313131" stroke-linejoin="round"></path>
</svg>
