<?xml version="1.0" encoding="UTF-8"?>
<svg xmlns="http://www.w3.org/2000/svg" width="101" height="100" viewBox="0 0 101 100" fill="none">
  <circle cx="50.666" cy="50" r="27.5" fill="white" stroke="#313131"></circle>
  <mask id="path-2-inside-1_3977_57057" fill="white">
    <path fill-rule="evenodd" clip-rule="evenodd" d="M55.1446 35.4404H46.1846V45.5195H36.1056L36.1056 54.4795H46.1846V64.5604H55.1446V54.4795H65.2256V45.5195H55.1446V35.4404Z"></path>
  </mask>
  <path fill-rule="evenodd" clip-rule="evenodd" d="M55.1446 35.4404H46.1846V45.5195H36.1056L36.1056 54.4795H46.1846V64.5604H55.1446V54.4795H65.2256V45.5195H55.1446V35.4404Z" fill="#3CCACE"></path>
  <path d="M46.1846 35.4404V34.4404H45.1846V35.4404H46.1846ZM55.1446 35.4404H56.1446V34.4404H55.1446V35.4404ZM46.1846 45.5195V46.5195H47.1846V45.5195H46.1846ZM36.1056 45.5195V44.5195H35.1056L35.1056 45.5195H36.1056ZM36.1056 54.4795H35.1056V55.4795H36.1056V54.4795ZM46.1846 54.4795H47.1846V53.4795H46.1846V54.4795ZM46.1846 64.5604H45.1846V65.5604H46.1846V64.5604ZM55.1446 64.5604V65.5604H56.1446V64.5604H55.1446ZM55.1446 54.4795V53.4795H54.1446V54.4795H55.1446ZM65.2256 54.4795V55.4795H66.2256V54.4795H65.2256ZM65.2256 45.5195H66.2256V44.5195H65.2256V45.5195ZM55.1446 45.5195H54.1446V46.5195H55.1446V45.5195ZM46.1846 36.4404H55.1446V34.4404H46.1846V36.4404ZM47.1846 45.5195V35.4404H45.1846V45.5195H47.1846ZM36.1056 46.5195H46.1846V44.5195H36.1056V46.5195ZM37.1056 54.4795L37.1056 45.5195H35.1056L35.1056 54.4795H37.1056ZM46.1846 53.4795H36.1056V55.4795H46.1846V53.4795ZM47.1846 64.5604V54.4795H45.1846V64.5604H47.1846ZM55.1446 63.5604H46.1846V65.5604H55.1446V63.5604ZM54.1446 54.4795V64.5604H56.1446V54.4795H54.1446ZM65.2256 53.4795H55.1446V55.4795H65.2256V53.4795ZM64.2256 45.5195V54.4795H66.2256V45.5195H64.2256ZM55.1446 46.5195H65.2256V44.5195H55.1446V46.5195ZM54.1446 35.4404V45.5195H56.1446V35.4404H54.1446Z" fill="#313131" mask="url(#path-2-inside-1_3977_57057)"></path>
</svg>
