<?xml version="1.0" encoding="UTF-8"?>
<svg xmlns="http://www.w3.org/2000/svg" width="101" height="100" viewBox="0 0 101 100" fill="none">
  <path d="M86.9802 46.8401V66.0401L68.3502 73.1001L50.7402 79.7801L51.2102 60.3901L68.3502 53.9001L69.3102 53.5401L80.0902 49.4501L86.9802 46.8401Z" stroke="#313131" stroke-linecap="round" stroke-linejoin="round"></path>
  <path d="M68.3496 53.89V73.1" stroke="#313131" stroke-linecap="round" stroke-linejoin="round"></path>
  <path d="M50.74 45.6899V46.3099L32.5 52.9999L14.5 45.8999L32.71 39.2199L34.15 38.6899L39.99 41.1599H40L50.74 45.6899Z" stroke="#313131" stroke-linecap="round" stroke-linejoin="round"></path>
  <path d="M69.31 53.54L68.35 53.9L51.21 60.39L32.5 53L50.74 46.31L51.52 46.02L69.31 53.54Z" stroke="#313131" stroke-linecap="round" stroke-linejoin="round"></path>
  <path d="M69.4495 39.43L69.0195 39.25" stroke="#313131" stroke-linecap="round" stroke-linejoin="round"></path>
  <path d="M69.0209 30.5L57.9409 34.57L50.9509 37.13H50.9409L50.7409 37.05L45.1009 34.66L32.7109 29.42L39.6909 26.86L50.7709 22.79L63.1709 28.03L69.0209 30.5Z" fill="#42E8E0" stroke="#313131" stroke-linecap="round" stroke-linejoin="round"></path>
  <path d="M86.9795 46.8399L80.0895 49.4499L69.3095 53.5399L51.5195 46.0199L62.4695 41.9999L69.0195 39.5899L69.4495 39.4299H69.4595L86.9795 46.8399Z" stroke="#313131" stroke-linecap="round" stroke-linejoin="round"></path>
  <path d="M69.0195 39.8901V39.5901" stroke="#313131" stroke-linecap="round" stroke-linejoin="round"></path>
  <path d="M51.21 60.39L50.74 79.78L14.5 66.23V45.9L32.5 53L51.21 60.39Z" fill="#313131" stroke="#313131" stroke-linecap="round" stroke-linejoin="round"></path>
  <path d="M69.0202 30.5V39.59L62.4702 42L51.5202 46.02L50.7402 45.69V37.21L50.9402 37.13H50.9502L57.9402 34.57L69.0202 30.5Z" fill="#42E8E0" stroke="#313131" stroke-linecap="round" stroke-linejoin="round"></path>
  <path d="M50.7409 37.0499V45.6899L40.0009 41.1599H39.9909L34.1509 38.6899L32.7109 38.0799V29.4199L45.1009 34.6599L50.7409 37.0499Z" fill="#42E8E0" stroke="#313131" stroke-linecap="round" stroke-linejoin="round"></path>
  <path d="M39.0708 40.78C39.0708 42.05 36.0708 43.07 32.4308 43.07C28.7908 43.07 25.8008 42.07 25.8008 40.78C25.8008 39.49 28.8008 38.49 32.4308 38.49C36.0608 38.49 39.0708 39.52 39.0708 40.78Z" fill="white" stroke="#313131" stroke-linecap="round" stroke-linejoin="round"></path>
  <path d="M39.0708 40.78V45.62C39.0708 46.88 36.0708 47.91 32.4308 47.91C28.7908 47.91 25.8008 46.91 25.8008 45.62V40.83C25.8008 42.1 28.8008 43.12 32.4308 43.12C36.0608 43.12 39.0708 42.05 39.0708 40.78Z" fill="#313131" stroke="#313131" stroke-linecap="round" stroke-linejoin="round"></path>
  <path d="M32.63 45.84L32.63 45.8399H32.6195H32.5195V44.9299H32.6163C34.0726 44.9485 35.5224 44.753 36.9195 44.3505V45.2535C35.53 45.6723 34.0825 45.8704 32.63 45.84Z" stroke="white"></path>
  <path d="M57.3794 48.31C57.3794 49.58 54.3794 50.6 50.7394 50.6C47.0994 50.6 44.1094 49.6 44.1094 48.31C44.1094 47.02 47.1094 46.02 50.7394 46.02C54.3694 46.02 57.3794 47.05 57.3794 48.31Z" fill="white" stroke="#313131" stroke-linecap="round" stroke-linejoin="round"></path>
  <path d="M57.3794 48.3101V53.1001C57.3794 54.3601 54.3794 55.39 50.7394 55.39C47.0994 55.39 44.1094 54.3901 44.1094 53.1001V48.3101C44.1094 49.5801 47.1094 50.6001 50.7394 50.6001C54.3694 50.6001 57.3794 49.6201 57.3794 48.3101Z" fill="#313131" stroke="#313131" stroke-linecap="round" stroke-linejoin="round"></path>
  <path d="M50.9308 53.3301L50.9308 53.33H50.9203H50.8203V52.42H50.9159C52.3707 52.4455 53.8204 52.261 55.2203 51.8729V52.7435C53.8307 53.1623 52.3833 53.3605 50.9308 53.3301Z" stroke="white"></path>
  <path d="M75.6606 41.28C75.6606 42.54 72.6606 43.57 69.0206 43.57C65.3806 43.57 62.3906 42.57 62.3906 41.28C62.3906 39.99 65.3906 38.99 69.0206 38.99C72.6506 38.99 75.6606 40.01 75.6606 41.28Z" fill="white" stroke="#313131" stroke-linecap="round" stroke-linejoin="round"></path>
  <path d="M75.6606 41.28V46.07C75.6606 47.33 72.6606 48.36 69.0206 48.36C65.3806 48.36 62.3906 47.36 62.3906 46.07V41.28C62.3906 42.54 65.3906 43.57 69.0206 43.57C72.6506 43.57 75.6606 42.54 75.6606 41.28Z" fill="#313131" stroke="#313131" stroke-linecap="round" stroke-linejoin="round"></path>
  <path d="M69.2091 46.3L69.2091 46.2999H69.1986H69.0586V45.3799H69.1531C70.6212 45.4118 72.085 45.2301 73.4986 44.8414V45.7135C72.109 46.1323 70.6615 46.3304 69.2091 46.3Z" stroke="white"></path>
  <path d="M58.3611 24.1C58.3611 25.53 55.0111 26.69 50.8611 26.69C46.7111 26.69 43.3711 25.53 43.3711 24.1C43.3711 22.67 46.7311 21.52 50.8611 21.52C54.9911 21.52 58.3611 22.67 58.3611 24.1Z" fill="#42E8E0" stroke="#313131" stroke-linecap="round" stroke-linejoin="round"></path>
  <path d="M58.3611 24.1001V29.5101C58.3611 30.9401 55.0111 32.1001 50.8611 32.1001C46.7111 32.1001 43.3711 30.9401 43.3711 29.5101V24.1001C43.3711 25.5301 46.7311 26.6901 50.8611 26.6901C54.9911 26.6901 58.3611 25.5301 58.3611 24.1001Z" fill="#313131" stroke="#313131" stroke-linecap="round" stroke-linejoin="round"></path>
  <path d="M56.4906 27.37V29.53C54.7423 30.1025 52.91 30.3763 51.0706 30.34H50.3906V28.18H51.0706C52.91 28.2163 54.7423 27.9424 56.4906 27.37Z" fill="white"></path>
</svg>
