<?xml version="1.0" encoding="UTF-8"?>
<svg xmlns="http://www.w3.org/2000/svg" width="32" height="33" viewBox="0 0 32 33" fill="none">
  <g clip-path="url(#clip0_288_22337)">
    <path d="M16 32.1616C24.8366 32.1616 32 24.9982 32 16.1616C32 7.32507 24.8366 0.161621 16 0.161621C7.16344 0.161621 0 7.32507 0 16.1616C0 24.9982 7.16344 32.1616 16 32.1616Z" fill="#007AB9"></path>
    <path d="M25.5603 17.4489V24.0453H21.7359V17.891C21.7359 16.3457 21.1837 15.2904 19.799 15.2904C18.7423 15.2904 18.1145 16.0009 17.8373 16.6888C17.7366 16.9347 17.7106 17.2761 17.7106 17.6209V24.0451H13.8859C13.8859 24.0451 13.9373 13.6216 13.8859 12.5426H17.7109V14.1726C17.7032 14.1855 17.6924 14.198 17.6856 14.2103H17.7109V14.1726C18.2192 13.3906 19.1256 12.2725 21.1578 12.2725C23.6739 12.2725 25.5603 13.9165 25.5603 17.4489ZM9.88492 6.99805C8.57663 6.99805 7.7207 7.85683 7.7207 8.98514C7.7207 10.0895 8.55182 10.9731 9.83472 10.9731H9.85953C11.1935 10.9731 12.0229 10.0895 12.0229 8.98514C11.9975 7.85683 11.1935 6.99805 9.88492 6.99805ZM7.94802 24.0453H11.7713V12.5426H7.94802V24.0453Z" fill="white"></path>
  </g>
  <defs>
    <clipPath id="clip0_288_22337">
      <rect width="32" height="32" fill="white" transform="translate(0 0.162109)"></rect>
    </clipPath>
  </defs>
</svg>
