<?xml version="1.0" encoding="UTF-8"?>
<svg xmlns="http://www.w3.org/2000/svg" width="101" height="100" viewBox="0 0 101 100" fill="none">
  <path d="M67.4539 77H38.7927C38.5502 74.5754 40.1162 70.5343 40.884 69.1604C34.8426 66.9277 32.5089 59.2194 33.0847 53.6629C33.6505 48.0964 36.6509 45.0555 37.6915 44.2978C38.4896 43.7119 39.2372 43.0754 40.1768 42.5096C43.5712 42.9137 45.1068 44.7827 45.1068 44.7827C46.1777 45.6718 52.6333 47.9853 55.4519 48.844C56.6137 49.1976 58.7252 49.6926 60.8366 50.1472C60.7053 50.4604 60.5538 50.6322 60.3719 50.5715C59.9476 52.4203 60.6144 56.4614 63.1299 61.1187C65.6455 65.7861 67.4539 77 67.4539 77Z" fill="#323130"></path>
  <path d="M61.725 22.8498C60.8663 24.9209 60.3005 31.6189 60.2298 35.6903C60.1692 39.2767 60.8259 42.6914 61.1794 44.0856C59.462 43.3986 58.2295 43.5299 53.7641 43.0551C49.2988 42.5803 49.5816 41.8731 45.8234 40.6305C44.4798 40.186 43.5099 40.1051 42.7725 40.2365C43.0351 39.8122 43.2978 39.4586 43.6817 39.3474C42.6411 38.5897 41.3076 37.2562 40.6408 35.1649C39.974 33.0737 41.3985 30.6996 43.3988 29.7499C44.2373 29.3458 45.0961 28.8104 45.9144 28.2345C47.9652 28.9316 51.2587 29.7802 53.855 29.0832C56.6434 28.3356 57.4617 24.4865 57.7041 22.0618L61.7957 22.0012L61.725 22.8498Z" fill="#323130"></path>
  <path d="M57.1426 22.5692C57.0028 23.6526 56.7453 24.9077 56.2745 26.0042C55.718 27.3003 54.9053 28.2839 53.7252 28.6003L53.7251 28.6003C52.5201 28.9238 51.1245 28.8943 49.7545 28.6873C48.7797 28.5401 47.8352 28.3057 47.0073 28.0588C47.844 27.4215 48.5821 26.7643 49.1317 26.1988L49.1317 26.1989L49.1339 26.1965C49.7605 25.5434 50.4568 24.5872 50.9866 23.8129C51.2539 23.4221 51.4834 23.0709 51.6461 22.8173C51.6886 22.7509 51.7266 22.6912 51.7596 22.6391L57.1426 22.5692Z" stroke="#313131" stroke-miterlimit="10"></path>
  <path d="M45.8251 40.6305C44.4814 40.186 43.5116 40.1052 42.7741 40.2365C41.6248 40.4542 40.2054 41.7448 39.4018 42.7569L45.8251 40.6305ZM45.8251 40.6305C47.1464 41.0674 47.9683 41.4381 48.6725 41.7558C49.9713 42.3417 50.8704 42.7473 53.7657 43.0552C55.1119 43.1983 56.1643 43.2864 57.0247 43.3584C58.6988 43.4984 59.6462 43.5777 60.6173 43.8837L45.8251 40.6305ZM67.5747 45.2576L67.5746 45.2587C67.3285 47.313 67.1078 48.6141 66.9487 49.5035C66.9278 49.6206 66.9076 49.7318 66.8884 49.8377C66.8184 50.2241 66.761 50.5407 66.7247 50.8164C66.6691 50.8073 66.6095 50.7974 66.5459 50.7866C66.1733 50.7232 65.6758 50.6315 65.0936 50.5188C63.9298 50.2936 62.4362 49.9863 60.9448 49.6588L60.9428 49.6584C58.8305 49.2036 56.738 48.7124 55.5986 48.3657C54.6824 48.0865 53.3815 47.7539 52.017 47.405C51.2673 47.2133 50.4983 47.0167 49.7635 46.8213C48.7181 46.5435 47.7373 46.2672 46.9544 46.0069C46.5628 45.8766 46.2281 45.7528 45.9633 45.6374C45.6887 45.5177 45.5247 45.4219 45.4474 45.3577L45.4474 45.3576L45.4392 45.3511L45.128 45.7424C45.4392 45.3511 45.4391 45.351 45.439 45.3509L45.4387 45.3507L45.4379 45.3501L45.4357 45.3483L45.4282 45.3424L45.4017 45.3219C45.379 45.3045 45.3463 45.2797 45.3039 45.2484C45.2193 45.1858 45.0962 45.0973 44.9385 44.9906C44.6234 44.7772 44.1688 44.4899 43.6051 44.1898C42.6625 43.6879 41.4011 43.1429 39.9682 42.8553C40.2583 42.5139 40.6146 42.1476 41.0012 41.813C41.6587 41.244 42.3322 40.8301 42.8645 40.7283C43.4918 40.6172 44.3724 40.6766 45.668 41.1052L45.6681 41.1053C46.9642 41.5338 47.7465 41.8869 48.4429 42.2012C48.7467 42.3384 49.0343 42.4681 49.3409 42.5936C50.3534 43.0076 51.4477 43.3115 53.7129 43.5524C54.8342 43.6716 55.7524 43.7528 56.5245 43.8181C56.6848 43.8317 56.8383 43.8445 56.9858 43.8569C57.5516 43.9042 58.0284 43.9441 58.4522 43.9882C59.5097 44.0981 60.1965 44.2303 60.9954 44.5499L61.9071 44.9146L61.6657 43.9627C61.3196 42.5979 60.6717 39.2288 60.7314 35.6988C60.7665 33.6782 60.9246 31.0006 61.1808 28.5724C61.3088 27.3585 61.4608 26.2123 61.6329 25.245C61.8068 24.2679 61.9958 23.5061 62.1885 23.0414L62.2184 22.9693L62.2249 22.8914L62.2565 22.5125C62.3704 22.5197 62.5029 22.5308 62.6502 22.548C63.1691 22.6083 63.859 22.7417 64.5576 23.0304C65.9331 23.5988 67.3462 24.7623 67.5731 27.2496L67.5732 27.2506C68.076 32.6401 68.0745 41.1599 67.5747 45.2576Z" stroke="#313131" stroke-miterlimit="10"></path>
  <path d="M49.8546 58.3471L44.8134 62.964L44.6821 63.0852L44.5507 62.964L39.5095 58.3471C37.5092 56.6902 37.6708 53.912 39.3883 52.5785C40.8026 51.5076 43.0959 51.5379 44.6821 52.7603C46.2682 51.5278 48.5615 51.5076 49.9758 52.5785C51.7034 53.9019 51.8549 56.6902 49.8546 58.3471Z" fill="#3CCACE"></path>
</svg>
