<svg width="24" height="24" viewBox="0 0 24 24" fill="none" xmlns="http://www.w3.org/2000/svg">
<g clip-path="url(#clip0_3552_49285)">
<path fill-rule="evenodd" clip-rule="evenodd" d="M2 12C2 6.47715 6.47715 2 12 2C17.5228 2 22 6.47715 22 12C22 17.5228 17.5228 22 12 22C6.47715 22 2 17.5228 2 12ZM12.3536 8.64645C12.1583 8.45118 11.8417 8.45118 11.6464 8.64645C11.4512 8.84171 11.4512 9.15829 11.6464 9.35355L13.7929 11.5H9C8.72386 11.5 8.5 11.7239 8.5 12C8.5 12.2761 8.72386 12.5 9 12.5H13.7929L11.6464 14.6464C11.4512 14.8417 11.4512 15.1583 11.6464 15.3536C11.8417 15.5488 12.1583 15.5488 12.3536 15.3536L15.3536 12.3536C15.5488 12.1583 15.5488 11.8417 15.3536 11.6464L12.3536 8.64645Z" fill="white"/>
</g>
<defs>
<clipPath id="clip0_3552_49285">
<rect width="24" height="24" fill="white"/>
</clipPath>
</defs>
</svg>
