<svg width="24" height="24" viewBox="0 0 24 24" fill="none" xmlns="http://www.w3.org/2000/svg">
<g clip-path="url(#clip0_3552_49306)">
<path fill-rule="evenodd" clip-rule="evenodd" d="M22.5 12.0632C22.5 6.26473 17.7984 1.56317 12 1.56317C6.20156 1.56317 1.5 6.26473 1.5 12.0632C1.5 17.3038 5.33906 21.6477 10.3594 22.4361V15.0993H7.69266V12.0632H10.3594V9.74989C10.3594 7.1188 11.9273 5.66426 14.3255 5.66426C15.4744 5.66426 16.6763 5.86958 16.6763 5.86958V8.4538H15.3516C14.048 8.4538 13.6402 9.26286 13.6402 10.0944V12.0632H16.552L16.087 15.0993H13.6406V22.4371C18.6609 21.6491 22.5 17.3052 22.5 12.0632Z" fill="#3CCACE"/>
</g>
<defs>
<clipPath id="clip0_3552_49306">
<rect width="24" height="24" fill="white"/>
</clipPath>
</defs>
</svg>
