<svg width="103" height="26" viewBox="0 0 103 26" fill="none" xmlns="http://www.w3.org/2000/svg">
<path d="M0.3205 25V0.907749H5.67813V25H0.3205ZM15.2331 25V0.907749H20.6249V25H15.2331ZM3.52825 14.9331V10.2921H17.0076V14.9331H3.52825ZM32.96 25.3754C31.1627 25.3754 29.5589 25.0114 28.1484 24.2834C26.7606 23.5326 25.6686 22.4975 24.8724 21.178C24.0761 19.8585 23.678 18.3684 23.678 16.7076C23.678 15.0469 24.0647 13.5681 24.8382 12.2714C25.6345 10.9519 26.7037 9.91675 28.046 9.166C29.3882 8.41525 30.9011 8.03987 32.5846 8.03987C34.2226 8.03987 35.6672 8.3925 36.9185 9.09775C38.1697 9.803 39.148 10.7812 39.8532 12.0325C40.5812 13.2837 40.9452 14.717 40.9452 16.3322C40.9452 16.628 40.9225 16.9465 40.877 17.2877C40.8542 17.6062 40.7974 17.9816 40.7064 18.4139L26.408 18.448V14.8649L38.4882 14.8307L36.236 16.3322C36.2132 15.3767 36.0654 14.5919 35.7924 13.9776C35.5194 13.3406 35.1099 12.8629 34.5639 12.5444C34.0406 12.2031 33.3922 12.0325 32.6187 12.0325C31.7997 12.0325 31.0831 12.2259 30.4689 12.6126C29.8774 12.9766 29.411 13.4999 29.0697 14.1824C28.7512 14.8649 28.592 15.6952 28.592 16.6735C28.592 17.6517 28.7626 18.4935 29.1039 19.1987C29.4679 19.8812 29.9684 20.4159 30.6054 20.8026C31.2651 21.1666 32.0386 21.3486 32.9259 21.3486C33.7449 21.3486 34.4842 21.2121 35.144 20.9391C35.8037 20.6434 36.3839 20.2111 36.8844 19.6424L39.7509 22.5089C38.9319 23.4644 37.9422 24.181 36.782 24.6587C35.6217 25.1365 34.3477 25.3754 32.96 25.3754ZM50.3928 25.3413C48.8686 25.3413 47.5036 24.9659 46.2978 24.2151C45.1148 23.4644 44.1707 22.4406 43.4654 21.1439C42.7829 19.8471 42.4417 18.3684 42.4417 16.7076C42.4417 15.0469 42.7829 13.5681 43.4654 12.2714C44.1707 10.9746 45.1148 9.95087 46.2978 9.20012C47.5036 8.44937 48.8686 8.074 50.3928 8.074C51.5076 8.074 52.5086 8.29012 53.3958 8.72237C54.3058 9.15462 55.0452 9.7575 55.6139 10.531C56.1827 11.2817 56.5012 12.1462 56.5694 13.1245V20.2907C56.5012 21.269 56.1827 22.1449 55.6139 22.9184C55.0679 23.6691 54.3399 24.2606 53.4299 24.6929C52.5199 25.1251 51.5076 25.3413 50.3928 25.3413ZM51.4507 20.632C52.5654 20.632 53.4641 20.268 54.1466 19.54C54.8291 18.7892 55.1703 17.8451 55.1703 16.7076C55.1703 15.9341 55.0111 15.2516 54.6926 14.6601C54.3968 14.0686 53.9646 13.6136 53.3958 13.2951C52.8498 12.9539 52.2128 12.7832 51.4848 12.7832C50.7568 12.7832 50.1084 12.9539 49.5397 13.2951C48.9937 13.6136 48.5501 14.0686 48.2088 14.6601C47.8903 15.2516 47.7311 15.9341 47.7311 16.7076C47.7311 17.4584 47.8903 18.1295 48.2088 18.721C48.5273 19.3125 48.9709 19.7789 49.5397 20.1201C50.1084 20.4614 50.7454 20.632 51.4507 20.632ZM54.9656 25V20.5296L55.7504 16.5029L54.9656 12.4761V8.41525H60.0843V25H54.9656ZM63.7605 25V0.22525H68.9816V25H63.7605ZM75.0129 25V1.55612H80.2341V25H75.0129ZM71.2592 12.8515V8.41525H83.9878V12.8515H71.2592ZM97.2424 25V15.5474C97.2424 14.6829 96.9694 13.989 96.4234 13.4657C95.9002 12.9197 95.2291 12.6467 94.4101 12.6467C93.8413 12.6467 93.3408 12.7719 92.9086 13.0221C92.4763 13.2496 92.1351 13.5909 91.8848 14.0459C91.6346 14.4781 91.5094 14.9786 91.5094 15.5474L89.4961 14.5577C89.4961 13.261 89.7691 12.1235 90.3151 11.1452C90.8611 10.167 91.6232 9.41625 92.6014 8.893C93.5797 8.347 94.7058 8.074 95.9798 8.074C97.2766 8.074 98.4141 8.347 99.3923 8.893C100.371 9.41625 101.121 10.1556 101.645 11.1111C102.191 12.0439 102.464 13.1359 102.464 14.3871V25H97.2424ZM86.2883 25V0.22525H91.5094V25H86.2883Z" fill="#3CCACE"/>
</svg>
