<svg width="101" height="100" viewBox="0 0 101 100" fill="none" xmlns="http://www.w3.org/2000/svg">
<path d="M30.0922 54.7727L30.1449 54.7833L30.1453 54.7834L31.7236 55.1035L31.725 55.1038L34.0129 55.5612L36.8729 56.133L36.8733 56.1331L40.1672 56.7885L40.1681 56.7887L43.774 57.5126L43.7746 57.5128L47.5491 58.275L47.5501 58.2752L51.3582 59.0365C52.5425 59.2995 53.733 59.5345 54.9105 59.7669L55.0769 59.7998L55.0787 59.8001L58.5623 60.5011L58.5624 60.5012L61.674 61.1263L61.674 61.1263L64.2899 61.6523L64.2901 61.6523L66.2653 62.0488L66.2653 62.0488L66.2721 62.0501C66.7239 62.1343 67.1605 62.2158 67.5875 62.3188C68.0454 62.4316 68.5212 62.4521 68.9871 62.3791C69.4534 62.306 69.9005 62.1407 70.3022 61.8929C70.7039 61.645 71.0521 61.3195 71.3265 60.9355C71.6009 60.5515 71.7959 60.1167 71.9002 59.6564L71.9003 59.6564L71.903 59.6428L72.147 58.4078L72.1471 58.4078L72.1482 58.4015C72.2876 57.6451 72.1691 56.8637 71.8114 56.1825C71.4545 55.5028 70.8801 54.9623 70.1801 54.6471C70.0907 54.6046 70.018 54.5336 69.9735 54.4453C69.9286 54.3562 69.915 54.2545 69.9349 54.1565C69.955 54.0575 70.0076 53.9681 70.0845 53.9024C70.1604 53.8376 70.2554 53.7996 70.355 53.7943C71.1182 53.7756 71.8534 53.5027 72.444 53.0188C72.9953 52.5671 73.391 51.9558 73.5781 51.2709L79.3723 53.9404C79.4265 53.9712 79.468 54.0203 79.4893 54.0791C79.511 54.1388 79.5102 54.2043 79.4872 54.2634L78.921 55.5072C78.8801 55.576 78.8185 55.6305 78.7448 55.6628C78.6668 55.697 78.5796 55.7043 78.4969 55.6836L78.4817 55.6798L78.4662 55.677C77.6967 55.5351 76.9019 55.6513 76.2053 56.0075C75.5086 56.3637 74.9492 56.94 74.6139 57.6468L74.6121 57.6507C74.2815 58.3632 74.2 59.1663 74.3807 59.9307C74.5614 60.6951 74.9938 61.3767 75.6084 61.8659L75.6166 61.8724L75.625 61.8786C75.6949 61.9296 75.746 62.0023 75.7702 62.0852L76.2501 61.945L75.7702 62.0852C75.7934 62.1646 75.7908 62.2491 75.7631 62.3268L75.2536 63.4413C75.2118 63.5101 75.1497 63.5646 75.0756 63.5971C74.9969 63.6316 74.9089 63.6393 74.8253 63.619L74.8116 63.6156L74.7978 63.6131C74.0283 63.4712 73.2335 63.5874 72.5368 63.9436C71.8402 64.2998 71.2807 64.8761 70.9455 65.583L70.9437 65.5868C70.6131 66.2994 70.5316 67.1024 70.7123 67.8668C70.893 68.6312 71.3254 69.3128 71.94 69.802L71.9482 69.8085L71.9566 69.8147C72.0265 69.8657 72.0775 69.9384 72.1018 70.0213C72.1249 70.1005 72.1224 70.1849 72.0948 70.2624L71.5841 71.3723C71.5426 71.4434 71.4796 71.4999 71.404 71.5334C71.3245 71.5686 71.2355 71.5764 71.151 71.5555L71.136 71.5518L71.1207 71.549C70.3526 71.4092 69.5597 71.5264 68.8649 71.8825C68.1701 72.2386 67.6121 72.8137 67.2772 73.5189L67.2754 73.5229C66.9447 74.2355 66.8632 75.0384 67.0439 75.8029C67.2246 76.5673 67.657 77.2489 68.2717 77.7382L68.2799 77.7447L68.2883 77.7508C68.3581 77.8018 68.4091 77.8744 68.4334 77.9575C68.4565 78.0367 68.454 78.121 68.4264 78.1986L67.9168 79.3061C67.8748 79.3759 67.812 79.4311 67.737 79.4638C67.668 79.4938 67.592 79.5032 67.5181 79.4914L67.4419 79.4568C67.4167 79.4454 67.3878 79.4322 67.3554 79.4174C67.2824 79.3841 67.1911 79.3423 67.0822 79.2925C66.7679 79.1485 66.3087 78.9376 65.7251 78.6694C64.5581 78.1331 62.8944 77.3675 60.8997 76.4491C56.9103 74.6124 51.5968 72.1643 46.2835 69.7153C40.9702 67.2662 35.6572 64.8162 31.6687 62.9757C29.6745 62.0554 28.0114 61.2875 26.8451 60.7482C26.2619 60.4786 25.8031 60.2662 25.4892 60.1206C25.3322 60.0477 25.2117 59.9917 25.1303 59.9537L25.0569 59.9193C25.0007 59.8699 24.9593 59.8056 24.9377 59.7335C24.9141 59.6546 24.9154 59.5705 24.9414 59.4927L25.4585 58.3852C25.4986 58.3155 25.56 58.2603 25.6339 58.228C25.7112 58.1941 25.7976 58.1871 25.8793 58.2081L25.8964 58.2125L25.9138 58.2157C26.6843 58.3569 27.4799 58.2395 28.1767 57.8816C28.8735 57.5237 29.4324 56.9455 29.7662 56.237L29.7672 56.2349C29.9817 55.7742 30.0913 55.275 30.0922 54.7727Z" fill="#313131" stroke="#313131"/>
<path d="M22.5002 49.7686L22.7382 48.5645C22.7626 48.4869 22.8107 48.4186 22.876 48.3694C22.9451 48.3173 23.0296 48.2895 23.1163 48.2903L23.1322 48.2905L23.1481 48.2897C23.929 48.2478 24.6742 47.9494 25.268 47.4408C25.8619 46.9322 26.2712 46.2418 26.4324 45.4768L26.4325 45.4768L26.4341 45.4684C26.5824 44.6994 26.4721 43.903 26.1205 43.2032C25.7688 42.5034 25.1955 41.9396 24.49 41.5994L24.4758 41.5926L24.4612 41.5866C24.3811 41.5541 24.3141 41.4961 24.2705 41.4216L23.8451 41.6707L24.2705 41.4216C24.2294 41.3514 24.2112 41.2703 24.2183 41.1897L24.4618 39.9949C24.4852 39.9174 24.5324 39.8491 24.597 39.8C24.6648 39.7484 24.7479 39.7208 24.8332 39.7215L24.848 39.7216L24.8628 39.7209C25.6453 39.6809 26.3924 39.3834 26.9881 38.8746C27.5837 38.3659 27.9944 37.6744 28.156 36.9079L28.1561 36.908L28.1578 36.8989C28.3054 36.1289 28.1938 35.3318 27.8405 34.6319C27.4872 33.932 26.912 33.3687 26.2048 33.03L26.1932 33.0244L26.1812 33.0194C26.1019 32.9864 26.0356 32.9281 25.9926 32.8536C25.9517 32.7828 25.9341 32.7013 25.9418 32.6204L26.1777 31.4196C26.2021 31.3434 26.2497 31.2767 26.314 31.2287C26.3824 31.1777 26.4659 31.1509 26.5513 31.1525L26.5696 31.1529L26.5879 31.1519C27.37 31.1096 28.1161 30.8099 28.7102 30.2996C29.3042 29.7892 29.7128 29.0968 29.8723 28.3301L29.8728 28.3276C30.0287 27.5578 29.9215 26.7579 29.5681 26.0564C29.2148 25.3549 28.6359 24.7924 27.9245 24.4593L27.9125 24.4537L27.9003 24.4487C27.8196 24.416 27.7522 24.3575 27.7085 24.2822C27.6669 24.2107 27.6491 24.128 27.6574 24.046L27.9254 22.7064C27.9401 22.654 27.9707 22.6074 28.0132 22.5732C28.0469 22.5458 28.0869 22.5274 28.1293 22.5194L28.1942 22.5321L28.5824 22.6092C28.9219 22.6768 29.4187 22.7759 30.0503 22.9021C31.3136 23.1546 33.1157 23.5152 35.2771 23.9479C39.5999 24.8134 45.3594 25.9674 51.1174 27.1214C56.8754 28.2755 62.632 29.4295 66.9491 30.295L72.1654 31.3408L73.6267 31.6338L74.0117 31.711L74.1104 31.7308L74.1305 31.7348C74.1908 31.7516 74.2433 31.7895 74.2782 31.8417C74.313 31.8936 74.328 31.956 74.3209 32.0178L74.0536 33.3536C74.0293 33.4301 73.9816 33.4971 73.9171 33.5452C73.8486 33.5962 73.7651 33.6231 73.6797 33.6214L73.6614 33.6211L73.6431 33.6221C72.861 33.6644 72.1149 33.964 71.5209 34.4744C70.9269 34.9847 70.5183 35.6772 70.3588 36.4438L70.3583 36.4463C70.2023 37.2161 70.3096 38.016 70.6629 38.7175C71.0162 39.419 71.595 39.9815 72.3064 40.3147L72.3184 40.3203L72.3307 40.3252C72.4115 40.358 72.479 40.4166 72.5226 40.4917C72.564 40.563 72.5818 40.6455 72.5737 40.7272L72.3302 41.9218C72.3061 41.9979 72.2588 42.0649 72.1947 42.113C72.127 42.164 72.0443 42.1911 71.9594 42.1902L71.9439 42.1901L71.9284 42.1909C71.1448 42.2313 70.3966 42.5301 69.8008 43.0406C69.2049 43.5511 68.7951 44.2446 68.6352 45.0126L68.6351 45.0126L68.6335 45.021C68.4874 45.7886 68.5987 46.583 68.9502 47.2809C69.3017 47.9788 69.8737 48.5412 70.5775 48.881L70.5906 48.8873L70.6041 48.8929C70.6853 48.9264 70.7531 48.9857 70.7972 49.0616C70.8396 49.1345 70.8577 49.2188 70.8493 49.3022L70.792 49.6173L70.6141 50.4987C70.5898 50.5753 70.5421 50.6424 70.4775 50.6906C70.409 50.7416 70.3255 50.7684 70.2401 50.7668L70.2218 50.7665L70.2035 50.7674C69.4214 50.8098 68.6753 51.1094 68.0813 51.6197C67.4874 52.13 67.0788 52.8223 66.9193 53.5888C66.7575 54.3636 66.8629 55.1703 67.2183 55.8776C67.5737 56.5848 68.158 57.151 68.8764 57.4838L68.886 57.4882L68.8957 57.4923C68.9769 57.5258 69.0448 57.5851 69.0889 57.661L69.5212 57.4099L69.0889 57.661C69.1305 57.7327 69.1488 57.8153 69.1414 57.8974L68.8985 59.0889C68.8735 59.1666 68.8252 59.2348 68.7601 59.2844C68.7011 59.3292 68.6311 59.3567 68.5578 59.3641L68.4801 59.349C68.3918 59.3316 68.2615 59.3058 68.0917 59.2721C67.7522 59.2046 67.2563 59.1055 66.6262 58.9794C65.366 58.7272 63.5697 58.3669 61.416 57.9345C57.1086 57.0697 51.3718 55.9167 45.6352 54.7636L44.766 54.5889C39.3227 53.4948 33.9447 52.4138 29.8556 51.5927C27.7024 51.1603 25.9065 50.7999 24.6467 50.5477C24.0169 50.4215 23.5209 50.3224 23.1812 50.2548C23.0114 50.221 22.8804 50.195 22.7911 50.1774L22.7037 50.1604C22.6377 50.1272 22.5827 50.0753 22.5458 50.0107C22.5038 49.9372 22.4878 49.852 22.5002 49.7686ZM61.3163 35.4411L61.3145 35.4488L61.3129 35.4566L59.5133 44.459L59.5131 44.46L58.171 51.1067L58.1702 51.1107C58.071 51.6231 58.1783 52.1541 58.4688 52.5878C58.7594 53.0216 59.2096 53.3229 59.7212 53.4263L59.7502 53.4322L59.7796 53.4346C59.8966 53.4442 60.0141 53.4447 60.1311 53.4361C60.5791 53.431 61.0121 53.2735 61.3588 52.9893C61.7108 52.7007 61.9521 52.2993 62.0417 51.8531L62.0418 51.8525L63.2315 45.8916L63.2316 45.8909L65.1763 36.225L65.1764 36.2244C65.2788 35.7124 65.1738 35.1807 64.8845 34.746C64.5952 34.3113 64.1454 34.0092 63.6336 33.9057L63.6243 33.9038L63.615 33.9023C63.1082 33.8196 62.5887 33.9325 62.1619 34.2181C61.7351 34.5038 61.4329 34.941 61.3163 35.4411ZM34.7651 30.1189L34.7647 30.1207L32.4312 41.8752L32.431 41.8762L31.8593 44.726L31.8592 44.7264L31.6384 45.8223C31.6384 45.8226 31.6383 45.8228 31.6383 45.823C31.5394 46.307 31.6266 46.8105 31.8825 47.2331C32.1385 47.6558 32.5446 47.9665 33.0196 48.1031L33.0873 48.1226H33.1578H33.2523C33.3678 48.1344 33.4842 48.1343 33.5997 48.1224C34.0444 48.1152 34.474 47.958 34.8184 47.6757C35.1704 47.3871 35.4117 46.9856 35.5013 46.5395L35.5014 46.5391L36.592 41.0883L37.2021 38.0389L37.9646 34.2277L37.9648 34.2271L38.6358 30.8962L38.6358 30.8962L38.6365 30.8925C38.7357 30.3799 38.6283 29.8491 38.3378 29.4154C38.0473 28.9817 37.5972 28.6803 37.0855 28.5768L37.0843 28.5766C36.5723 28.4743 36.0406 28.5792 35.6058 28.8683C35.1709 29.1574 34.8686 29.6072 34.7651 30.1189Z" fill="#3CCACE" stroke="#3CCACE"/>
</svg>
