<svg width="101" height="100" viewBox="0 0 101 100" fill="none" xmlns="http://www.w3.org/2000/svg">
<path d="M61.8381 58.6108C64.9222 64.8071 66.7592 73.5192 67.344 76.6018C67.368 76.7426 67.3605 76.887 67.3221 77.0246C67.2836 77.1622 67.215 77.2895 67.1214 77.3971C67.0326 77.5066 66.9205 77.5946 66.7933 77.6549C66.6662 77.7152 66.5273 77.7461 66.3867 77.7453H39.9649C39.8337 77.7456 39.7038 77.7185 39.5836 77.6658C39.4633 77.613 39.3553 77.5356 39.2663 77.4387C39.1764 77.3436 39.1073 77.2306 39.0636 77.107C39.02 76.9835 39.0027 76.852 39.0128 76.7213C39.1481 74.9489 39.5116 73.2016 40.0943 71.5231C40.303 70.918 40.5555 70.329 40.8498 69.7609C40.8225 69.752 40.7965 69.7398 40.7722 69.7245C36.4669 67.2762 33.2482 62.8681 33.2482 55.7622C33.1432 53.2418 33.707 50.7386 34.8817 48.509C36.0565 46.2794 37.8001 44.4035 39.9339 43.0735V43.323C41.6991 43.3601 43.3908 44.0399 44.6945 45.2359C50.0607 48.1833 55.9597 49.8675 60.4099 50.8136C60.259 53.4899 60.7487 56.1637 61.8381 58.6108Z" fill="#313131" stroke="#313131" stroke-miterlimit="10"/>
<path d="M67.5512 51.9103C65.1512 51.678 62.7667 51.3048 60.4101 50.7927C55.9599 49.8466 50.0608 48.1624 44.6947 45.215C43.391 44.019 41.6993 43.3392 39.9341 43.3021C39.9341 43.2189 39.9341 43.1358 39.9341 43.0526C40.0101 42.4975 40.2213 41.97 40.549 41.5166C40.8767 41.0632 41.3106 40.698 41.8124 40.4535C42.8458 39.9715 44.011 39.8543 45.119 40.1208C46.9508 40.4743 48.9121 41.4931 50.9147 42.2001C50.956 42.2203 50.9994 42.2359 51.044 42.2469L51.339 42.356C53.5434 43.0942 57.4709 42.6939 60.9017 43.8011C60.7723 43.1773 60.6482 42.4704 60.5343 41.6855C59.9185 37.3762 59.7115 30.6913 61.8073 22.2703H63.665C66.5473 22.2703 68.5291 25.4931 68.4722 27.9883C68.5032 32.781 69.4554 44.2586 67.5512 51.9103Z" stroke="#313131" stroke-miterlimit="10"/>
<path d="M58.0297 22.2598C58.0297 22.2598 58.0297 29.9116 52.3376 29.9116C50.0396 29.9171 47.7518 29.6058 45.5381 28.9863C47.701 27.4579 49.5087 25.477 50.8369 23.1799C51.0083 22.8973 51.2493 22.6637 51.5366 22.5016C51.8238 22.3396 52.1478 22.2545 52.4773 22.2546L58.0297 22.2598Z" stroke="#313131" stroke-miterlimit="10"/>
<path d="M60.9275 43.7909C57.4968 42.6836 53.5692 43.0839 51.3648 42.3457L51.0698 42.2366C52.3932 42.5908 53.7527 42.7914 55.1216 42.8344C57.0155 42.9747 59.0854 43.1307 60.9275 43.7909Z" fill="#313131"/>
<path d="M51.3646 56.4485C51.3646 59.1463 48.6479 60.9293 44.6945 64.3341C40.7462 60.9293 38.0296 59.1359 38.0296 56.4485C38.0057 55.9907 38.074 55.5329 38.2305 55.1024C38.387 54.6718 38.6284 54.2775 38.9403 53.9429C39.2503 53.6069 39.6245 53.337 40.0405 53.1495C40.4566 52.9619 40.906 52.8605 41.362 52.8513C42.0505 52.8725 42.7213 53.0759 43.3065 53.441C43.8916 53.8061 44.3704 54.32 44.6945 54.9306C45.0198 54.321 45.4989 53.808 46.0838 53.4431C46.6687 53.0781 47.3388 52.8741 48.0269 52.8513C48.4837 52.8601 48.9341 52.9613 49.351 53.1489C49.768 53.3364 50.1431 53.6065 50.4539 53.9429C50.7657 54.2775 51.0071 54.6718 51.1636 55.1024C51.3201 55.5329 51.3885 55.9907 51.3646 56.4485Z" fill="#3CCACE"/>
<path d="M60.5654 41.6751C60.6792 42.46 60.8034 43.167 60.9328 43.7907C59.0906 43.1306 57.0207 42.9746 55.1268 42.8343C53.7579 42.7913 52.3984 42.5907 51.075 42.2365C51.0304 42.2255 50.987 42.2099 50.9457 42.1897C48.9431 41.4723 46.9819 40.4535 45.1501 40.1104C39.8254 38.3222 39.3597 31.6945 43.7478 29.922C44.3688 29.6742 44.9634 29.3642 45.5226 28.9967C47.7363 29.6162 50.0242 29.9275 52.3221 29.922C58.0142 29.922 58.0142 22.2703 58.0142 22.2703H61.8228C59.7426 30.6809 59.9496 37.3658 60.5654 41.6751Z" fill="#313131" stroke="#313131" stroke-miterlimit="10"/>
<path d="M60.9275 43.7909C57.4968 42.6836 53.5692 43.0839 51.3648 42.3457L51.0698 42.2366C52.3932 42.5908 53.7527 42.7914 55.1216 42.8344C57.0155 42.9747 59.0854 43.1307 60.9275 43.7909Z" fill="#313131"/>
</svg>
