<svg width="101" height="100" viewBox="0 0 101 100" fill="none" xmlns="http://www.w3.org/2000/svg">
<path d="M86.9797 46.8401V66.0401L68.3497 73.1001L50.7397 79.7801L51.2097 60.3901L68.3497 53.9001L69.3097 53.5401L80.0897 49.4501L86.9797 46.8401Z" stroke="#313131" stroke-linecap="round" stroke-linejoin="round"/>
<path d="M68.3491 53.8901V73.1001" stroke="#313131" stroke-linecap="round" stroke-linejoin="round"/>
<path d="M50.7395 45.6899V46.3099L32.4995 52.9999L14.4995 45.8999L32.7095 39.2199L34.1495 38.6899L39.9895 41.1599H39.9995L50.7395 45.6899Z" stroke="#313131" stroke-linecap="round" stroke-linejoin="round"/>
<path d="M69.3095 53.54L68.3495 53.9L51.2095 60.39L32.4995 53L50.7395 46.31L51.5195 46.02L69.3095 53.54Z" stroke="#313131" stroke-linecap="round" stroke-linejoin="round"/>
<path d="M69.449 39.43L69.019 39.25" stroke="#313131" stroke-linecap="round" stroke-linejoin="round"/>
<path d="M69.0195 30.5L57.9395 34.57L50.9495 37.13H50.9395L50.7395 37.05L45.0995 34.66L32.7095 29.42L39.6895 26.86L50.7695 22.79L63.1695 28.03L69.0195 30.5Z" fill="#42E8E0" stroke="#313131" stroke-linecap="round" stroke-linejoin="round"/>
<path d="M86.979 46.8399L80.089 49.4499L69.309 53.5399L51.519 46.0199L62.469 41.9999L69.019 39.5899L69.449 39.4299H69.459L86.979 46.8399Z" stroke="#313131" stroke-linecap="round" stroke-linejoin="round"/>
<path d="M69.019 39.8901V39.5901" stroke="#313131" stroke-linecap="round" stroke-linejoin="round"/>
<path d="M51.2095 60.3899L50.7395 79.7799L14.4995 66.2299V45.8999L32.4995 52.9999L51.2095 60.3899Z" fill="#313131" stroke="#313131" stroke-linecap="round" stroke-linejoin="round"/>
<path d="M69.0197 30.5V39.59L62.4697 42L51.5197 46.02L50.7397 45.69V37.21L50.9397 37.13H50.9497L57.9397 34.57L69.0197 30.5Z" fill="#42E8E0" stroke="#313131" stroke-linecap="round" stroke-linejoin="round"/>
<path d="M50.7395 37.0499V45.6899L39.9995 41.1599H39.9895L34.1495 38.6899L32.7095 38.0799V29.4199L45.0995 34.6599L50.7395 37.0499Z" fill="#42E8E0" stroke="#313131" stroke-linecap="round" stroke-linejoin="round"/>
<path d="M39.0693 40.78C39.0693 42.05 36.0693 43.07 32.4293 43.07C28.7893 43.07 25.7993 42.07 25.7993 40.78C25.7993 39.49 28.7993 38.49 32.4293 38.49C36.0593 38.49 39.0693 39.52 39.0693 40.78Z" fill="white" stroke="#313131" stroke-linecap="round" stroke-linejoin="round"/>
<path d="M39.0693 40.78V45.62C39.0693 46.88 36.0693 47.91 32.4293 47.91C28.7893 47.91 25.7993 46.91 25.7993 45.62V40.83C25.7993 42.1 28.7993 43.12 32.4293 43.12C36.0593 43.12 39.0693 42.05 39.0693 40.78Z" fill="#313131" stroke="#313131" stroke-linecap="round" stroke-linejoin="round"/>
<path d="M32.6295 45.84L32.6295 45.8399H32.619H32.519V44.9299H32.6158C34.0721 44.9485 35.5219 44.753 36.919 44.3505V45.2535C35.5295 45.6723 34.082 45.8704 32.6295 45.84Z" stroke="white"/>
<path d="M57.3799 48.31C57.3799 49.58 54.3799 50.6 50.7399 50.6C47.0999 50.6 44.1099 49.6 44.1099 48.31C44.1099 47.02 47.1099 46.02 50.7399 46.02C54.3699 46.02 57.3799 47.05 57.3799 48.31Z" fill="white" stroke="#313131" stroke-linecap="round" stroke-linejoin="round"/>
<path d="M57.3799 48.3101V53.1001C57.3799 54.3601 54.3799 55.39 50.7399 55.39C47.0999 55.39 44.1099 54.3901 44.1099 53.1001V48.3101C44.1099 49.5801 47.1099 50.6001 50.7399 50.6001C54.3699 50.6001 57.3799 49.6201 57.3799 48.3101Z" fill="#313131" stroke="#313131" stroke-linecap="round" stroke-linejoin="round"/>
<path d="M50.9303 53.3301L50.9303 53.33H50.9198H50.8198V52.42H50.9154C52.3702 52.4455 53.8199 52.261 55.2198 51.8729V52.7435C53.8302 53.1623 52.3828 53.3605 50.9303 53.3301Z" stroke="white"/>
<path d="M75.6592 41.28C75.6592 42.54 72.6592 43.57 69.0192 43.57C65.3792 43.57 62.3892 42.57 62.3892 41.28C62.3892 39.99 65.3892 38.99 69.0192 38.99C72.6492 38.99 75.6592 40.01 75.6592 41.28Z" fill="white" stroke="#313131" stroke-linecap="round" stroke-linejoin="round"/>
<path d="M75.6592 41.28V46.07C75.6592 47.33 72.6592 48.36 69.0192 48.36C65.3792 48.36 62.3892 47.36 62.3892 46.07V41.28C62.3892 42.54 65.3892 43.57 69.0192 43.57C72.6492 43.57 75.6592 42.54 75.6592 41.28Z" fill="#313131" stroke="#313131" stroke-linecap="round" stroke-linejoin="round"/>
<path d="M69.2095 46.3L69.2095 46.2999H69.1991H69.0591V45.3799H69.1536C70.6217 45.4118 72.0855 45.2301 73.4991 44.8414V45.7135C72.1095 46.1323 70.662 46.3304 69.2095 46.3Z" stroke="white"/>
<path d="M58.3596 24.1C58.3596 25.53 55.0096 26.69 50.8596 26.69C46.7096 26.69 43.3696 25.53 43.3696 24.1C43.3696 22.67 46.7296 21.52 50.8596 21.52C54.9896 21.52 58.3596 22.67 58.3596 24.1Z" fill="#42E8E0" stroke="#313131" stroke-linecap="round" stroke-linejoin="round"/>
<path d="M58.3596 24.1001V29.5101C58.3596 30.9401 55.0096 32.1001 50.8596 32.1001C46.7096 32.1001 43.3696 30.9401 43.3696 29.5101V24.1001C43.3696 25.5301 46.7296 26.6901 50.8596 26.6901C54.9896 26.6901 58.3596 25.5301 58.3596 24.1001Z" fill="#313131" stroke="#313131" stroke-linecap="round" stroke-linejoin="round"/>
<path d="M56.4892 27.3701V29.5301C54.7408 30.1026 52.9085 30.3764 51.0692 30.3401H50.3892V28.1801H51.0692C52.9085 28.2164 54.7408 27.9426 56.4892 27.3701Z" fill="white"/>
</svg>
