<svg width="101" height="100" viewBox="0 0 101 100" fill="none" xmlns="http://www.w3.org/2000/svg">
<g clip-path="url(#clip0_3427_48207)">
<path d="M58.0098 68.4901V78.2301L21.5098 63.6401V32.3501L22.0698 32.1101L34.1298 36.7101L34.7798 36.9601V48.3001L46.2598 52.7001L46.3498 52.7301V63.8701V64.0201L57.8798 68.4501L58.0098 68.4901Z" fill="#313131" stroke="#313131" stroke-linecap="round" stroke-linejoin="round"/>
<path d="M79.9498 59.6099V68.8299L58.0098 78.2299V68.3799L68.5198 64.0099L79.5098 59.4399L79.9498 59.6099Z" fill="#42E8E0" stroke="#313131" stroke-linecap="round" stroke-linejoin="round"/>
<path d="M68.5201 43.45V54.66L67.7901 54.95H67.7801L60.3001 58.06L58.0101 59.02L46.3501 64.02V52.66L53.7401 49.59L57.2201 48.1399L60.4701 46.7999L68.5201 43.45Z" fill="#42E8E0" stroke="#313131" stroke-linecap="round" stroke-linejoin="round"/>
<path d="M79.5101 59.4499L68.5201 64.0199L58.0101 68.3799L57.8801 68.4499L46.3501 64.0199L58.0101 59.0199L60.3001 58.0599L68.5201 54.6599V55.2399L79.5101 59.4499Z" stroke="#313131" stroke-linecap="round" stroke-linejoin="round"/>
<path d="M57.2198 27.1201V38.8101L57.0898 38.8601L48.7798 42.3201L46.3498 43.3201L42.0498 45.1101L34.7798 48.3001V36.9601L42.6098 33.5201L56.0598 27.6001L57.2198 27.1201Z" fill="#42E8E0" stroke="#313131" stroke-linecap="round" stroke-linejoin="round"/>
<path d="M57.2198 27.12L42.6098 33.52L34.7798 36.96L34.1298 36.71L22.0698 32.1L34.7798 26.82L45.1598 22.51L57.2198 27.12Z" stroke="#313131" stroke-linecap="round" stroke-linejoin="round"/>
<path d="M68.5198 43.2501V43.4501L60.4698 46.8001L57.2198 48.1401L53.7398 49.5901L46.3498 52.6601L46.2598 52.7001L34.7798 48.3001L42.0498 45.1101L46.3498 43.3201L48.7798 42.3201L57.0898 38.8601L57.2198 38.9101L68.5198 43.2501Z" stroke="#313131" stroke-linecap="round" stroke-linejoin="round"/>
</g>
<defs>
<clipPath id="clip0_3427_48207">
<rect width="59.47" height="56.74" fill="white" transform="translate(21 22)"/>
</clipPath>
</defs>
</svg>
