<svg width="648" height="31" viewBox="0 0 648 31" fill="none" xmlns="http://www.w3.org/2000/svg">
<path d="M24.2515 9.34009C24.2515 10.2301 23.9888 10.6101 23.0895 10.6101H1.18227C0.282948 10.6101 0 10.2301 0 9.34009V9.24011C0 8.36011 0.282948 7.61011 1.18227 7.61011H23.0895C23.9888 7.61011 24.2515 8.36011 24.2515 9.24011V9.34009Z" fill="#313131"/>
<path d="M24.2515 20.9701C24.2515 21.8501 23.9888 22.6101 23.0895 22.6101H1.18227C0.282948 22.6101 0 21.8501 0 20.9701V20.8701C0 19.9801 0.282948 19.6101 1.18227 19.6101H23.0895C23.9888 19.6101 24.2515 19.9801 24.2515 20.8701V20.9701Z" fill="#313131"/>
<path d="M675 15H38.3984" stroke="#3CCACE" stroke-width="3" stroke-miterlimit="10"/>
<path d="M17.9248 0.0600004V3.23H28.4843L37.0128 11.21L46.6527 11.9L46.5719 18.57L36.9017 19.6L28.06 27.44H17.5207V30.24L12.832 30.18V0L17.9248 0.0600004Z" fill="#3CCACE"/>
</svg>
