<?xml version="1.0" encoding="UTF-8"?>
<svg xmlns="http://www.w3.org/2000/svg" width="100" height="100" viewBox="0 0 100 100" fill="none">
  <path d="M72.0144 47.2344L72.0144 47.2342C72.0699 47.0058 72.0724 46.768 72.0219 46.5385C71.9713 46.309 71.8688 46.0936 71.7219 45.9086C71.575 45.7237 71.3876 45.574 71.1734 45.4711C70.9593 45.3681 70.7242 45.3147 70.486 45.3151L70.4853 45.3151L66.0706 45.3151H66.0652V45.315C65.7548 45.3117 65.4508 45.4012 65.1928 45.5715C64.9352 45.7417 64.7356 45.9844 64.6194 46.2679C64.6193 46.2681 64.6192 46.2684 64.6191 46.2686L64.1564 46.0791L72.0144 47.2344ZM72.0144 47.2344L64.1845 79.4999H34.1963L26.3664 47.2344L26.3663 47.2342M72.0144 47.2344L26.3663 47.2342M26.3663 47.2342C26.3108 47.0058 26.3083 46.768 26.3589 46.5385C26.4095 46.309 26.512 46.0936 26.6589 45.9086C26.8058 45.7237 26.9932 45.574 27.2073 45.4711C27.4214 45.3681 27.6566 45.3147 27.8949 45.3151H27.8955M26.3663 47.2342L27.8955 45.3151M27.8955 45.3151H32.3102V45.3151M27.8955 45.3151L32.3102 45.3151M32.3102 45.3151L32.3156 45.315M32.3102 45.3151L32.3156 45.315M32.3156 45.315C32.626 45.3117 32.93 45.4012 33.1879 45.5715M32.3156 45.315L33.1879 45.5715M33.1879 45.5715C33.4456 45.7417 33.6452 45.9845 33.7615 46.2681L33.1879 45.5715Z" fill="#313131" stroke="#313131"></path>
  <path d="M33.5562 42.9237C33.1443 42.8581 32.7278 42.8247 32.3106 42.8237H29.3339C29.2661 42.8253 29.1999 42.8036 29.1464 42.7621C29.093 42.7207 29.0557 42.6621 29.0409 42.5964L26.1557 31.4925C26.1414 31.4458 26.1392 31.3963 26.1492 31.3485C26.1593 31.3007 26.1813 31.2561 26.2132 31.219C26.2451 31.1818 26.286 31.1533 26.3319 31.1359C26.3779 31.1186 26.4276 31.113 26.4763 31.1197L31.2481 31.5744C31.3143 31.5781 31.3772 31.6046 31.4257 31.6495C31.4742 31.6943 31.5053 31.7547 31.5138 31.8199L33.5562 42.9237Z" fill="#3CCACE"></path>
  <path d="M42.0825 20.3248V50.3351C42.0821 50.3909 42.066 50.4454 42.0361 50.4926C42.0063 50.5397 41.9638 50.5777 41.9134 50.6023C41.863 50.6268 41.8067 50.637 41.7508 50.6315C41.6949 50.6261 41.6417 50.6054 41.5971 50.5716C40.5853 49.7532 39.8003 48.6921 39.3165 47.4887C38.913 46.4578 38.2878 45.5268 37.4846 44.7605C37.439 44.7194 37.407 44.6655 37.3931 44.6059L33.8668 25.1992C33.8558 25.1399 33.863 25.0787 33.8875 25.0236C33.912 24.9684 33.9526 24.9218 34.0041 24.89L41.6429 20.0338C41.6908 20.0093 41.7444 19.998 41.7982 20.001C41.852 20.004 41.9041 20.0212 41.9489 20.0509C41.9938 20.0805 42.0297 20.1216 42.0532 20.1698C42.0767 20.2179 42.0869 20.2714 42.0825 20.3248Z" fill="#3CCACE"></path>
  <path d="M54.5848 51.7175C54.5859 51.7796 54.5681 51.8406 54.5337 51.8925C54.4994 51.9444 54.4502 51.9848 54.3924 52.0085C52.7289 52.625 50.9657 52.9332 49.1901 52.9179C48.4113 52.9052 47.6341 52.8414 46.8637 52.727C46.7901 52.7158 46.7232 52.6781 46.6758 52.6211C46.6285 52.564 46.6041 52.4916 46.6072 52.4178V20.3067C46.606 20.253 46.6194 20.2 46.6459 20.1532C46.6724 20.1064 46.711 20.0675 46.7578 20.0405C46.8046 20.0136 46.8577 19.9996 46.9118 20C46.9658 20.0004 47.0188 20.0153 47.0652 20.043L53.9528 24.0625C53.9984 24.0875 54.0362 24.1245 54.062 24.1694C54.0879 24.2143 54.1008 24.2655 54.0994 24.3172L54.5848 51.7175Z" fill="#3CCACE"></path>
  <path d="M65.8145 23.7534L63.8178 42.9692C63.8128 43.0254 63.791 43.0789 63.7551 43.1227C63.7191 43.1665 63.6708 43.1985 63.6163 43.2147C62.5852 43.5578 61.6416 44.1195 60.8508 44.8606C60.06 45.6018 59.4411 46.5048 59.0368 47.5071C58.857 47.9509 58.6362 48.377 58.3772 48.7803L57.8369 26.9546C57.8336 26.8956 57.8486 26.8371 57.8797 26.7867C57.9108 26.7364 57.9565 26.6966 58.0109 26.6726L65.3382 23.4988C65.3831 23.4627 65.4377 23.4405 65.4953 23.4351C65.5529 23.4297 65.6109 23.4414 65.6618 23.4686C65.7127 23.4959 65.7543 23.5374 65.7815 23.5881C65.8087 23.6388 65.8202 23.6963 65.8145 23.7534Z" fill="#3CCACE"></path>
  <path d="M73.819 30.5921L71.9872 42.6599C71.9738 42.7383 71.9295 42.8081 71.8642 42.8541C71.799 42.9002 71.7181 42.9186 71.6392 42.9054C71.2601 42.8504 70.8774 42.8231 70.4943 42.8236H67.6824C67.6394 42.8239 67.5969 42.8152 67.5576 42.7979C67.5183 42.7806 67.4832 42.7551 67.4546 42.7233C67.426 42.6914 67.4045 42.6539 67.3917 42.6132C67.3788 42.5725 67.375 42.5295 67.3802 42.4871L68.699 31.3015C68.7059 31.2369 68.7338 31.1762 68.7784 31.1286C68.823 31.0811 68.8819 31.0492 68.9463 31.0377L73.5259 30.2556C73.5686 30.2551 73.6109 30.2638 73.6498 30.2812C73.6887 30.2986 73.7233 30.3242 73.7512 30.3563C73.7791 30.3883 73.7996 30.426 73.8113 30.4667C73.823 30.5075 73.8257 30.5503 73.819 30.5921Z" fill="#3CCACE"></path>
</svg>
