<?xml version="1.0" encoding="UTF-8"?>
<svg xmlns="http://www.w3.org/2000/svg" width="100" height="100" viewBox="0 0 100 100" fill="none">
  <g clip-path="url(#clip0_3486_51841)">
    <path d="M64.4619 56.5733C74.6765 56.5733 82.9571 48.2927 82.9571 38.0782C82.9571 27.8636 74.6765 19.583 64.4619 19.583C54.2474 19.583 45.9668 27.8636 45.9668 38.0782C45.9668 48.2927 54.2474 56.5733 64.4619 56.5733Z" fill="#42E8E0"></path>
    <path d="M38.2397 60.3683C47.0212 60.3683 54.14 53.2495 54.14 44.468C54.14 35.6865 47.0212 28.5676 38.2397 28.5676C29.4582 28.5676 22.3394 35.6865 22.3394 44.468C22.3394 53.2495 29.4582 60.3683 38.2397 60.3683Z" stroke="#313131" stroke-miterlimit="10"></path>
    <path d="M38.2397 43.1306V78.3834" stroke="#313131" stroke-miterlimit="10"></path>
    <path d="M38.2397 53.2013L44.0238 47.1772" stroke="#313131" stroke-miterlimit="10"></path>
    <path d="M38.2396 58.0822L32.4556 52.0581" stroke="#313131" stroke-miterlimit="10"></path>
    <path d="M63.9702 31.574L63.9702 78.4405" stroke="#313131" stroke-miterlimit="10"></path>
    <path d="M63.9702 44.731L70.703 37.7239" stroke="#313131" stroke-miterlimit="10"></path>
    <path d="M63.8332 51.7495L57.1118 44.731" stroke="#313131" stroke-miterlimit="10"></path>
    <path d="M82.9572 73.8682H18.2471V82.91H82.9572V73.8682Z" fill="#313131"></path>
  </g>
  <defs>
    <clipPath id="clip0_3486_51841">
      <rect width="65.2931" height="63.91" fill="white" transform="translate(18.2471 19)"></rect>
    </clipPath>
  </defs>
</svg>
