<?xml version="1.0" encoding="UTF-8"?>
<svg xmlns="http://www.w3.org/2000/svg" width="24" height="24" viewBox="0 0 24 24" fill="none">
  <path d="M16.5862 2H7.41382C4.42859 2 2 4.42859 2 7.41382V16.5863C2 19.5714 4.42859 22 7.41382 22H16.5863C19.5714 22 22 19.5714 22 16.5863V7.41382C22 4.42859 19.5714 2 16.5862 2ZM12 17.4686C8.98456 17.4686 6.5314 15.0154 6.5314 12C6.5314 8.98456 8.98456 6.5314 12 6.5314C15.0154 6.5314 17.4686 8.98456 17.4686 12C17.4686 15.0154 15.0154 17.4686 12 17.4686ZM17.5994 7.82108C16.7083 7.82108 15.9835 7.09628 15.9835 6.20517C15.9835 5.31406 16.7083 4.58911 17.5994 4.58911C18.4905 4.58911 19.2154 5.31406 19.2154 6.20517C19.2154 7.09628 18.4905 7.82108 17.5994 7.82108Z" fill="#3CCACE"></path>
  <path d="M12.0002 7.70398C9.63144 7.70398 7.7041 9.63116 7.7041 12.0001C7.7041 14.3689 9.63144 16.2962 12.0002 16.2962C14.3691 16.2962 16.2963 14.3689 16.2963 12.0001C16.2963 9.63116 14.3691 7.70398 12.0002 7.70398Z" fill="#3CCACE"></path>
  <path d="M17.5997 5.76178C17.3552 5.76178 17.1562 5.96075 17.1562 6.2052C17.1562 6.44965 17.3552 6.64862 17.5997 6.64862C17.8443 6.64862 18.0432 6.4498 18.0432 6.2052C18.0432 5.9606 17.8443 5.76178 17.5997 5.76178Z" fill="#3CCACE"></path>
</svg>
