<?xml version="1.0" encoding="UTF-8"?>
<svg xmlns="http://www.w3.org/2000/svg" width="24" height="24" viewBox="0 0 24 24" fill="none">
  <g clip-path="url(#clip0_3552_49300)">
    <path d="M20.8205 1.50006H3.29438C2.33672 1.50006 1.5 2.18912 1.5 3.13553V20.7005C1.5 21.6521 2.33672 22.5001 3.29438 22.5001H20.8153C21.7781 22.5001 22.5 21.6465 22.5 20.7005V3.13553C22.5056 2.18912 21.7781 1.50006 20.8205 1.50006ZM8.00953 19.0046H5.00109V9.65069H8.00953V19.0046ZM6.60938 8.2285H6.58781C5.625 8.2285 5.00156 7.51178 5.00156 6.61459C5.00156 5.701 5.64141 5.00115 6.62578 5.00115C7.61016 5.00115 8.2125 5.69584 8.23406 6.61459C8.23359 7.51178 7.61016 8.2285 6.60938 8.2285ZM19.0045 19.0046H15.9961V13.8901C15.9961 12.6647 15.5583 11.8276 14.4698 11.8276C13.6383 11.8276 13.1461 12.3901 12.9272 12.938C12.8452 13.1349 12.8231 13.403 12.8231 13.6768V19.0046H9.81469V9.65069H12.8231V10.9524C13.2609 10.329 13.9448 9.43178 15.5363 9.43178C17.5111 9.43178 19.005 10.7335 19.005 13.5399L19.0045 19.0046Z" fill="#3CCACE"></path>
  </g>
  <defs>
    <clipPath id="clip0_3552_49300">
      <rect width="24" height="24" fill="white"></rect>
    </clipPath>
  </defs>
</svg>
