<?xml version="1.0" encoding="UTF-8"?>
<svg xmlns="http://www.w3.org/2000/svg" width="109" height="48" viewBox="0 0 109 48" fill="none">
  <path d="M2.21069 34V7.3218H7.45641L9.70457 12.9422V34H2.21069ZM20.5707 34L5.09584 14.5534L7.45641 7.3218L22.9313 26.7684L20.5707 34ZM20.5707 34L18.6972 28.0798V7.3218H26.1911V34H20.5707ZM43.7947 34.4496C41.7464 34.4496 39.8354 34.1124 38.0619 33.438C36.3133 32.7385 34.7771 31.7643 33.4531 30.5153C32.1292 29.2664 31.0926 27.8051 30.3432 26.1314C29.6188 24.4328 29.2566 22.5968 29.2566 20.6234C29.2566 18.6251 29.6188 16.7891 30.3432 15.1154C31.0926 13.4418 32.1167 11.993 33.4157 10.769C34.7396 9.54498 36.2758 8.59575 38.0244 7.92131C39.773 7.22188 41.6714 6.87216 43.7197 6.87216C45.7931 6.87216 47.6915 7.1969 49.4151 7.84637C51.1387 8.49584 52.6375 9.3951 53.9114 10.5442L48.928 15.5651C48.3285 14.9156 47.5916 14.4035 46.7173 14.0288C45.868 13.6541 44.8688 13.4668 43.7197 13.4668C42.7206 13.4668 41.7963 13.6291 40.947 13.9539C40.1227 14.2786 39.4108 14.7532 38.8113 15.3777C38.2117 16.0022 37.7371 16.7641 37.3874 17.6633C37.0627 18.5376 36.9003 19.5243 36.9003 20.6234C36.9003 21.7475 37.0627 22.7592 37.3874 23.6584C37.7371 24.5327 38.2117 25.2821 38.8113 25.9066C39.4108 26.5311 40.1227 27.0182 40.947 27.3679C41.7963 27.6927 42.7206 27.855 43.7197 27.855C44.8438 27.855 45.843 27.6802 46.7173 27.3304C47.6166 26.9807 48.3909 26.4687 49.0404 25.7942L54.0613 30.8151C52.7374 31.9642 51.2511 32.8634 49.6024 33.5129C47.9538 34.1374 46.0179 34.4496 43.7947 34.4496ZM56.6584 34V7.3218H64.1523V34H56.6584ZM72.7702 34V7.3218H80.2641V34H72.7702ZM60.7426 23.5086V17.2887H75.6928V23.5086H60.7426ZM97.8765 34.4496C95.8282 34.4496 93.9172 34.1124 92.1437 33.438C90.3951 32.7385 88.8588 31.7643 87.5349 30.5153C86.211 29.2664 85.1744 27.8051 84.425 26.1314C83.7006 24.4328 83.3384 22.5968 83.3384 20.6234C83.3384 18.6251 83.7006 16.7891 84.425 15.1154C85.1744 13.4418 86.1985 11.993 87.4975 10.769C88.8214 9.54498 90.3576 8.59575 92.1062 7.92131C93.8548 7.22188 95.7532 6.87216 97.8015 6.87216C99.8748 6.87216 101.773 7.1969 103.497 7.84637C105.22 8.49584 106.719 9.3951 107.993 10.5442L103.01 15.5651C102.41 14.9156 101.673 14.4035 100.799 14.0288C99.9498 13.6541 98.9506 13.4668 97.8015 13.4668C96.8024 13.4668 95.8781 13.6291 95.0288 13.9539C94.2045 14.2786 93.4926 14.7532 92.8931 15.3777C92.2935 16.0022 91.8189 16.7641 91.4692 17.6633C91.1445 18.5376 90.9821 19.5243 90.9821 20.6234C90.9821 21.7475 91.1445 22.7592 91.4692 23.6584C91.8189 24.5327 92.2935 25.2821 92.8931 25.9066C93.4926 26.5311 94.2045 27.0182 95.0288 27.3679C95.8781 27.6927 96.8024 27.855 97.8015 27.855C98.9256 27.855 99.9248 27.6802 100.799 27.3304C101.698 26.9807 102.473 26.4687 103.122 25.7942L108.143 30.8151C106.819 31.9642 105.333 32.8634 103.684 33.5129C102.036 34.1374 100.1 34.4496 97.8765 34.4496Z" fill="black"></path>
  <path d="M0.418776 46.5V42.6429H0.859592L1.05245 43.3702V46.5H0.418776ZM3.09122 46.5L0.782449 43.4859L0.859592 42.6429L3.16837 45.6569L3.09122 46.5ZM3.09122 46.5L2.89837 45.8222V42.6429H3.53204V46.5H3.09122ZM4.19215 46.5L5.77909 42.6429H6.2199L7.79582 46.5H7.11255L5.87827 43.3757H6.1097L4.86439 46.5H4.19215ZM4.9746 45.7561V45.2051H7.01888V45.7561H4.9746ZM8.89493 46.5V42.7531H9.52861V46.5H8.89493ZM7.63861 43.2214V42.6429H10.7849V43.2214H7.63861ZM11.4469 46.5V42.6429H12.0806V46.5H11.4469ZM14.8005 46.5551C14.5249 46.5551 14.2678 46.5037 14.029 46.4008C13.7902 46.298 13.5809 46.1565 13.4009 45.9765C13.2209 45.7929 13.0794 45.5816 12.9766 45.3429C12.8774 45.1004 12.8278 44.8414 12.8278 44.5659C12.8278 44.2904 12.8774 44.0333 12.9766 43.7945C13.0794 43.5557 13.219 43.3463 13.3953 43.1663C13.5753 42.9827 13.7829 42.8412 14.018 42.742C14.2568 42.6392 14.5139 42.5878 14.7894 42.5878C15.0649 42.5878 15.3202 42.6392 15.5553 42.742C15.7941 42.8412 16.0035 42.9827 16.1835 43.1663C16.3635 43.3463 16.5031 43.5576 16.6023 43.8C16.7051 44.0388 16.7566 44.2959 16.7566 44.5714C16.7566 44.8469 16.7051 45.1059 16.6023 45.3484C16.5031 45.5871 16.3635 45.7965 16.1835 45.9765C16.0072 46.1565 15.7996 46.298 15.5609 46.4008C15.3258 46.5037 15.0723 46.5551 14.8005 46.5551ZM14.7894 45.949C15.0502 45.949 15.278 45.8902 15.4727 45.7727C15.6711 45.6551 15.8253 45.4935 15.9356 45.2878C16.0494 45.0784 16.1064 44.8378 16.1064 44.5659C16.1064 44.3639 16.0733 44.1802 16.0072 44.0149C15.9447 43.8459 15.8547 43.7008 15.7372 43.5796C15.6196 43.4547 15.48 43.3592 15.3184 43.2931C15.1605 43.2269 14.9841 43.1939 14.7894 43.1939C14.5323 43.1939 14.3045 43.2527 14.1062 43.3702C13.9115 43.4841 13.7572 43.6439 13.6433 43.8496C13.5331 44.0553 13.478 44.2941 13.478 44.5659C13.478 44.768 13.5092 44.9553 13.5717 45.128C13.6378 45.2969 13.7278 45.442 13.8417 45.5633C13.9592 45.6845 14.0988 45.78 14.2605 45.8498C14.4221 45.9159 14.5984 45.949 14.7894 45.949ZM17.5112 46.5V42.6429H17.952L18.1448 43.3702V46.5H17.5112ZM20.1836 46.5L17.8748 43.4859L17.952 42.6429L20.2608 45.6569L20.1836 46.5ZM20.1836 46.5L19.9908 45.8222V42.6429H20.6244V46.5H20.1836ZM21.2845 46.5L22.8715 42.6429H23.3123L24.8882 46.5H24.2049L22.9707 43.3757H23.2021L21.9568 46.5H21.2845ZM22.067 45.7561V45.2051H24.1113V45.7561H22.067ZM25.5072 46.5V42.6429H26.1409V46.5H25.5072ZM25.9425 46.5V45.9214H27.9593V46.5H25.9425ZM31.5695 46.5551C31.2903 46.5551 31.0313 46.5055 30.7925 46.4063C30.5574 46.3035 30.3517 46.162 30.1754 45.982C29.9991 45.7984 29.8631 45.5871 29.7676 45.3484C29.6721 45.1059 29.6244 44.8469 29.6244 44.5714C29.6244 44.2959 29.6721 44.0388 29.7676 43.8C29.8631 43.5576 29.9991 43.3463 30.1754 43.1663C30.3517 42.9863 30.5574 42.8449 30.7925 42.742C31.0313 42.6392 31.2903 42.5878 31.5695 42.5878C31.8817 42.5878 32.1517 42.6392 32.3795 42.742C32.6072 42.8449 32.8093 42.9845 32.9856 43.1608L32.5558 43.5906C32.4419 43.4657 32.3023 43.3684 32.137 43.2986C31.9754 43.2288 31.7862 43.1939 31.5695 43.1939C31.3784 43.1939 31.204 43.2269 31.046 43.2931C30.888 43.3592 30.7503 43.4547 30.6327 43.5796C30.5189 43.7008 30.4307 43.8459 30.3682 44.0149C30.3058 44.1839 30.2746 44.3694 30.2746 44.5714C30.2746 44.7735 30.3058 44.959 30.3682 45.128C30.4307 45.2969 30.5189 45.4439 30.6327 45.5688C30.7503 45.69 30.888 45.7837 31.046 45.8498C31.204 45.9159 31.3784 45.949 31.5695 45.949C31.8046 45.949 32.0029 45.9141 32.1646 45.8443C32.3299 45.7708 32.4695 45.6716 32.5833 45.5467L33.0131 45.9765C32.8368 46.1565 32.6293 46.298 32.3905 46.4008C32.1517 46.5037 31.878 46.5551 31.5695 46.5551ZM35.307 46.5551C35.0315 46.5551 34.7744 46.5037 34.5356 46.4008C34.2968 46.298 34.0874 46.1565 33.9074 45.9765C33.7274 45.7929 33.586 45.5816 33.4831 45.3429C33.384 45.1004 33.3344 44.8414 33.3344 44.5659C33.3344 44.2904 33.384 44.0333 33.4831 43.7945C33.586 43.5557 33.7256 43.3463 33.9019 43.1663C34.0819 42.9827 34.2895 42.8412 34.5246 42.742C34.7633 42.6392 35.0205 42.5878 35.296 42.5878C35.5715 42.5878 35.8268 42.6392 36.0619 42.742C36.3007 42.8412 36.5101 42.9827 36.6901 43.1663C36.8701 43.3463 37.0097 43.5576 37.1089 43.8C37.2117 44.0388 37.2631 44.2959 37.2631 44.5714C37.2631 44.8469 37.2117 45.1059 37.1089 45.3484C37.0097 45.5871 36.8701 45.7965 36.6901 45.9765C36.5138 46.1565 36.3062 46.298 36.0674 46.4008C35.8323 46.5037 35.5789 46.5551 35.307 46.5551ZM35.296 45.949C35.5568 45.949 35.7846 45.8902 35.9793 45.7727C36.1776 45.6551 36.3319 45.4935 36.4421 45.2878C36.556 45.0784 36.6129 44.8378 36.6129 44.5659C36.6129 44.3639 36.5799 44.1802 36.5138 44.0149C36.4513 43.8459 36.3613 43.7008 36.2438 43.5796C36.1262 43.4547 35.9866 43.3592 35.825 43.2931C35.667 43.2269 35.4907 43.1939 35.296 43.1939C35.0389 43.1939 34.8111 43.2527 34.6127 43.3702C34.418 43.4841 34.2638 43.6439 34.1499 43.8496C34.0397 44.0553 33.9846 44.2941 33.9846 44.5659C33.9846 44.768 34.0158 44.9553 34.0782 45.128C34.1444 45.2969 34.2344 45.442 34.3482 45.5633C34.4658 45.6845 34.6054 45.78 34.767 45.8498C34.9287 45.9159 35.105 45.949 35.296 45.949ZM37.4568 46.5L39.0437 42.6429H39.4845L41.0605 46.5H40.3772L39.1429 43.3757H39.3743L38.129 46.5H37.4568ZM38.2392 45.7561V45.2051H40.2835V45.7561H38.2392ZM41.6794 46.5V42.6429H42.3131V46.5H41.6794ZM42.1148 46.5V45.9214H44.1315V46.5H42.1148ZM44.8192 46.5V42.6429H45.4529V46.5H44.8192ZM47.3682 46.5V42.7531H48.0019V46.5H47.3682ZM46.1119 43.2214V42.6429H49.2582V43.2214H46.1119ZM49.9202 46.5V42.6429H50.5539V46.5H49.9202ZM53.2737 46.5551C52.9982 46.5551 52.7411 46.5037 52.5023 46.4008C52.2635 46.298 52.0541 46.1565 51.8741 45.9765C51.6941 45.7929 51.5527 45.5816 51.4499 45.3429C51.3507 45.1004 51.3011 44.8414 51.3011 44.5659C51.3011 44.2904 51.3507 44.0333 51.4499 43.7945C51.5527 43.5557 51.6923 43.3463 51.8686 43.1663C52.0486 42.9827 52.2562 42.8412 52.4913 42.742C52.7301 42.6392 52.9872 42.5878 53.2627 42.5878C53.5382 42.5878 53.7935 42.6392 54.0286 42.742C54.2674 42.8412 54.4768 42.9827 54.6568 43.1663C54.8368 43.3463 54.9764 43.5576 55.0756 43.8C55.1784 44.0388 55.2299 44.2959 55.2299 44.5714C55.2299 44.8469 55.1784 45.1059 55.0756 45.3484C54.9764 45.5871 54.8368 45.7965 54.6568 45.9765C54.4805 46.1565 54.2729 46.298 54.0341 46.4008C53.799 46.5037 53.5456 46.5551 53.2737 46.5551ZM53.2627 45.949C53.5235 45.949 53.7513 45.8902 53.946 45.7727C54.1443 45.6551 54.2986 45.4935 54.4088 45.2878C54.5227 45.0784 54.5796 44.8378 54.5796 44.5659C54.5796 44.3639 54.5466 44.1802 54.4805 44.0149C54.418 43.8459 54.328 43.7008 54.2105 43.5796C54.0929 43.4547 53.9533 43.3592 53.7917 43.2931C53.6337 43.2269 53.4574 43.1939 53.2627 43.1939C53.0056 43.1939 52.7778 43.2527 52.5794 43.3702C52.3848 43.4841 52.2305 43.6439 52.1166 43.8496C52.0064 44.0553 51.9513 44.2941 51.9513 44.5659C51.9513 44.768 51.9825 44.9553 52.045 45.128C52.1111 45.2969 52.2011 45.442 52.315 45.5633C52.4325 45.6845 52.5721 45.78 52.7337 45.8498C52.8954 45.9159 53.0717 45.949 53.2627 45.949ZM55.9844 46.5V42.6429H56.4253L56.6181 43.3702V46.5H55.9844ZM58.6569 46.5L56.3481 43.4859L56.4253 42.6429L58.734 45.6569L58.6569 46.5ZM58.6569 46.5L58.464 45.8222V42.6429H59.0977V46.5H58.6569ZM63.032 46.5551C62.7564 46.5551 62.4993 46.5037 62.2605 46.4008C62.0218 46.298 61.8124 46.1565 61.6324 45.9765C61.4524 45.7929 61.3109 45.5816 61.2081 45.3429C61.1089 45.1004 61.0593 44.8414 61.0593 44.5659C61.0593 44.2904 61.1089 44.0333 61.2081 43.7945C61.3109 43.5557 61.4505 43.3463 61.6269 43.1663C61.8069 42.9827 62.0144 42.8412 62.2495 42.742C62.4883 42.6392 62.7454 42.5878 63.0209 42.5878C63.2964 42.5878 63.5518 42.6392 63.7869 42.742C64.0256 42.8412 64.235 42.9827 64.415 43.1663C64.595 43.3463 64.7346 43.5576 64.8338 43.8C64.9367 44.0388 64.9881 44.2959 64.9881 44.5714C64.9881 44.8469 64.9367 45.1059 64.8338 45.3484C64.7346 45.5871 64.595 45.7965 64.415 45.9765C64.2387 46.1565 64.0311 46.298 63.7924 46.4008C63.5573 46.5037 63.3038 46.5551 63.032 46.5551ZM63.0209 45.949C63.2818 45.949 63.5095 45.8902 63.7042 45.7727C63.9026 45.6551 64.0569 45.4935 64.1671 45.2878C64.2809 45.0784 64.3379 44.8378 64.3379 44.5659C64.3379 44.3639 64.3048 44.1802 64.2387 44.0149C64.1762 43.8459 64.0862 43.7008 63.9687 43.5796C63.8511 43.4547 63.7116 43.3592 63.5499 43.2931C63.392 43.2269 63.2156 43.1939 63.0209 43.1939C62.7638 43.1939 62.536 43.2527 62.3377 43.3702C62.143 43.4841 61.9887 43.6439 61.8748 43.8496C61.7646 44.0553 61.7095 44.2941 61.7095 44.5659C61.7095 44.768 61.7407 44.9553 61.8032 45.128C61.8693 45.2969 61.9593 45.442 62.0732 45.5633C62.1907 45.6845 62.3303 45.78 62.492 45.8498C62.6536 45.9159 62.8299 45.949 63.0209 45.949ZM65.7427 46.5V42.6429H66.1835L66.3764 43.3702V46.5H65.7427ZM68.4151 46.5L66.1064 43.4859L66.1835 42.6429L68.4923 45.6569L68.4151 46.5ZM68.4151 46.5L68.2223 45.8222V42.6429H68.8559V46.5H68.4151ZM71.0159 46.5V42.6429H71.6496V46.5H71.0159ZM73.4679 46.5V42.6429H74.1016V46.5H73.4679ZM71.4512 44.7918V44.2133H73.6057V44.7918H71.4512ZM75.0489 46.5V42.6429H75.6826V46.5H75.0489ZM75.4842 46.5V45.9214H77.6442V46.5H75.4842ZM75.4842 44.8084V44.2518H77.4569V44.8084H75.4842ZM75.4842 43.2214V42.6429H77.6167V43.2214H75.4842ZM78.1227 46.5L79.7097 42.6429H80.1505L81.7264 46.5H81.0431L79.8089 43.3757H80.0403L78.795 46.5H78.1227ZM78.9052 45.7561V45.2051H80.9495V45.7561H78.9052ZM82.3454 46.5V42.6429H82.9791V46.5H82.3454ZM82.7807 46.5V45.9214H84.7974V46.5H82.7807ZM85.9814 46.5V42.7531H86.6151V46.5H85.9814ZM84.7251 43.2214V42.6429H87.8714V43.2214H84.7251ZM88.5334 46.5V42.6429H89.1671V46.5H88.5334ZM90.9854 46.5V42.6429H91.6191V46.5H90.9854ZM88.9687 44.7918V44.2133H91.1232V44.7918H88.9687ZM95.532 46.5551C95.2528 46.5551 94.9938 46.5055 94.755 46.4063C94.5199 46.3035 94.3142 46.162 94.1379 45.982C93.9616 45.7984 93.8256 45.5871 93.7301 45.3484C93.6346 45.1059 93.5869 44.8469 93.5869 44.5714C93.5869 44.2959 93.6346 44.0388 93.7301 43.8C93.8256 43.5576 93.9616 43.3463 94.1379 43.1663C94.3142 42.9863 94.5199 42.8449 94.755 42.742C94.9938 42.6392 95.2528 42.5878 95.532 42.5878C95.8442 42.5878 96.1142 42.6392 96.342 42.742C96.5697 42.8449 96.7718 42.9845 96.9481 43.1608L96.5183 43.5906C96.4044 43.4657 96.2648 43.3684 96.0995 43.2986C95.9379 43.2288 95.7487 43.1939 95.532 43.1939C95.3409 43.1939 95.1664 43.2269 95.0085 43.2931C94.8505 43.3592 94.7128 43.4547 94.5952 43.5796C94.4813 43.7008 94.3932 43.8459 94.3307 44.0149C94.2683 44.1839 94.2371 44.3694 94.2371 44.5714C94.2371 44.7735 94.2683 44.959 94.3307 45.128C94.3932 45.2969 94.4813 45.4439 94.5952 45.5688C94.7128 45.69 94.8505 45.7837 95.0085 45.8498C95.1664 45.9159 95.3409 45.949 95.532 45.949C95.7671 45.949 95.9654 45.9141 96.1271 45.8443C96.2924 45.7708 96.432 45.6716 96.5458 45.5467L96.9756 45.9765C96.7993 46.1565 96.5918 46.298 96.353 46.4008C96.1142 46.5037 95.8405 46.5551 95.532 46.5551ZM97.2679 46.5L98.8548 42.6429H99.2956L100.872 46.5H100.188L98.954 43.3757H99.1854L97.9401 46.5H97.2679ZM98.0503 45.7561V45.2051H100.095V45.7561H98.0503ZM101.926 44.8635V44.34H102.901C103.096 44.34 103.246 44.2904 103.353 44.1912C103.463 44.0884 103.518 43.9469 103.518 43.7669C103.518 43.6053 103.465 43.4694 103.359 43.3592C103.252 43.249 103.101 43.1939 102.907 43.1939H101.926V42.6429H102.934C103.177 42.6429 103.39 42.6924 103.573 42.7916C103.757 42.8871 103.899 43.0194 103.998 43.1884C104.101 43.3537 104.152 43.5429 104.152 43.7559C104.152 43.98 104.101 44.1747 103.998 44.34C103.899 44.5053 103.757 44.6339 103.573 44.7257C103.39 44.8176 103.177 44.8635 102.934 44.8635H101.926ZM101.491 46.5V42.6429H102.124V46.5H101.491ZM103.606 46.5L102.256 44.8249L102.846 44.61L104.405 46.5H103.606ZM104.985 46.5V42.6429H105.619V46.5H104.985ZM105.421 46.5V45.9214H107.581V46.5H105.421ZM105.421 44.8084V44.2518H107.393V44.8084H105.421ZM105.421 43.2214V42.6429H107.553V43.2214H105.421Z" fill="#42E8E0"></path>
  <path d="M0.418776 46.5V42.6429H0.859592L1.05245 43.3702V46.5H0.418776ZM3.09122 46.5L0.782449 43.4859L0.859592 42.6429L3.16837 45.6569L3.09122 46.5ZM3.09122 46.5L2.89837 45.8222V42.6429H3.53204V46.5H3.09122ZM4.19215 46.5L5.77909 42.6429H6.2199L7.79582 46.5H7.11255L5.87827 43.3757H6.1097L4.86439 46.5H4.19215ZM4.9746 45.7561V45.2051H7.01888V45.7561H4.9746ZM8.89493 46.5V42.7531H9.52861V46.5H8.89493ZM7.63861 43.2214V42.6429H10.7849V43.2214H7.63861ZM11.4469 46.5V42.6429H12.0806V46.5H11.4469ZM14.8005 46.5551C14.5249 46.5551 14.2678 46.5037 14.029 46.4008C13.7902 46.298 13.5809 46.1565 13.4009 45.9765C13.2209 45.7929 13.0794 45.5816 12.9766 45.3429C12.8774 45.1004 12.8278 44.8414 12.8278 44.5659C12.8278 44.2904 12.8774 44.0333 12.9766 43.7945C13.0794 43.5557 13.219 43.3463 13.3953 43.1663C13.5753 42.9827 13.7829 42.8412 14.018 42.742C14.2568 42.6392 14.5139 42.5878 14.7894 42.5878C15.0649 42.5878 15.3202 42.6392 15.5553 42.742C15.7941 42.8412 16.0035 42.9827 16.1835 43.1663C16.3635 43.3463 16.5031 43.5576 16.6023 43.8C16.7051 44.0388 16.7566 44.2959 16.7566 44.5714C16.7566 44.8469 16.7051 45.1059 16.6023 45.3484C16.5031 45.5871 16.3635 45.7965 16.1835 45.9765C16.0072 46.1565 15.7996 46.298 15.5609 46.4008C15.3258 46.5037 15.0723 46.5551 14.8005 46.5551ZM14.7894 45.949C15.0502 45.949 15.278 45.8902 15.4727 45.7727C15.6711 45.6551 15.8253 45.4935 15.9356 45.2878C16.0494 45.0784 16.1064 44.8378 16.1064 44.5659C16.1064 44.3639 16.0733 44.1802 16.0072 44.0149C15.9447 43.8459 15.8547 43.7008 15.7372 43.5796C15.6196 43.4547 15.48 43.3592 15.3184 43.2931C15.1605 43.2269 14.9841 43.1939 14.7894 43.1939C14.5323 43.1939 14.3045 43.2527 14.1062 43.3702C13.9115 43.4841 13.7572 43.6439 13.6433 43.8496C13.5331 44.0553 13.478 44.2941 13.478 44.5659C13.478 44.768 13.5092 44.9553 13.5717 45.128C13.6378 45.2969 13.7278 45.442 13.8417 45.5633C13.9592 45.6845 14.0988 45.78 14.2605 45.8498C14.4221 45.9159 14.5984 45.949 14.7894 45.949ZM17.5112 46.5V42.6429H17.952L18.1448 43.3702V46.5H17.5112ZM20.1836 46.5L17.8748 43.4859L17.952 42.6429L20.2608 45.6569L20.1836 46.5ZM20.1836 46.5L19.9908 45.8222V42.6429H20.6244V46.5H20.1836ZM21.2845 46.5L22.8715 42.6429H23.3123L24.8882 46.5H24.2049L22.9707 43.3757H23.2021L21.9568 46.5H21.2845ZM22.067 45.7561V45.2051H24.1113V45.7561H22.067ZM25.5072 46.5V42.6429H26.1409V46.5H25.5072ZM25.9425 46.5V45.9214H27.9593V46.5H25.9425ZM31.5695 46.5551C31.2903 46.5551 31.0313 46.5055 30.7925 46.4063C30.5574 46.3035 30.3517 46.162 30.1754 45.982C29.9991 45.7984 29.8631 45.5871 29.7676 45.3484C29.6721 45.1059 29.6244 44.8469 29.6244 44.5714C29.6244 44.2959 29.6721 44.0388 29.7676 43.8C29.8631 43.5576 29.9991 43.3463 30.1754 43.1663C30.3517 42.9863 30.5574 42.8449 30.7925 42.742C31.0313 42.6392 31.2903 42.5878 31.5695 42.5878C31.8817 42.5878 32.1517 42.6392 32.3795 42.742C32.6072 42.8449 32.8093 42.9845 32.9856 43.1608L32.5558 43.5906C32.4419 43.4657 32.3023 43.3684 32.137 43.2986C31.9754 43.2288 31.7862 43.1939 31.5695 43.1939C31.3784 43.1939 31.204 43.2269 31.046 43.2931C30.888 43.3592 30.7503 43.4547 30.6327 43.5796C30.5189 43.7008 30.4307 43.8459 30.3682 44.0149C30.3058 44.1839 30.2746 44.3694 30.2746 44.5714C30.2746 44.7735 30.3058 44.959 30.3682 45.128C30.4307 45.2969 30.5189 45.4439 30.6327 45.5688C30.7503 45.69 30.888 45.7837 31.046 45.8498C31.204 45.9159 31.3784 45.949 31.5695 45.949C31.8046 45.949 32.0029 45.9141 32.1646 45.8443C32.3299 45.7708 32.4695 45.6716 32.5833 45.5467L33.0131 45.9765C32.8368 46.1565 32.6293 46.298 32.3905 46.4008C32.1517 46.5037 31.878 46.5551 31.5695 46.5551ZM35.307 46.5551C35.0315 46.5551 34.7744 46.5037 34.5356 46.4008C34.2968 46.298 34.0874 46.1565 33.9074 45.9765C33.7274 45.7929 33.586 45.5816 33.4831 45.3429C33.384 45.1004 33.3344 44.8414 33.3344 44.5659C33.3344 44.2904 33.384 44.0333 33.4831 43.7945C33.586 43.5557 33.7256 43.3463 33.9019 43.1663C34.0819 42.9827 34.2895 42.8412 34.5246 42.742C34.7633 42.6392 35.0205 42.5878 35.296 42.5878C35.5715 42.5878 35.8268 42.6392 36.0619 42.742C36.3007 42.8412 36.5101 42.9827 36.6901 43.1663C36.8701 43.3463 37.0097 43.5576 37.1089 43.8C37.2117 44.0388 37.2631 44.2959 37.2631 44.5714C37.2631 44.8469 37.2117 45.1059 37.1089 45.3484C37.0097 45.5871 36.8701 45.7965 36.6901 45.9765C36.5138 46.1565 36.3062 46.298 36.0674 46.4008C35.8323 46.5037 35.5789 46.5551 35.307 46.5551ZM35.296 45.949C35.5568 45.949 35.7846 45.8902 35.9793 45.7727C36.1776 45.6551 36.3319 45.4935 36.4421 45.2878C36.556 45.0784 36.6129 44.8378 36.6129 44.5659C36.6129 44.3639 36.5799 44.1802 36.5138 44.0149C36.4513 43.8459 36.3613 43.7008 36.2438 43.5796C36.1262 43.4547 35.9866 43.3592 35.825 43.2931C35.667 43.2269 35.4907 43.1939 35.296 43.1939C35.0389 43.1939 34.8111 43.2527 34.6127 43.3702C34.418 43.4841 34.2638 43.6439 34.1499 43.8496C34.0397 44.0553 33.9846 44.2941 33.9846 44.5659C33.9846 44.768 34.0158 44.9553 34.0782 45.128C34.1444 45.2969 34.2344 45.442 34.3482 45.5633C34.4658 45.6845 34.6054 45.78 34.767 45.8498C34.9287 45.9159 35.105 45.949 35.296 45.949ZM37.4568 46.5L39.0437 42.6429H39.4845L41.0605 46.5H40.3772L39.1429 43.3757H39.3743L38.129 46.5H37.4568ZM38.2392 45.7561V45.2051H40.2835V45.7561H38.2392ZM41.6794 46.5V42.6429H42.3131V46.5H41.6794ZM42.1148 46.5V45.9214H44.1315V46.5H42.1148ZM44.8192 46.5V42.6429H45.4529V46.5H44.8192ZM47.3682 46.5V42.7531H48.0019V46.5H47.3682ZM46.1119 43.2214V42.6429H49.2582V43.2214H46.1119ZM49.9202 46.5V42.6429H50.5539V46.5H49.9202ZM53.2737 46.5551C52.9982 46.5551 52.7411 46.5037 52.5023 46.4008C52.2635 46.298 52.0541 46.1565 51.8741 45.9765C51.6941 45.7929 51.5527 45.5816 51.4499 45.3429C51.3507 45.1004 51.3011 44.8414 51.3011 44.5659C51.3011 44.2904 51.3507 44.0333 51.4499 43.7945C51.5527 43.5557 51.6923 43.3463 51.8686 43.1663C52.0486 42.9827 52.2562 42.8412 52.4913 42.742C52.7301 42.6392 52.9872 42.5878 53.2627 42.5878C53.5382 42.5878 53.7935 42.6392 54.0286 42.742C54.2674 42.8412 54.4768 42.9827 54.6568 43.1663C54.8368 43.3463 54.9764 43.5576 55.0756 43.8C55.1784 44.0388 55.2299 44.2959 55.2299 44.5714C55.2299 44.8469 55.1784 45.1059 55.0756 45.3484C54.9764 45.5871 54.8368 45.7965 54.6568 45.9765C54.4805 46.1565 54.2729 46.298 54.0341 46.4008C53.799 46.5037 53.5456 46.5551 53.2737 46.5551ZM53.2627 45.949C53.5235 45.949 53.7513 45.8902 53.946 45.7727C54.1443 45.6551 54.2986 45.4935 54.4088 45.2878C54.5227 45.0784 54.5796 44.8378 54.5796 44.5659C54.5796 44.3639 54.5466 44.1802 54.4805 44.0149C54.418 43.8459 54.328 43.7008 54.2105 43.5796C54.0929 43.4547 53.9533 43.3592 53.7917 43.2931C53.6337 43.2269 53.4574 43.1939 53.2627 43.1939C53.0056 43.1939 52.7778 43.2527 52.5794 43.3702C52.3848 43.4841 52.2305 43.6439 52.1166 43.8496C52.0064 44.0553 51.9513 44.2941 51.9513 44.5659C51.9513 44.768 51.9825 44.9553 52.045 45.128C52.1111 45.2969 52.2011 45.442 52.315 45.5633C52.4325 45.6845 52.5721 45.78 52.7337 45.8498C52.8954 45.9159 53.0717 45.949 53.2627 45.949ZM55.9844 46.5V42.6429H56.4253L56.6181 43.3702V46.5H55.9844ZM58.6569 46.5L56.3481 43.4859L56.4253 42.6429L58.734 45.6569L58.6569 46.5ZM58.6569 46.5L58.464 45.8222V42.6429H59.0977V46.5H58.6569ZM63.032 46.5551C62.7564 46.5551 62.4993 46.5037 62.2605 46.4008C62.0218 46.298 61.8124 46.1565 61.6324 45.9765C61.4524 45.7929 61.3109 45.5816 61.2081 45.3429C61.1089 45.1004 61.0593 44.8414 61.0593 44.5659C61.0593 44.2904 61.1089 44.0333 61.2081 43.7945C61.3109 43.5557 61.4505 43.3463 61.6269 43.1663C61.8069 42.9827 62.0144 42.8412 62.2495 42.742C62.4883 42.6392 62.7454 42.5878 63.0209 42.5878C63.2964 42.5878 63.5518 42.6392 63.7869 42.742C64.0256 42.8412 64.235 42.9827 64.415 43.1663C64.595 43.3463 64.7346 43.5576 64.8338 43.8C64.9367 44.0388 64.9881 44.2959 64.9881 44.5714C64.9881 44.8469 64.9367 45.1059 64.8338 45.3484C64.7346 45.5871 64.595 45.7965 64.415 45.9765C64.2387 46.1565 64.0311 46.298 63.7924 46.4008C63.5573 46.5037 63.3038 46.5551 63.032 46.5551ZM63.0209 45.949C63.2818 45.949 63.5095 45.8902 63.7042 45.7727C63.9026 45.6551 64.0569 45.4935 64.1671 45.2878C64.2809 45.0784 64.3379 44.8378 64.3379 44.5659C64.3379 44.3639 64.3048 44.1802 64.2387 44.0149C64.1762 43.8459 64.0862 43.7008 63.9687 43.5796C63.8511 43.4547 63.7116 43.3592 63.5499 43.2931C63.392 43.2269 63.2156 43.1939 63.0209 43.1939C62.7638 43.1939 62.536 43.2527 62.3377 43.3702C62.143 43.4841 61.9887 43.6439 61.8748 43.8496C61.7646 44.0553 61.7095 44.2941 61.7095 44.5659C61.7095 44.768 61.7407 44.9553 61.8032 45.128C61.8693 45.2969 61.9593 45.442 62.0732 45.5633C62.1907 45.6845 62.3303 45.78 62.492 45.8498C62.6536 45.9159 62.8299 45.949 63.0209 45.949ZM65.7427 46.5V42.6429H66.1835L66.3764 43.3702V46.5H65.7427ZM68.4151 46.5L66.1064 43.4859L66.1835 42.6429L68.4923 45.6569L68.4151 46.5ZM68.4151 46.5L68.2223 45.8222V42.6429H68.8559V46.5H68.4151ZM71.0159 46.5V42.6429H71.6496V46.5H71.0159ZM73.4679 46.5V42.6429H74.1016V46.5H73.4679ZM71.4512 44.7918V44.2133H73.6057V44.7918H71.4512ZM75.0489 46.5V42.6429H75.6826V46.5H75.0489ZM75.4842 46.5V45.9214H77.6442V46.5H75.4842ZM75.4842 44.8084V44.2518H77.4569V44.8084H75.4842ZM75.4842 43.2214V42.6429H77.6167V43.2214H75.4842ZM78.1227 46.5L79.7097 42.6429H80.1505L81.7264 46.5H81.0431L79.8089 43.3757H80.0403L78.795 46.5H78.1227ZM78.9052 45.7561V45.2051H80.9495V45.7561H78.9052ZM82.3454 46.5V42.6429H82.9791V46.5H82.3454ZM82.7807 46.5V45.9214H84.7974V46.5H82.7807ZM85.9814 46.5V42.7531H86.6151V46.5H85.9814ZM84.7251 43.2214V42.6429H87.8714V43.2214H84.7251ZM88.5334 46.5V42.6429H89.1671V46.5H88.5334ZM90.9854 46.5V42.6429H91.6191V46.5H90.9854ZM88.9687 44.7918V44.2133H91.1232V44.7918H88.9687ZM95.532 46.5551C95.2528 46.5551 94.9938 46.5055 94.755 46.4063C94.5199 46.3035 94.3142 46.162 94.1379 45.982C93.9616 45.7984 93.8256 45.5871 93.7301 45.3484C93.6346 45.1059 93.5869 44.8469 93.5869 44.5714C93.5869 44.2959 93.6346 44.0388 93.7301 43.8C93.8256 43.5576 93.9616 43.3463 94.1379 43.1663C94.3142 42.9863 94.5199 42.8449 94.755 42.742C94.9938 42.6392 95.2528 42.5878 95.532 42.5878C95.8442 42.5878 96.1142 42.6392 96.342 42.742C96.5697 42.8449 96.7718 42.9845 96.9481 43.1608L96.5183 43.5906C96.4044 43.4657 96.2648 43.3684 96.0995 43.2986C95.9379 43.2288 95.7487 43.1939 95.532 43.1939C95.3409 43.1939 95.1664 43.2269 95.0085 43.2931C94.8505 43.3592 94.7128 43.4547 94.5952 43.5796C94.4813 43.7008 94.3932 43.8459 94.3307 44.0149C94.2683 44.1839 94.2371 44.3694 94.2371 44.5714C94.2371 44.7735 94.2683 44.959 94.3307 45.128C94.3932 45.2969 94.4813 45.4439 94.5952 45.5688C94.7128 45.69 94.8505 45.7837 95.0085 45.8498C95.1664 45.9159 95.3409 45.949 95.532 45.949C95.7671 45.949 95.9654 45.9141 96.1271 45.8443C96.2924 45.7708 96.432 45.6716 96.5458 45.5467L96.9756 45.9765C96.7993 46.1565 96.5918 46.298 96.353 46.4008C96.1142 46.5037 95.8405 46.5551 95.532 46.5551ZM97.2679 46.5L98.8548 42.6429H99.2956L100.872 46.5H100.188L98.954 43.3757H99.1854L97.9401 46.5H97.2679ZM98.0503 45.7561V45.2051H100.095V45.7561H98.0503ZM101.926 44.8635V44.34H102.901C103.096 44.34 103.246 44.2904 103.353 44.1912C103.463 44.0884 103.518 43.9469 103.518 43.7669C103.518 43.6053 103.465 43.4694 103.359 43.3592C103.252 43.249 103.101 43.1939 102.907 43.1939H101.926V42.6429H102.934C103.177 42.6429 103.39 42.6924 103.573 42.7916C103.757 42.8871 103.899 43.0194 103.998 43.1884C104.101 43.3537 104.152 43.5429 104.152 43.7559C104.152 43.98 104.101 44.1747 103.998 44.34C103.899 44.5053 103.757 44.6339 103.573 44.7257C103.39 44.8176 103.177 44.8635 102.934 44.8635H101.926ZM101.491 46.5V42.6429H102.124V46.5H101.491ZM103.606 46.5L102.256 44.8249L102.846 44.61L104.405 46.5H103.606ZM104.985 46.5V42.6429H105.619V46.5H104.985ZM105.421 46.5V45.9214H107.581V46.5H105.421ZM105.421 44.8084V44.2518H107.393V44.8084H105.421ZM105.421 43.2214V42.6429H107.553V43.2214H105.421Z" fill="black" fill-opacity="0.1"></path>
</svg>
