<?xml version="1.0" encoding="UTF-8"?>
<svg xmlns="http://www.w3.org/2000/svg" width="147" height="43" viewBox="0 0 147 43" fill="none">
  <path d="M2.006 31.5V7.292H6.766L8.806 12.392V31.5H2.006ZM18.666 31.5L4.624 13.854L6.766 7.292L20.808 24.938L18.666 31.5ZM18.666 31.5L16.966 26.128V7.292H23.766V31.5H18.666ZM39.7396 31.908C37.881 31.908 36.147 31.602 34.5376 30.99C32.951 30.3553 31.557 29.4713 30.3556 28.338C29.1543 27.2047 28.2136 25.8787 27.5336 24.36C26.8763 22.8187 26.5476 21.1527 26.5476 19.362C26.5476 17.5487 26.8763 15.8827 27.5336 14.364C28.2136 12.8453 29.143 11.5307 30.3216 10.42C31.523 9.30933 32.917 8.448 34.5036 7.836C36.0903 7.20133 37.813 6.884 39.6716 6.884C41.553 6.884 43.2756 7.17867 44.8396 7.768C46.4036 8.35733 47.7636 9.17333 48.9196 10.216L44.3976 14.772C43.8536 14.1827 43.185 13.718 42.3916 13.378C41.621 13.038 40.7143 12.868 39.6716 12.868C38.765 12.868 37.9263 13.0153 37.1556 13.31C36.4076 13.6047 35.7616 14.0353 35.2176 14.602C34.6736 15.1687 34.243 15.86 33.9256 16.676C33.631 17.4693 33.4836 18.3647 33.4836 19.362C33.4836 20.382 33.631 21.3 33.9256 22.116C34.243 22.9093 34.6736 23.5893 35.2176 24.156C35.7616 24.7227 36.4076 25.1647 37.1556 25.482C37.9263 25.7767 38.765 25.924 39.6716 25.924C40.6916 25.924 41.5983 25.7653 42.3916 25.448C43.2076 25.1307 43.9103 24.666 44.4996 24.054L49.0556 28.61C47.8543 29.6527 46.5056 30.4687 45.0096 31.058C43.5136 31.6247 41.757 31.908 39.7396 31.908ZM51.4123 31.5V7.292H58.2123V31.5H51.4123ZM66.0323 31.5V7.292H72.8323V31.5H66.0323ZM55.1183 21.98V16.336H68.6843V21.98H55.1183ZM88.8138 31.908C86.9552 31.908 85.2212 31.602 83.6118 30.99C82.0252 30.3553 80.6312 29.4713 79.4298 28.338C78.2285 27.2047 77.2878 25.8787 76.6078 24.36C75.9505 22.8187 75.6218 21.1527 75.6218 19.362C75.6218 17.5487 75.9505 15.8827 76.6078 14.364C77.2878 12.8453 78.2172 11.5307 79.3958 10.42C80.5972 9.30933 81.9912 8.448 83.5778 7.836C85.1645 7.20133 86.8872 6.884 88.7458 6.884C90.6272 6.884 92.3498 7.17867 93.9138 7.768C95.4778 8.35733 96.8378 9.17333 97.9938 10.216L93.4718 14.772C92.9278 14.1827 92.2592 13.718 91.4658 13.378C90.6952 13.038 89.7885 12.868 88.7458 12.868C87.8392 12.868 87.0005 13.0153 86.2298 13.31C85.4818 13.6047 84.8358 14.0353 84.2918 14.602C83.7478 15.1687 83.3172 15.86 82.9998 16.676C82.7052 17.4693 82.5578 18.3647 82.5578 19.362C82.5578 20.382 82.7052 21.3 82.9998 22.116C83.3172 22.9093 83.7478 23.5893 84.2918 24.156C84.8358 24.7227 85.4818 25.1647 86.2298 25.482C87.0005 25.7767 87.8392 25.924 88.7458 25.924C89.7658 25.924 90.6725 25.7653 91.4658 25.448C92.2818 25.1307 92.9845 24.666 93.5738 24.054L98.1298 28.61C96.9285 29.6527 95.5798 30.4687 94.0838 31.058C92.5878 31.6247 90.8312 31.908 88.8138 31.908Z" fill="black"></path>
  <path d="M0.38 41.5V38H0.78L0.955 38.66V41.5H0.38ZM2.805 41.5L0.71 38.765L0.78 38L2.875 40.735L2.805 41.5ZM2.805 41.5L2.63 40.885V38H3.205V41.5H2.805ZM3.80398 41.5L5.24398 38H5.64398L7.07398 41.5H6.45398L5.33398 38.665H5.54398L4.41398 41.5H3.80398ZM4.51398 40.825V40.325H6.36898V40.825H4.51398ZM8.07133 41.5V38.1H8.64633V41.5H8.07133ZM6.93133 38.525V38H9.78633V38.525H6.93133ZM10.387 41.5V38H10.962V41.5H10.387ZM13.43 41.55C13.18 41.55 12.9467 41.5033 12.73 41.41C12.5134 41.3167 12.3234 41.1883 12.16 41.025C11.9967 40.8583 11.8684 40.6667 11.775 40.45C11.685 40.23 11.64 39.995 11.64 39.745C11.64 39.495 11.685 39.2617 11.775 39.045C11.8684 38.8283 11.995 38.6383 12.155 38.475C12.3184 38.3083 12.5067 38.18 12.72 38.09C12.9367 37.9967 13.17 37.95 13.42 37.95C13.67 37.95 13.9017 37.9967 14.115 38.09C14.3317 38.18 14.5217 38.3083 14.685 38.475C14.8484 38.6383 14.975 38.83 15.065 39.05C15.1584 39.2667 15.205 39.5 15.205 39.75C15.205 40 15.1584 40.235 15.065 40.455C14.975 40.6717 14.8484 40.8617 14.685 41.025C14.525 41.1883 14.3367 41.3167 14.12 41.41C13.9067 41.5033 13.6767 41.55 13.43 41.55ZM13.42 41C13.6567 41 13.8634 40.9467 14.04 40.84C14.22 40.7333 14.36 40.5867 14.46 40.4C14.5634 40.21 14.615 39.9917 14.615 39.745C14.615 39.5617 14.585 39.395 14.525 39.245C14.4684 39.0917 14.3867 38.96 14.28 38.85C14.1734 38.7367 14.0467 38.65 13.9 38.59C13.7567 38.53 13.5967 38.5 13.42 38.5C13.1867 38.5 12.98 38.5533 12.8 38.66C12.6234 38.7633 12.4834 38.9083 12.38 39.095C12.28 39.2817 12.23 39.4983 12.23 39.745C12.23 39.9283 12.2584 40.0983 12.315 40.255C12.375 40.4083 12.4567 40.54 12.56 40.65C12.6667 40.76 12.7934 40.8467 12.94 40.91C13.0867 40.97 13.2467 41 13.42 41ZM15.8898 41.5V38H16.2898L16.4648 38.66V41.5H15.8898ZM18.3148 41.5L16.2198 38.765L16.2898 38L18.3848 40.735L18.3148 41.5ZM18.3148 41.5L18.1398 40.885V38H18.7148V41.5H18.3148ZM19.3138 41.5L20.7538 38H21.1538L22.5838 41.5H21.9638L20.8438 38.665H21.0538L19.9238 41.5H19.3138ZM20.0238 40.825V40.325H21.8788V40.825H20.0238ZM23.1454 41.5V38H23.7204V41.5H23.1454ZM23.5404 41.5V40.975H25.3704V41.5H23.5404ZM28.6464 41.55C28.393 41.55 28.158 41.505 27.9414 41.415C27.728 41.3217 27.5414 41.1933 27.3814 41.03C27.2214 40.8633 27.098 40.6717 27.0114 40.455C26.9247 40.235 26.8814 40 26.8814 39.75C26.8814 39.5 26.9247 39.2667 27.0114 39.05C27.098 38.83 27.2214 38.6383 27.3814 38.475C27.5414 38.3117 27.728 38.1833 27.9414 38.09C28.158 37.9967 28.393 37.95 28.6464 37.95C28.9297 37.95 29.1747 37.9967 29.3814 38.09C29.588 38.1833 29.7714 38.31 29.9314 38.47L29.5414 38.86C29.438 38.7467 29.3114 38.6583 29.1614 38.595C29.0147 38.5317 28.843 38.5 28.6464 38.5C28.473 38.5 28.3147 38.53 28.1714 38.59C28.028 38.65 27.903 38.7367 27.7964 38.85C27.693 38.96 27.613 39.0917 27.5564 39.245C27.4997 39.3983 27.4714 39.5667 27.4714 39.75C27.4714 39.9333 27.4997 40.1017 27.5564 40.255C27.613 40.4083 27.693 40.5417 27.7964 40.655C27.903 40.765 28.028 40.85 28.1714 40.91C28.3147 40.97 28.473 41 28.6464 41C28.8597 41 29.0397 40.9683 29.1864 40.905C29.3364 40.8383 29.463 40.7483 29.5664 40.635L29.9564 41.025C29.7964 41.1883 29.608 41.3167 29.3914 41.41C29.1747 41.5033 28.9264 41.55 28.6464 41.55ZM32.0379 41.55C31.7879 41.55 31.5545 41.5033 31.3379 41.41C31.1212 41.3167 30.9312 41.1883 30.7679 41.025C30.6045 40.8583 30.4762 40.6667 30.3829 40.45C30.2929 40.23 30.2479 39.995 30.2479 39.745C30.2479 39.495 30.2929 39.2617 30.3829 39.045C30.4762 38.8283 30.6029 38.6383 30.7629 38.475C30.9262 38.3083 31.1145 38.18 31.3279 38.09C31.5445 37.9967 31.7779 37.95 32.0279 37.95C32.2779 37.95 32.5095 37.9967 32.7229 38.09C32.9395 38.18 33.1295 38.3083 33.2929 38.475C33.4562 38.6383 33.5829 38.83 33.6729 39.05C33.7662 39.2667 33.8129 39.5 33.8129 39.75C33.8129 40 33.7662 40.235 33.6729 40.455C33.5829 40.6717 33.4562 40.8617 33.2929 41.025C33.1329 41.1883 32.9445 41.3167 32.7279 41.41C32.5145 41.5033 32.2845 41.55 32.0379 41.55ZM32.0279 41C32.2645 41 32.4712 40.9467 32.6479 40.84C32.8279 40.7333 32.9679 40.5867 33.0679 40.4C33.1712 40.21 33.2229 39.9917 33.2229 39.745C33.2229 39.5617 33.1929 39.395 33.1329 39.245C33.0762 39.0917 32.9945 38.96 32.8879 38.85C32.7812 38.7367 32.6545 38.65 32.5079 38.59C32.3645 38.53 32.2045 38.5 32.0279 38.5C31.7945 38.5 31.5879 38.5533 31.4079 38.66C31.2312 38.7633 31.0912 38.9083 30.9879 39.095C30.8879 39.2817 30.8379 39.4983 30.8379 39.745C30.8379 39.9283 30.8662 40.0983 30.9229 40.255C30.9829 40.4083 31.0645 40.54 31.1679 40.65C31.2745 40.76 31.4012 40.8467 31.5479 40.91C31.6945 40.97 31.8545 41 32.0279 41ZM33.9886 41.5L35.4286 38H35.8286L37.2586 41.5H36.6386L35.5186 38.665H35.7286L34.5986 41.5H33.9886ZM34.6986 40.825V40.325H36.5536V40.825H34.6986ZM37.8202 41.5V38H38.3952V41.5H37.8202ZM38.2152 41.5V40.975H40.0452V41.5H38.2152ZM40.6693 41.5V38H41.2443V41.5H40.6693ZM42.9823 41.5V38.1H43.5573V41.5H42.9823ZM41.8423 38.525V38H44.6973V38.525H41.8423ZM45.298 41.5V38H45.873V41.5H45.298ZM48.341 41.55C48.091 41.55 47.8576 41.5033 47.641 41.41C47.4243 41.3167 47.2343 41.1883 47.071 41.025C46.9076 40.8583 46.7793 40.6667 46.686 40.45C46.596 40.23 46.551 39.995 46.551 39.745C46.551 39.495 46.596 39.2617 46.686 39.045C46.7793 38.8283 46.906 38.6383 47.066 38.475C47.2293 38.3083 47.4176 38.18 47.631 38.09C47.8476 37.9967 48.081 37.95 48.331 37.95C48.581 37.95 48.8126 37.9967 49.026 38.09C49.2426 38.18 49.4326 38.3083 49.596 38.475C49.7593 38.6383 49.886 38.83 49.976 39.05C50.0693 39.2667 50.116 39.5 50.116 39.75C50.116 40 50.0693 40.235 49.976 40.455C49.886 40.6717 49.7593 40.8617 49.596 41.025C49.436 41.1883 49.2476 41.3167 49.031 41.41C48.8176 41.5033 48.5876 41.55 48.341 41.55ZM48.331 41C48.5676 41 48.7743 40.9467 48.951 40.84C49.131 40.7333 49.271 40.5867 49.371 40.4C49.4743 40.21 49.526 39.9917 49.526 39.745C49.526 39.5617 49.496 39.395 49.436 39.245C49.3793 39.0917 49.2976 38.96 49.191 38.85C49.0843 38.7367 48.9576 38.65 48.811 38.59C48.6676 38.53 48.5076 38.5 48.331 38.5C48.0976 38.5 47.891 38.5533 47.711 38.66C47.5343 38.7633 47.3943 38.9083 47.291 39.095C47.191 39.2817 47.141 39.4983 47.141 39.745C47.141 39.9283 47.1693 40.0983 47.226 40.255C47.286 40.4083 47.3676 40.54 47.471 40.65C47.5776 40.76 47.7043 40.8467 47.851 40.91C47.9976 40.97 48.1576 41 48.331 41ZM50.8007 41.5V38H51.2007L51.3757 38.66V41.5H50.8007ZM53.2257 41.5L51.1307 38.765L51.2007 38L53.2957 40.735L53.2257 41.5ZM53.2257 41.5L53.0507 40.885V38H53.6257V41.5H53.2257ZM57.1957 41.55C56.9457 41.55 56.7123 41.5033 56.4957 41.41C56.279 41.3167 56.089 41.1883 55.9257 41.025C55.7623 40.8583 55.634 40.6667 55.5407 40.45C55.4507 40.23 55.4057 39.995 55.4057 39.745C55.4057 39.495 55.4507 39.2617 55.5407 39.045C55.634 38.8283 55.7607 38.6383 55.9207 38.475C56.084 38.3083 56.2723 38.18 56.4857 38.09C56.7023 37.9967 56.9357 37.95 57.1857 37.95C57.4357 37.95 57.6673 37.9967 57.8807 38.09C58.0973 38.18 58.2873 38.3083 58.4507 38.475C58.614 38.6383 58.7407 38.83 58.8307 39.05C58.924 39.2667 58.9707 39.5 58.9707 39.75C58.9707 40 58.924 40.235 58.8307 40.455C58.7407 40.6717 58.614 40.8617 58.4507 41.025C58.2907 41.1883 58.1023 41.3167 57.8857 41.41C57.6723 41.5033 57.4423 41.55 57.1957 41.55ZM57.1857 41C57.4223 41 57.629 40.9467 57.8057 40.84C57.9857 40.7333 58.1257 40.5867 58.2257 40.4C58.329 40.21 58.3807 39.9917 58.3807 39.745C58.3807 39.5617 58.3507 39.395 58.2907 39.245C58.234 39.0917 58.1523 38.96 58.0457 38.85C57.939 38.7367 57.8123 38.65 57.6657 38.59C57.5223 38.53 57.3623 38.5 57.1857 38.5C56.9523 38.5 56.7457 38.5533 56.5657 38.66C56.389 38.7633 56.249 38.9083 56.1457 39.095C56.0457 39.2817 55.9957 39.4983 55.9957 39.745C55.9957 39.9283 56.024 40.0983 56.0807 40.255C56.1407 40.4083 56.2223 40.54 56.3257 40.65C56.4323 40.76 56.559 40.8467 56.7057 40.91C56.8523 40.97 57.0123 41 57.1857 41ZM59.6554 41.5V38H60.0554L60.2304 38.66V41.5H59.6554ZM62.0804 41.5L59.9854 38.765L60.0554 38L62.1504 40.735L62.0804 41.5ZM62.0804 41.5L61.9054 40.885V38H62.4804V41.5H62.0804ZM64.4403 41.5V38H65.0153V41.5H64.4403ZM66.6653 41.5V38H67.2403V41.5H66.6653ZM64.8353 39.95V39.425H66.7903V39.95H64.8353ZM68.0999 41.5V38H68.6749V41.5H68.0999ZM68.4949 41.5V40.975H70.4549V41.5H68.4949ZM68.4949 39.965V39.46H70.2849V39.965H68.4949ZM68.4949 38.525V38H70.4299V38.525H68.4949ZM70.8891 41.5L72.3291 38H72.7291L74.1591 41.5H73.5391L72.4191 38.665H72.6291L71.4991 41.5H70.8891ZM71.5991 40.825V40.325H73.4541V40.825H71.5991ZM74.7208 41.5V38H75.2958V41.5H74.7208ZM75.1158 41.5V40.975H76.9458V41.5H75.1158ZM78.0202 41.5V38.1H78.5952V41.5H78.0202ZM76.8802 38.525V38H79.7352V38.525H76.8802ZM80.3359 41.5V38H80.9109V41.5H80.3359ZM82.5609 41.5V38H83.1359V41.5H82.5609ZM80.7309 39.95V39.425H82.6859V39.95H80.7309ZM86.6864 41.55C86.4331 41.55 86.1981 41.505 85.9814 41.415C85.7681 41.3217 85.5814 41.1933 85.4214 41.03C85.2614 40.8633 85.1381 40.6717 85.0514 40.455C84.9647 40.235 84.9214 40 84.9214 39.75C84.9214 39.5 84.9647 39.2667 85.0514 39.05C85.1381 38.83 85.2614 38.6383 85.4214 38.475C85.5814 38.3117 85.7681 38.1833 85.9814 38.09C86.1981 37.9967 86.4331 37.95 86.6864 37.95C86.9697 37.95 87.2147 37.9967 87.4214 38.09C87.6281 38.1833 87.8114 38.31 87.9714 38.47L87.5814 38.86C87.4781 38.7467 87.3514 38.6583 87.2014 38.595C87.0547 38.5317 86.8831 38.5 86.6864 38.5C86.5131 38.5 86.3547 38.53 86.2114 38.59C86.0681 38.65 85.9431 38.7367 85.8364 38.85C85.7331 38.96 85.6531 39.0917 85.5964 39.245C85.5397 39.3983 85.5114 39.5667 85.5114 39.75C85.5114 39.9333 85.5397 40.1017 85.5964 40.255C85.6531 40.4083 85.7331 40.5417 85.8364 40.655C85.9431 40.765 86.0681 40.85 86.2114 40.91C86.3547 40.97 86.5131 41 86.6864 41C86.8997 41 87.0797 40.9683 87.2264 40.905C87.3764 40.8383 87.5031 40.7483 87.6064 40.635L87.9964 41.025C87.8364 41.1883 87.6481 41.3167 87.4314 41.41C87.2147 41.5033 86.9664 41.55 86.6864 41.55ZM88.2616 41.5L89.7016 38H90.1016L91.5316 41.5H90.9116L89.7916 38.665H90.0016L88.8716 41.5H88.2616ZM88.9716 40.825V40.325H90.8266V40.825H88.9716ZM92.4883 40.015V39.54H93.3733C93.5499 39.54 93.6866 39.495 93.7833 39.405C93.8833 39.3117 93.9333 39.1833 93.9333 39.02C93.9333 38.8733 93.8849 38.75 93.7883 38.65C93.6916 38.55 93.5549 38.5 93.3783 38.5H92.4883V38H93.4033C93.6233 38 93.8166 38.045 93.9833 38.135C94.1499 38.2217 94.2783 38.3417 94.3683 38.495C94.4616 38.645 94.5083 38.8167 94.5083 39.01C94.5083 39.2133 94.4616 39.39 94.3683 39.54C94.2783 39.69 94.1499 39.8067 93.9833 39.89C93.8166 39.9733 93.6233 40.015 93.4033 40.015H92.4883ZM92.0933 41.5V38H92.6683V41.5H92.0933ZM94.0133 41.5L92.7883 39.98L93.3233 39.785L94.7383 41.5H94.0133ZM95.2646 41.5V38H95.8396V41.5H95.2646ZM95.6596 41.5V40.975H97.6196V41.5H95.6596ZM95.6596 39.965V39.46H97.4496V39.965H95.6596ZM95.6596 38.525V38H97.5946V38.525H95.6596Z" fill="#42E8E0"></path>
  <path d="M0.38 41.5V38H0.78L0.955 38.66V41.5H0.38ZM2.805 41.5L0.71 38.765L0.78 38L2.875 40.735L2.805 41.5ZM2.805 41.5L2.63 40.885V38H3.205V41.5H2.805ZM3.80398 41.5L5.24398 38H5.64398L7.07398 41.5H6.45398L5.33398 38.665H5.54398L4.41398 41.5H3.80398ZM4.51398 40.825V40.325H6.36898V40.825H4.51398ZM8.07133 41.5V38.1H8.64633V41.5H8.07133ZM6.93133 38.525V38H9.78633V38.525H6.93133ZM10.387 41.5V38H10.962V41.5H10.387ZM13.43 41.55C13.18 41.55 12.9467 41.5033 12.73 41.41C12.5134 41.3167 12.3234 41.1883 12.16 41.025C11.9967 40.8583 11.8684 40.6667 11.775 40.45C11.685 40.23 11.64 39.995 11.64 39.745C11.64 39.495 11.685 39.2617 11.775 39.045C11.8684 38.8283 11.995 38.6383 12.155 38.475C12.3184 38.3083 12.5067 38.18 12.72 38.09C12.9367 37.9967 13.17 37.95 13.42 37.95C13.67 37.95 13.9017 37.9967 14.115 38.09C14.3317 38.18 14.5217 38.3083 14.685 38.475C14.8484 38.6383 14.975 38.83 15.065 39.05C15.1584 39.2667 15.205 39.5 15.205 39.75C15.205 40 15.1584 40.235 15.065 40.455C14.975 40.6717 14.8484 40.8617 14.685 41.025C14.525 41.1883 14.3367 41.3167 14.12 41.41C13.9067 41.5033 13.6767 41.55 13.43 41.55ZM13.42 41C13.6567 41 13.8634 40.9467 14.04 40.84C14.22 40.7333 14.36 40.5867 14.46 40.4C14.5634 40.21 14.615 39.9917 14.615 39.745C14.615 39.5617 14.585 39.395 14.525 39.245C14.4684 39.0917 14.3867 38.96 14.28 38.85C14.1734 38.7367 14.0467 38.65 13.9 38.59C13.7567 38.53 13.5967 38.5 13.42 38.5C13.1867 38.5 12.98 38.5533 12.8 38.66C12.6234 38.7633 12.4834 38.9083 12.38 39.095C12.28 39.2817 12.23 39.4983 12.23 39.745C12.23 39.9283 12.2584 40.0983 12.315 40.255C12.375 40.4083 12.4567 40.54 12.56 40.65C12.6667 40.76 12.7934 40.8467 12.94 40.91C13.0867 40.97 13.2467 41 13.42 41ZM15.8898 41.5V38H16.2898L16.4648 38.66V41.5H15.8898ZM18.3148 41.5L16.2198 38.765L16.2898 38L18.3848 40.735L18.3148 41.5ZM18.3148 41.5L18.1398 40.885V38H18.7148V41.5H18.3148ZM19.3138 41.5L20.7538 38H21.1538L22.5838 41.5H21.9638L20.8438 38.665H21.0538L19.9238 41.5H19.3138ZM20.0238 40.825V40.325H21.8788V40.825H20.0238ZM23.1454 41.5V38H23.7204V41.5H23.1454ZM23.5404 41.5V40.975H25.3704V41.5H23.5404ZM28.6464 41.55C28.393 41.55 28.158 41.505 27.9414 41.415C27.728 41.3217 27.5414 41.1933 27.3814 41.03C27.2214 40.8633 27.098 40.6717 27.0114 40.455C26.9247 40.235 26.8814 40 26.8814 39.75C26.8814 39.5 26.9247 39.2667 27.0114 39.05C27.098 38.83 27.2214 38.6383 27.3814 38.475C27.5414 38.3117 27.728 38.1833 27.9414 38.09C28.158 37.9967 28.393 37.95 28.6464 37.95C28.9297 37.95 29.1747 37.9967 29.3814 38.09C29.588 38.1833 29.7714 38.31 29.9314 38.47L29.5414 38.86C29.438 38.7467 29.3114 38.6583 29.1614 38.595C29.0147 38.5317 28.843 38.5 28.6464 38.5C28.473 38.5 28.3147 38.53 28.1714 38.59C28.028 38.65 27.903 38.7367 27.7964 38.85C27.693 38.96 27.613 39.0917 27.5564 39.245C27.4997 39.3983 27.4714 39.5667 27.4714 39.75C27.4714 39.9333 27.4997 40.1017 27.5564 40.255C27.613 40.4083 27.693 40.5417 27.7964 40.655C27.903 40.765 28.028 40.85 28.1714 40.91C28.3147 40.97 28.473 41 28.6464 41C28.8597 41 29.0397 40.9683 29.1864 40.905C29.3364 40.8383 29.463 40.7483 29.5664 40.635L29.9564 41.025C29.7964 41.1883 29.608 41.3167 29.3914 41.41C29.1747 41.5033 28.9264 41.55 28.6464 41.55ZM32.0379 41.55C31.7879 41.55 31.5545 41.5033 31.3379 41.41C31.1212 41.3167 30.9312 41.1883 30.7679 41.025C30.6045 40.8583 30.4762 40.6667 30.3829 40.45C30.2929 40.23 30.2479 39.995 30.2479 39.745C30.2479 39.495 30.2929 39.2617 30.3829 39.045C30.4762 38.8283 30.6029 38.6383 30.7629 38.475C30.9262 38.3083 31.1145 38.18 31.3279 38.09C31.5445 37.9967 31.7779 37.95 32.0279 37.95C32.2779 37.95 32.5095 37.9967 32.7229 38.09C32.9395 38.18 33.1295 38.3083 33.2929 38.475C33.4562 38.6383 33.5829 38.83 33.6729 39.05C33.7662 39.2667 33.8129 39.5 33.8129 39.75C33.8129 40 33.7662 40.235 33.6729 40.455C33.5829 40.6717 33.4562 40.8617 33.2929 41.025C33.1329 41.1883 32.9445 41.3167 32.7279 41.41C32.5145 41.5033 32.2845 41.55 32.0379 41.55ZM32.0279 41C32.2645 41 32.4712 40.9467 32.6479 40.84C32.8279 40.7333 32.9679 40.5867 33.0679 40.4C33.1712 40.21 33.2229 39.9917 33.2229 39.745C33.2229 39.5617 33.1929 39.395 33.1329 39.245C33.0762 39.0917 32.9945 38.96 32.8879 38.85C32.7812 38.7367 32.6545 38.65 32.5079 38.59C32.3645 38.53 32.2045 38.5 32.0279 38.5C31.7945 38.5 31.5879 38.5533 31.4079 38.66C31.2312 38.7633 31.0912 38.9083 30.9879 39.095C30.8879 39.2817 30.8379 39.4983 30.8379 39.745C30.8379 39.9283 30.8662 40.0983 30.9229 40.255C30.9829 40.4083 31.0645 40.54 31.1679 40.65C31.2745 40.76 31.4012 40.8467 31.5479 40.91C31.6945 40.97 31.8545 41 32.0279 41ZM33.9886 41.5L35.4286 38H35.8286L37.2586 41.5H36.6386L35.5186 38.665H35.7286L34.5986 41.5H33.9886ZM34.6986 40.825V40.325H36.5536V40.825H34.6986ZM37.8202 41.5V38H38.3952V41.5H37.8202ZM38.2152 41.5V40.975H40.0452V41.5H38.2152ZM40.6693 41.5V38H41.2443V41.5H40.6693ZM42.9823 41.5V38.1H43.5573V41.5H42.9823ZM41.8423 38.525V38H44.6973V38.525H41.8423ZM45.298 41.5V38H45.873V41.5H45.298ZM48.341 41.55C48.091 41.55 47.8576 41.5033 47.641 41.41C47.4243 41.3167 47.2343 41.1883 47.071 41.025C46.9076 40.8583 46.7793 40.6667 46.686 40.45C46.596 40.23 46.551 39.995 46.551 39.745C46.551 39.495 46.596 39.2617 46.686 39.045C46.7793 38.8283 46.906 38.6383 47.066 38.475C47.2293 38.3083 47.4176 38.18 47.631 38.09C47.8476 37.9967 48.081 37.95 48.331 37.95C48.581 37.95 48.8126 37.9967 49.026 38.09C49.2426 38.18 49.4326 38.3083 49.596 38.475C49.7593 38.6383 49.886 38.83 49.976 39.05C50.0693 39.2667 50.116 39.5 50.116 39.75C50.116 40 50.0693 40.235 49.976 40.455C49.886 40.6717 49.7593 40.8617 49.596 41.025C49.436 41.1883 49.2476 41.3167 49.031 41.41C48.8176 41.5033 48.5876 41.55 48.341 41.55ZM48.331 41C48.5676 41 48.7743 40.9467 48.951 40.84C49.131 40.7333 49.271 40.5867 49.371 40.4C49.4743 40.21 49.526 39.9917 49.526 39.745C49.526 39.5617 49.496 39.395 49.436 39.245C49.3793 39.0917 49.2976 38.96 49.191 38.85C49.0843 38.7367 48.9576 38.65 48.811 38.59C48.6676 38.53 48.5076 38.5 48.331 38.5C48.0976 38.5 47.891 38.5533 47.711 38.66C47.5343 38.7633 47.3943 38.9083 47.291 39.095C47.191 39.2817 47.141 39.4983 47.141 39.745C47.141 39.9283 47.1693 40.0983 47.226 40.255C47.286 40.4083 47.3676 40.54 47.471 40.65C47.5776 40.76 47.7043 40.8467 47.851 40.91C47.9976 40.97 48.1576 41 48.331 41ZM50.8007 41.5V38H51.2007L51.3757 38.66V41.5H50.8007ZM53.2257 41.5L51.1307 38.765L51.2007 38L53.2957 40.735L53.2257 41.5ZM53.2257 41.5L53.0507 40.885V38H53.6257V41.5H53.2257ZM57.1957 41.55C56.9457 41.55 56.7123 41.5033 56.4957 41.41C56.279 41.3167 56.089 41.1883 55.9257 41.025C55.7623 40.8583 55.634 40.6667 55.5407 40.45C55.4507 40.23 55.4057 39.995 55.4057 39.745C55.4057 39.495 55.4507 39.2617 55.5407 39.045C55.634 38.8283 55.7607 38.6383 55.9207 38.475C56.084 38.3083 56.2723 38.18 56.4857 38.09C56.7023 37.9967 56.9357 37.95 57.1857 37.95C57.4357 37.95 57.6673 37.9967 57.8807 38.09C58.0973 38.18 58.2873 38.3083 58.4507 38.475C58.614 38.6383 58.7407 38.83 58.8307 39.05C58.924 39.2667 58.9707 39.5 58.9707 39.75C58.9707 40 58.924 40.235 58.8307 40.455C58.7407 40.6717 58.614 40.8617 58.4507 41.025C58.2907 41.1883 58.1023 41.3167 57.8857 41.41C57.6723 41.5033 57.4423 41.55 57.1957 41.55ZM57.1857 41C57.4223 41 57.629 40.9467 57.8057 40.84C57.9857 40.7333 58.1257 40.5867 58.2257 40.4C58.329 40.21 58.3807 39.9917 58.3807 39.745C58.3807 39.5617 58.3507 39.395 58.2907 39.245C58.234 39.0917 58.1523 38.96 58.0457 38.85C57.939 38.7367 57.8123 38.65 57.6657 38.59C57.5223 38.53 57.3623 38.5 57.1857 38.5C56.9523 38.5 56.7457 38.5533 56.5657 38.66C56.389 38.7633 56.249 38.9083 56.1457 39.095C56.0457 39.2817 55.9957 39.4983 55.9957 39.745C55.9957 39.9283 56.024 40.0983 56.0807 40.255C56.1407 40.4083 56.2223 40.54 56.3257 40.65C56.4323 40.76 56.559 40.8467 56.7057 40.91C56.8523 40.97 57.0123 41 57.1857 41ZM59.6554 41.5V38H60.0554L60.2304 38.66V41.5H59.6554ZM62.0804 41.5L59.9854 38.765L60.0554 38L62.1504 40.735L62.0804 41.5ZM62.0804 41.5L61.9054 40.885V38H62.4804V41.5H62.0804ZM64.4403 41.5V38H65.0153V41.5H64.4403ZM66.6653 41.5V38H67.2403V41.5H66.6653ZM64.8353 39.95V39.425H66.7903V39.95H64.8353ZM68.0999 41.5V38H68.6749V41.5H68.0999ZM68.4949 41.5V40.975H70.4549V41.5H68.4949ZM68.4949 39.965V39.46H70.2849V39.965H68.4949ZM68.4949 38.525V38H70.4299V38.525H68.4949ZM70.8891 41.5L72.3291 38H72.7291L74.1591 41.5H73.5391L72.4191 38.665H72.6291L71.4991 41.5H70.8891ZM71.5991 40.825V40.325H73.4541V40.825H71.5991ZM74.7208 41.5V38H75.2958V41.5H74.7208ZM75.1158 41.5V40.975H76.9458V41.5H75.1158ZM78.0202 41.5V38.1H78.5952V41.5H78.0202ZM76.8802 38.525V38H79.7352V38.525H76.8802ZM80.3359 41.5V38H80.9109V41.5H80.3359ZM82.5609 41.5V38H83.1359V41.5H82.5609ZM80.7309 39.95V39.425H82.6859V39.95H80.7309ZM86.6864 41.55C86.4331 41.55 86.1981 41.505 85.9814 41.415C85.7681 41.3217 85.5814 41.1933 85.4214 41.03C85.2614 40.8633 85.1381 40.6717 85.0514 40.455C84.9647 40.235 84.9214 40 84.9214 39.75C84.9214 39.5 84.9647 39.2667 85.0514 39.05C85.1381 38.83 85.2614 38.6383 85.4214 38.475C85.5814 38.3117 85.7681 38.1833 85.9814 38.09C86.1981 37.9967 86.4331 37.95 86.6864 37.95C86.9697 37.95 87.2147 37.9967 87.4214 38.09C87.6281 38.1833 87.8114 38.31 87.9714 38.47L87.5814 38.86C87.4781 38.7467 87.3514 38.6583 87.2014 38.595C87.0547 38.5317 86.8831 38.5 86.6864 38.5C86.5131 38.5 86.3547 38.53 86.2114 38.59C86.0681 38.65 85.9431 38.7367 85.8364 38.85C85.7331 38.96 85.6531 39.0917 85.5964 39.245C85.5397 39.3983 85.5114 39.5667 85.5114 39.75C85.5114 39.9333 85.5397 40.1017 85.5964 40.255C85.6531 40.4083 85.7331 40.5417 85.8364 40.655C85.9431 40.765 86.0681 40.85 86.2114 40.91C86.3547 40.97 86.5131 41 86.6864 41C86.8997 41 87.0797 40.9683 87.2264 40.905C87.3764 40.8383 87.5031 40.7483 87.6064 40.635L87.9964 41.025C87.8364 41.1883 87.6481 41.3167 87.4314 41.41C87.2147 41.5033 86.9664 41.55 86.6864 41.55ZM88.2616 41.5L89.7016 38H90.1016L91.5316 41.5H90.9116L89.7916 38.665H90.0016L88.8716 41.5H88.2616ZM88.9716 40.825V40.325H90.8266V40.825H88.9716ZM92.4883 40.015V39.54H93.3733C93.5499 39.54 93.6866 39.495 93.7833 39.405C93.8833 39.3117 93.9333 39.1833 93.9333 39.02C93.9333 38.8733 93.8849 38.75 93.7883 38.65C93.6916 38.55 93.5549 38.5 93.3783 38.5H92.4883V38H93.4033C93.6233 38 93.8166 38.045 93.9833 38.135C94.1499 38.2217 94.2783 38.3417 94.3683 38.495C94.4616 38.645 94.5083 38.8167 94.5083 39.01C94.5083 39.2133 94.4616 39.39 94.3683 39.54C94.2783 39.69 94.1499 39.8067 93.9833 39.89C93.8166 39.9733 93.6233 40.015 93.4033 40.015H92.4883ZM92.0933 41.5V38H92.6683V41.5H92.0933ZM94.0133 41.5L92.7883 39.98L93.3233 39.785L94.7383 41.5H94.0133ZM95.2646 41.5V38H95.8396V41.5H95.2646ZM95.6596 41.5V40.975H97.6196V41.5H95.6596ZM95.6596 39.965V39.46H97.4496V39.965H95.6596ZM95.6596 38.525V38H97.5946V38.525H95.6596Z" fill="black" fill-opacity="0.1"></path>
</svg>
