<?xml version="1.0" encoding="UTF-8"?>
<svg xmlns="http://www.w3.org/2000/svg" width="101" height="100" viewBox="0 0 101 100" fill="none">
  <rect x="26.002" y="29.6477" width="10.6667" height="24" rx="5.33333" transform="rotate(-8.88655 26.002 29.6477)" fill="#3CCACE"></rect>
  <path d="M27.6504 40.186L38.189 38.5383L39.4248 46.4422C39.8799 49.3524 37.8896 52.0804 34.9794 52.5354C32.0693 52.9905 29.3412 51.0002 28.8862 48.09L27.6504 40.186Z" fill="#313131"></path>
  <rect x="22.002" y="68.5916" width="10.6667" height="24" rx="5.33333" transform="rotate(-83.2001 22.002 68.5916)" fill="#3CCACE"></rect>
  <path d="M32.5938 69.855L33.8567 59.2633L41.8004 60.2106C44.7252 60.5593 46.8135 63.2131 46.4648 66.1379C46.116 69.0627 43.4623 71.1509 40.5375 70.8022L32.5938 69.855Z" fill="#313131"></path>
  <rect x="65.4062" y="43.165" width="10.6667" height="24" rx="5.33333" transform="rotate(135.66 65.4062 43.165)" fill="#3CCACE"></rect>
  <path d="M57.9512 35.5361L50.3223 42.9912L44.731 37.2696C42.6723 35.163 42.7112 31.7863 44.8179 29.7276C46.9245 27.669 50.3012 27.7079 52.3598 29.8145L57.9512 35.5361Z" fill="#313131"></path>
  <rect x="72.6523" y="49" width="10.6667" height="24" rx="5.33333" transform="rotate(80.1817 72.6523 49)" fill="#3CCACE"></rect>
  <path d="M62.1406 50.8193L63.9595 61.3298L56.0767 62.694C53.1743 63.1962 50.4143 61.2506 49.912 58.3482C49.4098 55.4458 51.3554 52.6858 54.2578 52.1835L62.1406 50.8193Z" fill="#313131"></path>
</svg>
