<?xml version="1.0" encoding="UTF-8"?>
<svg xmlns="http://www.w3.org/2000/svg" width="101" height="100" viewBox="0 0 101 100" fill="none">
  <g clip-path="url(#clip0_3977_56999)">
    <path d="M57.9289 79.2052L57.9282 79.2043C55.9699 76.5852 53.8523 74.2383 51.8408 72.009C51.5382 71.6736 51.2379 71.3408 50.9409 71.0101C50.8025 70.856 50.5834 70.8032 50.39 70.8773C50.1966 70.9514 50.0689 71.1371 50.0689 71.3442C50.0689 74.4911 49.8156 77.5205 49.6742 78.9657L49.6741 78.966C49.6625 79.0858 49.6068 79.1965 49.5185 79.2766L49.8546 79.6468L49.5185 79.2767C49.4303 79.3568 49.3158 79.4007 49.1975 79.4004H49.1962L38.045 79.4004L38.0421 79.4004C37.9327 79.401 37.8262 79.3634 37.741 79.2935C37.6562 79.2239 37.5978 79.1267 37.576 79.0182C37.0851 76.4033 36.0818 73.7031 35.0396 70.8985C34.7213 70.0418 34.3994 69.1754 34.0873 68.2988C32.7432 64.5227 31.5548 60.4943 31.4806 56.0181L31.4807 56.0181L31.4805 56.0121C31.4286 54.1916 31.7195 52.3779 32.3377 50.6664C33.9613 49.0091 35.2602 47.0603 36.1668 44.9217C36.9851 44.0799 37.8474 43.2945 38.7068 42.5173C38.7569 42.472 38.8069 42.4267 38.857 42.3814C39.6816 41.636 40.5023 40.894 41.2553 40.1287C42.8535 38.5042 44.1961 36.7267 44.6965 34.4478L44.6965 34.4477C45.491 30.8276 44.7566 26.3396 42.337 20.3168L42.3362 20.3148C42.3062 20.2411 42.2947 20.1611 42.3028 20.0818C42.3108 20.0024 42.3382 19.9265 42.3823 19.8605C42.4263 19.7945 42.4857 19.7407 42.5551 19.7035C42.6244 19.6663 42.7016 19.6469 42.7799 19.6467H64.3244C64.4507 19.6467 64.5722 19.6969 64.6624 19.7868C64.7526 19.8768 64.8041 19.9994 64.8049 20.1279L64.8049 20.1301C64.8312 22.5754 64.9536 25.1577 65.0889 28.0123C65.3316 33.1321 65.6159 39.1282 65.4615 46.7828L65.4614 46.7865C65.4509 47.61 65.551 48.4813 65.6494 49.2244C65.6703 49.3821 65.6907 49.5321 65.7101 49.6738C65.7855 50.2273 65.8438 50.6544 65.8438 50.9273C65.8438 50.9633 65.8477 50.9992 65.8554 51.0343C66.2892 53.0135 67.0706 55.7961 67.9216 58.8263C68.0498 59.2828 68.1796 59.7448 68.31 60.2106C69.3093 63.7805 70.3491 67.5807 71.0217 70.8102C71.9354 75.1966 72.3958 77.5974 72.6194 78.8278C72.6317 78.8976 72.6288 78.9693 72.6106 79.0378C72.5925 79.1065 72.5595 79.1702 72.5143 79.2246C72.4691 79.2788 72.4127 79.3224 72.3491 79.3522C72.2857 79.382 72.2165 79.3974 72.1466 79.3974C72.1466 79.3974 72.1465 79.3974 72.1465 79.3974H58.3093C58.2356 79.3973 58.1629 79.3799 58.0969 79.3466C58.031 79.3133 57.9734 79.265 57.9289 79.2052Z" fill="#313131" stroke="#313131" stroke-linejoin="round"></path>
    <path d="M50.5767 71.3533L50.5669 71.3779C50.5669 74.5471 50.3124 77.5701 50.1702 79.0142C50.1467 79.2573 50.0336 79.4828 49.8532 79.6467C49.6727 79.8105 49.4379 79.9009 49.1946 79.9001H38.0449C37.8186 79.9014 37.599 79.8235 37.4238 79.6798C37.2486 79.5361 37.1288 79.3355 37.085 79.1126C35.823 72.3869 31.1316 65.1443 30.9806 56.0266C30.9264 54.1094 31.2393 52.1996 31.9023 50.4009C34.9861 48.4666 40.0947 54.1759 43.0363 60.2884C44.414 64.1718 47.3311 67.7357 50.5767 71.3533Z" fill="#313131"></path>
    <path d="M66.3437 50.9271C58.1562 47.3105 42.4676 50.4394 43.0462 60.2418C43.0477 60.2513 43.0458 60.2612 43.0407 60.2694C43.0355 60.2776 43.0276 60.2837 43.0183 60.2865C43.0091 60.2893 42.9991 60.2886 42.9903 60.2845C42.9816 60.2804 42.9746 60.2733 42.9706 60.2644C40.0148 54.2194 34.9548 48.4859 31.9023 50.4005V50.3956C32.7704 48.227 34.0795 46.264 35.746 44.632H35.751C38.6386 44.5779 54.7685 43.3425 65.9613 46.7927C66.3437 47.9641 66.3437 50.1544 66.3437 50.9271Z" fill="#3CCACE"></path>
    <path d="M36.2712 27.1598L35.6529 28.2953C35.4182 28.7258 35.0655 29.0799 34.6366 29.3156L33.5056 29.9362C33.4536 29.9648 33.4103 30.0069 33.3801 30.0581C33.3499 30.1093 33.334 30.1676 33.334 30.2271C33.334 30.2866 33.3499 30.345 33.3801 30.3961C33.4103 30.4473 33.4536 30.4894 33.5056 30.518L34.6366 31.1416C35.0656 31.3769 35.4183 31.7309 35.6529 32.1614L36.2712 33.2969C36.2996 33.349 36.3416 33.3925 36.3925 33.4228C36.4435 33.4531 36.5017 33.4691 36.5609 33.4691C36.6202 33.4691 36.6783 33.4531 36.7293 33.4228C36.7803 33.3925 36.8222 33.349 36.8507 33.2969L37.4694 32.1614C37.7036 31.7307 38.0562 31.3767 38.4852 31.1416L39.6163 30.5205C39.6682 30.4919 39.7116 30.4498 39.7417 30.3986C39.7719 30.3474 39.7879 30.289 39.7879 30.2296C39.7879 30.1701 39.7719 30.1117 39.7417 30.0605C39.7116 30.0094 39.6682 29.9673 39.6163 29.9387L38.4852 29.3156C38.0564 29.08 37.7038 28.7259 37.4694 28.2953L36.8507 27.1598C36.8222 27.1077 36.7803 27.0641 36.7293 27.0338C36.6783 27.0035 36.6202 26.9875 36.5609 26.9875C36.5017 26.9875 36.4435 27.0035 36.3925 27.0338C36.3416 27.0641 36.2996 27.1077 36.2712 27.1598Z" fill="#3CCACE"></path>
    <path d="M72.2014 44.2989L71.6989 45.2213C71.5082 45.5712 71.2217 45.859 70.8733 46.0506L69.954 46.5551C69.9118 46.5783 69.8765 46.6125 69.852 46.654C69.8274 46.6956 69.8145 46.7431 69.8145 46.7914C69.8145 46.8397 69.8274 46.8872 69.852 46.9287C69.8765 46.9703 69.9118 47.0045 69.954 47.0276L70.8733 47.5311C71.2217 47.7228 71.5082 48.0106 71.6989 48.3605L72.2014 49.2828C72.2245 49.3253 72.2585 49.3606 72.2999 49.3853C72.3413 49.4099 72.3886 49.423 72.4367 49.423C72.4849 49.423 72.5321 49.4099 72.5735 49.3853C72.615 49.3606 72.649 49.3253 72.6721 49.2828L73.1746 48.3605C73.3654 48.0105 73.6521 47.7227 74.0007 47.5311L74.9195 47.0267C74.9617 47.0035 74.997 46.9693 75.0215 46.9277C75.0461 46.8862 75.059 46.8387 75.059 46.7904C75.059 46.7421 75.0461 46.6946 75.0215 46.6531C74.997 46.6115 74.9617 46.5773 74.9195 46.5542L74.0007 46.0497C73.6521 45.8581 73.3654 45.5703 73.1746 45.2203L72.6735 44.2989C72.6506 44.2562 72.6165 44.2204 72.5749 44.1955C72.5334 44.1706 72.4859 44.1575 72.4375 44.1575C72.3891 44.1575 72.3416 44.1706 72.3 44.1955C72.2585 44.2204 72.2244 44.2562 72.2014 44.2989Z" fill="#3CCACE"></path>
  </g>
  <defs>
    <clipPath id="clip0_3977_56999">
      <rect width="49" height="63" fill="white" transform="translate(26 18)"></rect>
    </clipPath>
  </defs>
</svg>
