<svg width="14" height="14" viewBox="0 0 14 14" fill="none" xmlns="http://www.w3.org/2000/svg">
<path fill-rule="evenodd" clip-rule="evenodd" d="M6.99935 0.333252C10.6812 0.333252 13.666 3.31802 13.666 6.99992C13.666 10.6818 10.6812 13.6666 6.99935 13.6666C3.31745 13.6666 0.332682 10.6818 0.332682 6.99992C0.332682 3.31802 3.31745 0.333252 6.99935 0.333252ZM9.3529 7.35347C9.54816 7.15821 9.54816 6.84163 9.3529 6.64637C9.15764 6.4511 8.84106 6.4511 8.6458 6.64637L7.49935 7.79281L7.49935 4.99992C7.49935 4.72378 7.27549 4.49992 6.99935 4.49992C6.72321 4.49992 6.49935 4.72378 6.49935 4.99992L6.49935 7.79281L5.3529 6.64636C5.15764 6.4511 4.84106 6.4511 4.64579 6.64636C4.45053 6.84163 4.45053 7.15821 4.64579 7.35347L6.64579 9.35347C6.84106 9.54874 7.15764 9.54874 7.3529 9.35347L9.3529 7.35347Z" fill="black"/>
</svg>
