<svg width="266" height="64" viewBox="0 0 266 64" fill="none" xmlns="http://www.w3.org/2000/svg">
<g filter="url(#filter0_d_1_4)">
<rect width="258" height="56" fill="#D8F4F5" shape-rendering="crispEdges"/>
<path d="M57.0057 26.0795C56.911 25.7727 56.7803 25.4981 56.6136 25.2557C56.4508 25.0095 56.2538 24.7992 56.0227 24.625C55.7955 24.4508 55.5341 24.3201 55.2386 24.233C54.9432 24.142 54.6212 24.0966 54.2727 24.0966C53.6477 24.0966 53.0909 24.2538 52.6023 24.5682C52.1136 24.8826 51.7292 25.3447 51.4489 25.9545C51.1723 26.5606 51.0341 27.2992 51.0341 28.1705C51.0341 29.0492 51.1723 29.7936 51.4489 30.4034C51.7254 31.0133 52.1098 31.4773 52.6023 31.7955C53.0947 32.1098 53.6667 32.267 54.3182 32.267C54.9091 32.267 55.4205 32.1534 55.8523 31.9261C56.2879 31.6989 56.6231 31.3769 56.858 30.9602C57.0928 30.5398 57.2102 30.0473 57.2102 29.483L57.6875 29.5568H54.5284V27.9091H59.25V29.3068C59.25 30.303 59.0379 31.1648 58.6136 31.892C58.1894 32.6193 57.6061 33.1799 56.8636 33.5739C56.1212 33.964 55.2689 34.1591 54.3068 34.1591C53.2348 34.1591 52.2936 33.9186 51.483 33.4375C50.6761 32.9527 50.0455 32.2652 49.5909 31.375C49.1402 30.4811 48.9148 29.4205 48.9148 28.1932C48.9148 27.2538 49.0473 26.4148 49.3125 25.6761C49.5814 24.9375 49.9564 24.3106 50.4375 23.7955C50.9186 23.2765 51.483 22.8826 52.1307 22.6136C52.7784 22.3409 53.483 22.2045 54.2443 22.2045C54.8883 22.2045 55.4886 22.2992 56.0455 22.4886C56.6023 22.6742 57.0966 22.9394 57.5284 23.2841C57.964 23.6288 58.322 24.0379 58.6023 24.5114C58.8826 24.9848 59.0663 25.5076 59.1534 26.0795H57.0057ZM61.2884 34V22.3636H68.8565V24.1307H63.3963V27.2898H68.4645V29.0568H63.3963V32.233H68.902V34H61.2884ZM70.4957 24.1307V22.3636H79.7798V24.1307H76.1832V34H74.0923V24.1307H70.4957ZM85.5384 34V22.3636H89.902C90.7959 22.3636 91.5459 22.5303 92.152 22.8636C92.7618 23.197 93.2221 23.6553 93.5327 24.2386C93.8471 24.8182 94.0043 25.4773 94.0043 26.2159C94.0043 26.9621 93.8471 27.625 93.5327 28.2045C93.2183 28.7841 92.7543 29.2405 92.1406 29.5739C91.527 29.9034 90.7713 30.0682 89.8736 30.0682H86.9815V28.3352H89.5895C90.1122 28.3352 90.5402 28.2443 90.8736 28.0625C91.2069 27.8807 91.4531 27.6307 91.6122 27.3125C91.7751 26.9943 91.8565 26.6288 91.8565 26.2159C91.8565 25.803 91.7751 25.4394 91.6122 25.125C91.4531 24.8106 91.205 24.5663 90.8679 24.392C90.5346 24.214 90.1046 24.125 89.5781 24.125H87.6463V34H85.5384ZM95.8352 34V22.3636H100.199C101.093 22.3636 101.843 22.5189 102.449 22.8295C103.059 23.1402 103.519 23.5758 103.83 24.1364C104.144 24.6932 104.301 25.3428 104.301 26.0852C104.301 26.8314 104.142 27.4792 103.824 28.0284C103.509 28.5739 103.045 28.9962 102.432 29.2955C101.818 29.5909 101.064 29.7386 100.17 29.7386H97.0625V27.9886H99.8864C100.409 27.9886 100.837 27.9167 101.17 27.7727C101.504 27.625 101.75 27.411 101.909 27.1307C102.072 26.8466 102.153 26.4981 102.153 26.0852C102.153 25.6723 102.072 25.3201 101.909 25.0284C101.746 24.733 101.498 24.5095 101.165 24.358C100.831 24.2027 100.402 24.125 99.875 24.125H97.9432V34H95.8352ZM101.847 28.7273L104.727 34H102.375L99.5455 28.7273H101.847ZM116.639 28.1818C116.639 29.4356 116.404 30.5095 115.935 31.4034C115.469 32.2936 114.832 32.9754 114.026 33.4489C113.223 33.9223 112.312 34.1591 111.293 34.1591C110.274 34.1591 109.361 33.9223 108.554 33.4489C107.751 32.9716 107.115 32.2879 106.645 31.3977C106.179 30.5038 105.946 29.4318 105.946 28.1818C105.946 26.928 106.179 25.8561 106.645 24.9659C107.115 24.072 107.751 23.3883 108.554 22.9148C109.361 22.4413 110.274 22.2045 111.293 22.2045C112.312 22.2045 113.223 22.4413 114.026 22.9148C114.832 23.3883 115.469 24.072 115.935 24.9659C116.404 25.8561 116.639 26.928 116.639 28.1818ZM114.52 28.1818C114.52 27.2992 114.382 26.5549 114.105 25.9489C113.832 25.339 113.454 24.8788 112.969 24.5682C112.484 24.2538 111.925 24.0966 111.293 24.0966C110.66 24.0966 110.101 24.2538 109.616 24.5682C109.132 24.8788 108.751 25.339 108.474 25.9489C108.202 26.5549 108.065 27.2992 108.065 28.1818C108.065 29.0644 108.202 29.8106 108.474 30.4205C108.751 31.0265 109.132 31.4867 109.616 31.8011C110.101 32.1117 110.66 32.267 111.293 32.267C111.925 32.267 112.484 32.1117 112.969 31.8011C113.454 31.4867 113.832 31.0265 114.105 30.4205C114.382 29.8106 114.52 29.0644 114.52 28.1818ZM118.632 22.3636H121.212L124.666 30.7955H124.803L128.257 22.3636H130.837V34H128.814V26.0057H128.706L125.49 33.9659H123.979L120.763 25.9886H120.655V34H118.632V22.3636ZM143.53 28.1818C143.53 29.4356 143.295 30.5095 142.825 31.4034C142.359 32.2936 141.723 32.9754 140.916 33.4489C140.113 33.9223 139.202 34.1591 138.183 34.1591C137.164 34.1591 136.251 33.9223 135.445 33.4489C134.642 32.9716 134.005 32.2879 133.536 31.3977C133.07 30.5038 132.837 29.4318 132.837 28.1818C132.837 26.928 133.07 25.8561 133.536 24.9659C134.005 24.072 134.642 23.3883 135.445 22.9148C136.251 22.4413 137.164 22.2045 138.183 22.2045C139.202 22.2045 140.113 22.4413 140.916 22.9148C141.723 23.3883 142.359 24.072 142.825 24.9659C143.295 25.8561 143.53 26.928 143.53 28.1818ZM141.411 28.1818C141.411 27.2992 141.272 26.5549 140.996 25.9489C140.723 25.339 140.344 24.8788 139.859 24.5682C139.375 24.2538 138.816 24.0966 138.183 24.0966C137.551 24.0966 136.992 24.2538 136.507 24.5682C136.022 24.8788 135.642 25.339 135.365 25.9489C135.092 26.5549 134.956 27.2992 134.956 28.1818C134.956 29.0644 135.092 29.8106 135.365 30.4205C135.642 31.0265 136.022 31.4867 136.507 31.8011C136.992 32.1117 137.551 32.267 138.183 32.267C138.816 32.267 139.375 32.1117 139.859 31.8011C140.344 31.4867 140.723 31.0265 140.996 30.4205C141.272 29.8106 141.411 29.0644 141.411 28.1818ZM159.452 26.2898H157.327C157.266 25.9413 157.154 25.6326 156.991 25.3636C156.829 25.0909 156.626 24.8598 156.384 24.6705C156.141 24.4811 155.865 24.339 155.554 24.2443C155.247 24.1458 154.916 24.0966 154.56 24.0966C153.927 24.0966 153.366 24.2557 152.878 24.5739C152.389 24.8883 152.007 25.3504 151.73 25.9602C151.454 26.5663 151.315 27.3068 151.315 28.1818C151.315 29.072 151.454 29.822 151.73 30.4318C152.01 31.0379 152.393 31.4962 152.878 31.8068C153.366 32.1136 153.925 32.267 154.554 32.267C154.902 32.267 155.228 32.2216 155.531 32.1307C155.838 32.036 156.113 31.8977 156.355 31.7159C156.601 31.5341 156.808 31.3106 156.974 31.0455C157.145 30.7803 157.262 30.4773 157.327 30.1364L159.452 30.1477C159.372 30.7008 159.2 31.2197 158.935 31.7045C158.673 32.1894 158.33 32.6174 157.906 32.9886C157.482 33.3561 156.986 33.6439 156.418 33.8523C155.849 34.0568 155.219 34.1591 154.526 34.1591C153.503 34.1591 152.59 33.9223 151.787 33.4489C150.984 32.9754 150.351 32.2917 149.889 31.3977C149.427 30.5038 149.196 29.4318 149.196 28.1818C149.196 26.928 149.429 25.8561 149.895 24.9659C150.361 24.072 150.995 23.3883 151.798 22.9148C152.601 22.4413 153.51 22.2045 154.526 22.2045C155.173 22.2045 155.776 22.2955 156.332 22.4773C156.889 22.6591 157.385 22.9261 157.821 23.2784C158.257 23.6269 158.615 24.0549 158.895 24.5625C159.179 25.0663 159.365 25.642 159.452 26.2898ZM171.78 28.1818C171.78 29.4356 171.545 30.5095 171.075 31.4034C170.609 32.2936 169.973 32.9754 169.166 33.4489C168.363 33.9223 167.452 34.1591 166.433 34.1591C165.414 34.1591 164.501 33.9223 163.695 33.4489C162.892 32.9716 162.255 32.2879 161.786 31.3977C161.32 30.5038 161.087 29.4318 161.087 28.1818C161.087 26.928 161.32 25.8561 161.786 24.9659C162.255 24.072 162.892 23.3883 163.695 22.9148C164.501 22.4413 165.414 22.2045 166.433 22.2045C167.452 22.2045 168.363 22.4413 169.166 22.9148C169.973 23.3883 170.609 24.072 171.075 24.9659C171.545 25.8561 171.78 26.928 171.78 28.1818ZM169.661 28.1818C169.661 27.2992 169.522 26.5549 169.246 25.9489C168.973 25.339 168.594 24.8788 168.109 24.5682C167.625 24.2538 167.066 24.0966 166.433 24.0966C165.801 24.0966 165.242 24.2538 164.757 24.5682C164.272 24.8788 163.892 25.339 163.615 25.9489C163.342 26.5549 163.206 27.2992 163.206 28.1818C163.206 29.0644 163.342 29.8106 163.615 30.4205C163.892 31.0265 164.272 31.4867 164.757 31.8011C165.242 32.1117 165.801 32.267 166.433 32.267C167.066 32.267 167.625 32.1117 168.109 31.8011C168.594 31.4867 168.973 31.0265 169.246 30.4205C169.522 29.8106 169.661 29.0644 169.661 28.1818ZM177.716 34H173.773V22.3636H177.795C178.951 22.3636 179.943 22.5966 180.773 23.0625C181.606 23.5246 182.246 24.1894 182.693 25.0568C183.14 25.9242 183.364 26.9621 183.364 28.1705C183.364 29.3826 183.138 30.4242 182.688 31.2955C182.241 32.1667 181.595 32.8352 180.75 33.3011C179.909 33.767 178.898 34 177.716 34ZM175.881 32.1761H177.614C178.424 32.1761 179.1 32.0284 179.642 31.733C180.184 31.4337 180.591 30.9886 180.864 30.3977C181.136 29.803 181.273 29.0606 181.273 28.1705C181.273 27.2803 181.136 26.5417 180.864 25.9545C180.591 25.3636 180.188 24.9223 179.653 24.6307C179.123 24.3352 178.464 24.1875 177.676 24.1875H175.881V32.1761ZM185.366 34V22.3636H192.935V24.1307H187.474V27.2898H192.543V29.0568H187.474V32.233H192.98V34H185.366Z" fill="#D8F4F5"/>
<g clip-path="url(#clip0_1_4)">
<path d="M217 23H227M227 23V33M227 23L217 33" stroke="#D8F4F5" stroke-width="2" stroke-linecap="square"/>
</g>
<rect x="0.25" y="0.25" width="257.5" height="55.5" stroke="#0D152E" stroke-width="0.5" shape-rendering="crispEdges"/>
</g>
<path d="M0.25 54.9762V0.25H28.6734L0.25 54.9762Z" fill="white" stroke="black" stroke-width="0.5"/>
<path d="M35.6961 12.9735L1.22086 54.1523L28.5138 0.524138L35.6961 12.9735Z" fill="white" stroke="black" stroke-width="0.5"/>
<defs>
<filter id="filter0_d_1_4" x="0" y="0" width="266" height="64" filterUnits="userSpaceOnUse" color-interpolation-filters="sRGB">
<feFlood flood-opacity="0" result="BackgroundImageFix"/>
<feColorMatrix in="SourceAlpha" type="matrix" values="0 0 0 0 0 0 0 0 0 0 0 0 0 0 0 0 0 0 127 0" result="hardAlpha"/>
<feOffset dx="8" dy="8"/>
<feComposite in2="hardAlpha" operator="out"/>
<feColorMatrix type="matrix" values="0 0 0 0 0 0 0 0 0 0 0 0 0 0 0 0 0 0 1 0"/>
<feBlend mode="normal" in2="BackgroundImageFix" result="effect1_dropShadow_1_4"/>
<feBlend mode="normal" in="SourceGraphic" in2="effect1_dropShadow_1_4" result="shape"/>
</filter>
<clipPath id="clip0_1_4">
<rect width="24" height="24" fill="white" transform="translate(210 16)"/>
</clipPath>
</defs>
</svg>
