<svg width="240" height="216" viewBox="0 0 240 216" fill="none" xmlns="http://www.w3.org/2000/svg">
<rect width="240" height="216" fill="#E5E5E5"/>
<g clip-path="url(#clip0_2922_42373)">
<rect width="1920" height="1092" transform="translate(-840 -447)" fill="white"/>
<path opacity="0.2" fill-rule="evenodd" clip-rule="evenodd" d="M229.598 108C229.598 167.29 181.534 215.354 122.245 215.354C62.9546 215.354 14.8906 167.29 14.8906 108C14.8906 48.71 62.9546 0.645996 122.245 0.645996C181.534 0.645996 229.598 48.71 229.598 108Z" fill="url(#paint0_linear_2922_42373)"/>
<path fill-rule="evenodd" clip-rule="evenodd" d="M74.4658 114.886H70.9018V120.377C70.9018 122.833 70.2275 124.663 68.879 125.964C67.5304 127.264 65.7484 127.89 63.5811 127.89C61.4138 127.89 59.6318 127.264 58.2833 125.964C56.9347 124.663 56.2604 122.833 56.2604 120.377V114.886H32.9499C30.9752 114.886 29.3858 114.308 28.2299 113.104C27.074 111.9 26.4961 110.407 26.4961 108.625C26.4961 106.843 27.1222 105.013 28.3263 103.231L56.9829 62.2931C57.7535 61.1854 58.7167 60.3666 59.8726 59.8368C61.0285 59.307 62.2326 59.0181 63.5329 59.0181C65.5076 59.0181 67.2414 59.6923 68.7345 60.9927C70.2275 62.2931 70.95 64.1233 70.95 66.4351V103.424H74.514C79.1376 103.472 81.4975 105.35 81.4975 109.107C81.4975 112.96 79.1376 114.886 74.4658 114.886ZM56.3086 82.3287L41.6191 103.472H56.3086V82.3287Z" fill="#151146"/>
<path fill-rule="evenodd" clip-rule="evenodd" d="M205.42 114.886H201.856V120.377C201.856 122.833 201.182 124.663 199.833 125.964C198.485 127.264 196.703 127.89 194.536 127.89C192.368 127.89 190.586 127.264 189.238 125.964C187.889 124.663 187.215 122.833 187.215 120.377V114.886H163.856C161.881 114.886 160.292 114.308 159.136 113.104C157.98 111.9 157.402 110.407 157.402 108.625C157.402 106.843 158.028 105.013 159.233 103.231L187.889 62.2931C188.66 61.1854 189.623 60.3666 190.779 59.8368C191.935 59.307 193.139 59.0181 194.439 59.0181C196.414 59.0181 198.148 59.6923 199.641 60.9927C201.134 62.2931 201.856 64.1233 201.856 66.4351V103.424H205.42C210.092 103.472 212.452 105.35 212.452 109.107C212.452 112.96 210.092 114.886 205.42 114.886ZM187.263 82.3287L172.573 103.472H187.263V82.3287Z" fill="#151146"/>
<path fill-rule="evenodd" clip-rule="evenodd" d="M148.732 91.3361C148.732 107.775 135.406 121.1 118.967 121.1C102.529 121.1 89.2031 107.775 89.2031 91.3361C89.2031 74.8977 102.529 61.5718 118.967 61.5718C135.406 61.5718 148.732 74.8977 148.732 91.3361C148.732 107.775 148.732 91.3361 148.732 91.3361Z" fill="#151146"/>
<path d="M102.74 107.518C101.295 106.073 101.295 103.713 102.74 102.268L129.903 75.1046C131.348 73.6598 133.708 73.6598 135.153 75.1046C136.598 76.5495 136.598 78.9095 135.153 80.3543L108.038 107.566C107.315 108.289 106.352 108.626 105.389 108.626C104.426 108.626 103.511 108.24 102.74 107.518Z" fill="white"/>
<path d="M36.4674 133.91C37.4788 125.626 42.6321 121.581 42.873 121.388L44.4141 123.411L43.6435 122.4L44.4141 123.411C44.366 123.459 39.8387 127.071 38.9718 134.248C38.0567 142.05 41.5726 151.008 49.4712 160.881L47.4965 162.519C39.1644 152.068 35.4559 142.435 36.4674 133.91Z" fill="#E2E2E2"/>
<path d="M44.606 123.942L46.2435 122.931C47.0623 122.401 47.2549 121.294 46.677 120.523L46.4843 120.282C45.9064 119.56 44.7987 119.463 44.1244 120.089L42.6795 121.39C41.9089 121.968 41.9089 123.172 42.6795 123.798C43.2093 124.28 44.0281 124.328 44.606 123.942Z" fill="#102C56"/>
<path d="M65.2656 163.483C75.8613 156.596 82.0261 149.179 83.6155 141.425C85.0604 134.297 81.9298 129.529 81.8816 129.481L84.0008 128.036C84.1453 128.276 87.8056 133.767 86.1199 141.906C84.3861 150.383 77.836 158.33 66.6623 165.65L65.2656 163.483Z" fill="#E2E2E2"/>
<path d="M81.5955 129.913L80.3433 128.42C79.7172 127.65 79.9099 126.542 80.7286 125.964L81.0176 125.771C81.7882 125.241 82.8959 125.53 83.3294 126.349L84.2926 128.035C84.7742 128.902 84.3889 130.01 83.4739 130.395C82.7996 130.684 82.029 130.491 81.5955 129.913Z" fill="#102C56"/>
<path fill-rule="evenodd" clip-rule="evenodd" d="M138.085 133.455C143.003 135.017 145.724 140.27 144.162 145.188C142.6 150.106 137.347 152.827 132.429 151.265C127.51 149.703 124.79 144.45 126.352 139.532C127.914 134.613 133.167 131.893 138.085 133.455C143.003 135.017 138.085 133.455 138.085 133.455Z" fill="#EF4C27"/>
<path d="M92.6227 158.859L74.7063 184.241C72.1537 187.853 67.4819 189.25 63.34 187.612C59.3906 186.071 56.9825 182.17 57.3197 177.98L57.6086 173.934C59.4388 173.886 61.269 173.404 62.8583 172.441C63.1473 172.248 63.4363 172.104 63.7253 171.911C66.0852 170.226 67.6264 167.721 68.0599 164.88C68.2044 163.916 67.5301 163.001 66.5668 162.809C65.6036 162.664 64.6885 163.338 64.4959 164.302C64.2069 166.228 63.1473 167.866 61.6061 169.022C60.0649 170.129 58.1384 170.611 56.2119 170.274C52.2626 169.648 49.6137 165.939 50.2398 161.99C50.3843 161.027 49.71 160.112 48.7468 159.919C47.7835 159.774 46.8684 160.449 46.6758 161.412C45.8089 166.758 49.0357 171.767 53.9965 173.404L53.6593 177.739C53.2259 183.518 56.5491 188.816 61.9433 190.984C65.8444 192.525 70.0827 192.091 73.5022 190.069C75.0916 189.153 76.4883 187.853 77.596 186.312L95.5124 160.93C103.363 149.853 116.126 143.64 129.708 144.411C130.719 144.459 131.538 143.688 131.586 142.725C131.682 141.762 130.96 140.895 129.949 140.847C115.163 140.028 101.196 146.771 92.6227 158.859Z" fill="#102C56"/>
<path fill-rule="evenodd" clip-rule="evenodd" d="M141.51 142.375C141.517 145.833 138.718 148.642 135.261 148.648C131.803 148.654 128.994 145.856 128.988 142.398C128.982 138.94 131.78 136.132 135.238 136.126C138.696 136.119 141.504 138.917 141.51 142.375C141.517 145.833 141.51 142.375 141.51 142.375Z" fill="#FFD18C"/>
<path d="M240 142.965C240 142.965 227.045 156.354 217.171 161.267C207.298 166.179 200.604 166.372 200.604 166.372L168.672 156.932C168.672 156.884 191.453 152.405 209.514 136.174L240 142.965Z" fill="#E2E2E2"/>
<path d="M239.952 142.917C239.952 142.917 226.322 155.343 215.919 159.533C205.516 163.771 198.533 163.482 198.533 163.482L165.156 152.02C165.156 152.068 189.045 149.13 208.069 134.2L239.952 142.917Z" fill="url(#paint1_linear_2922_42373)"/>
<path d="M152.827 40.1875L167.421 45.967C170.696 47.2674 172.285 50.9759 170.985 54.251C169.684 57.526 165.976 59.1154 162.701 57.815L148.108 52.0355C144.832 50.6869 143.243 46.9784 144.544 43.7516C145.844 40.4765 149.552 38.8872 152.827 40.1875Z" fill="#151146"/>
<path d="M167.371 45.9186L157.786 42.1138C161.061 43.4142 162.651 47.1227 161.35 50.3977C160.05 53.6727 156.341 55.2621 153.066 53.9617L162.651 57.7665C165.926 59.0669 169.634 57.4776 170.935 54.2025C172.235 50.9275 170.646 47.219 167.371 45.9186Z" fill="#EF4C27"/>
<path d="M15.2743 123.412L26.448 140.558C28.9524 144.411 27.8929 149.565 24.0399 152.069C20.1869 154.573 15.0335 153.514 12.5291 149.661L1.3554 132.467C-1.14905 128.662 -0.0894749 123.509 3.76351 121.004C7.6165 118.5 12.7699 119.559 15.2743 123.412Z" fill="#151146"/>
<path d="M26.4466 140.51L19.126 129.289C21.6304 133.142 20.5708 138.295 16.7178 140.799C12.8648 143.304 7.71147 142.244 5.20703 138.391L12.5277 149.613C15.0322 153.466 20.1855 154.526 24.0385 152.021C27.8915 149.517 28.9511 144.363 26.4466 140.51Z" fill="#EF4C27"/>
<path opacity="0.2" d="M87.0862 25.4016L85.5931 23.9568L91.6616 17.792L92.4804 18.6107C92.8657 18.9479 93.4436 18.9479 93.7807 18.6107C94.1179 18.2254 94.1179 17.6475 93.7807 17.3103L88.4829 12.1088C88.0976 11.7717 87.5196 11.7717 87.1825 12.1088C86.8454 12.4941 86.8454 13.0721 87.1825 13.4092L88.0012 14.228L81.9328 20.3927L80.4398 18.9479L80.1989 18.7071C79.8136 18.3699 79.2357 18.3699 78.8986 18.7071C78.5614 19.0924 78.5614 19.6703 78.8986 20.0074L79.1394 20.2483L61.1748 38.5499C60.6932 39.0316 60.5969 39.754 60.8858 40.332L62.3307 43.1254L50.7236 54.9733C50.4828 55.2141 50.4828 55.5513 50.7236 55.7921C50.9644 56.0329 51.3497 56.0329 51.5423 55.7921L63.1495 43.9923L65.991 45.3408C66.6172 45.6298 67.3396 45.4853 67.7731 45.0519L85.7376 26.702L85.9784 26.9428C86.3637 27.28 86.9417 27.28 87.2788 26.9428C87.7123 26.5575 87.7123 25.9796 87.327 25.6424L87.0862 25.4016Z" fill="#C2C2C2"/>
<path opacity="0.2" d="M139.725 19.0922C139.099 18.129 138.858 16.9249 139.003 15.769L139.147 14.6613H139.292C139.677 14.7094 140.062 14.4686 140.11 14.0352L140.544 11.1936C140.592 10.8083 140.351 10.423 139.918 10.3748L127.396 8.54465C127.01 8.49649 126.625 8.7373 126.577 9.17076L126.143 12.0123C126.095 12.3976 126.336 12.7829 126.769 12.8311H126.914L126.769 13.9388C126.577 15.0947 125.999 16.1543 125.132 16.8767L123.398 18.3698C122.868 18.8032 122.531 19.4293 122.435 20.1518L119.93 37.1049C119.738 38.2608 120.557 39.3686 121.761 39.5612L136.498 41.7285C137.654 41.9212 138.762 41.1024 138.955 39.8984L141.459 22.9452C141.507 22.3191 141.363 21.5967 140.977 21.0187L139.725 19.0922Z" fill="#C2C2C2"/>
<path opacity="0.2" d="M112.419 186.938C112.178 186.986 111.937 186.794 111.889 186.505L111.214 179.762C111.166 179.521 110.974 179.329 110.685 179.329L104.568 179.955C104.327 180.003 104.135 180.196 104.135 180.485L104.809 187.227C104.857 187.468 104.664 187.709 104.375 187.757L97.6327 188.431C97.3919 188.479 97.1992 188.672 97.1992 188.961L97.8253 195.078C97.8735 195.319 98.0661 195.511 98.3551 195.511L105.098 194.837C105.339 194.789 105.579 194.981 105.628 195.27L106.302 202.013C106.35 202.254 106.543 202.447 106.832 202.447L112.948 201.82C113.189 201.772 113.382 201.58 113.382 201.291L112.707 194.548C112.659 194.307 112.852 194.066 113.141 194.018L119.884 193.344C120.124 193.296 120.317 193.103 120.317 192.814L119.691 186.697C119.643 186.408 119.402 186.216 119.161 186.264L112.419 186.938Z" fill="#C2C2C2"/>
<path opacity="0.2" fill-rule="evenodd" clip-rule="evenodd" d="M153.868 169.866C155.797 171.045 156.405 173.565 155.227 175.494C154.048 177.423 151.528 178.032 149.599 176.853C147.669 175.674 147.061 173.154 148.24 171.225C149.419 169.296 151.939 168.687 153.868 169.866C155.797 171.045 153.868 169.866 153.868 169.866Z" fill="#C2C2C2"/>
<path opacity="0.2" d="M172.381 183.469L178.642 177.305C179.846 176.101 181.82 176.149 182.976 177.353C184.18 178.557 184.132 180.531 182.928 181.687L176.667 187.852C175.511 189.008 173.537 189.008 172.332 187.804C171.128 186.6 171.177 184.625 172.381 183.469Z" fill="#C2C2C2"/>
</g>
<path d="M98.6665 125.857V115.675H104.772V116.769H99.8995V120.209H104.314V121.303H99.8995V125.857H98.6665ZM106.642 125.857V118.221H107.776V119.374H107.855C107.994 118.996 108.246 118.69 108.611 118.454C108.976 118.219 109.387 118.101 109.844 118.101C109.93 118.101 110.038 118.103 110.167 118.106C110.296 118.11 110.394 118.115 110.46 118.121V119.315C110.421 119.305 110.329 119.29 110.187 119.27C110.048 119.247 109.9 119.235 109.744 119.235C109.373 119.235 109.042 119.313 108.75 119.469C108.462 119.621 108.233 119.833 108.064 120.105C107.898 120.374 107.816 120.68 107.816 121.025V125.857H106.642ZM114.721 126.016C114.032 126.016 113.427 125.852 112.906 125.524C112.389 125.196 111.985 124.737 111.693 124.147C111.405 123.557 111.261 122.868 111.261 122.079C111.261 121.283 111.405 120.589 111.693 119.996C111.985 119.402 112.389 118.942 112.906 118.614C113.427 118.285 114.032 118.121 114.721 118.121C115.41 118.121 116.014 118.285 116.531 118.614C117.051 118.942 117.455 119.402 117.744 119.996C118.035 120.589 118.181 121.283 118.181 122.079C118.181 122.868 118.035 123.557 117.744 124.147C117.455 124.737 117.051 125.196 116.531 125.524C116.014 125.852 115.41 126.016 114.721 126.016ZM114.721 124.962C115.245 124.962 115.676 124.828 116.014 124.56C116.352 124.291 116.602 123.938 116.764 123.501C116.927 123.063 117.008 122.589 117.008 122.079C117.008 121.568 116.927 121.093 116.764 120.652C116.602 120.211 116.352 119.855 116.014 119.583C115.676 119.311 115.245 119.175 114.721 119.175C114.197 119.175 113.767 119.311 113.428 119.583C113.09 119.855 112.84 120.211 112.678 120.652C112.515 121.093 112.434 121.568 112.434 122.079C112.434 122.589 112.515 123.063 112.678 123.501C112.84 123.938 113.09 124.291 113.428 124.56C113.767 124.828 114.197 124.962 114.721 124.962ZM125.381 119.931L124.327 120.229C124.261 120.054 124.163 119.883 124.034 119.717C123.908 119.548 123.736 119.409 123.517 119.3C123.298 119.19 123.018 119.136 122.677 119.136C122.21 119.136 121.82 119.243 121.509 119.459C121.2 119.671 121.046 119.941 121.046 120.269C121.046 120.561 121.152 120.791 121.364 120.96C121.576 121.129 121.908 121.27 122.359 121.383L123.492 121.661C124.175 121.827 124.684 122.08 125.018 122.422C125.353 122.76 125.521 123.196 125.521 123.729C125.521 124.167 125.395 124.558 125.143 124.903C124.894 125.247 124.546 125.519 124.099 125.718C123.651 125.917 123.131 126.016 122.538 126.016C121.759 126.016 121.114 125.847 120.604 125.509C120.093 125.171 119.77 124.677 119.634 124.028L120.748 123.749C120.854 124.16 121.054 124.468 121.349 124.674C121.648 124.879 122.037 124.982 122.518 124.982C123.065 124.982 123.499 124.866 123.82 124.634C124.145 124.399 124.308 124.117 124.308 123.789C124.308 123.524 124.215 123.302 124.029 123.123C123.844 122.941 123.558 122.805 123.174 122.715L121.901 122.417C121.202 122.251 120.688 121.994 120.36 121.646C120.035 121.295 119.873 120.856 119.873 120.329C119.873 119.898 119.994 119.517 120.236 119.185C120.481 118.854 120.814 118.594 121.235 118.405C121.659 118.216 122.14 118.121 122.677 118.121C123.433 118.121 124.026 118.287 124.457 118.619C124.891 118.95 125.199 119.387 125.381 119.931ZM130.608 118.221V119.215H126.65V118.221H130.608ZM127.804 116.391H128.977V123.67C128.977 124.001 129.025 124.25 129.121 124.415C129.221 124.578 129.347 124.687 129.499 124.744C129.655 124.797 129.819 124.823 129.991 124.823C130.121 124.823 130.227 124.816 130.309 124.803C130.392 124.787 130.459 124.773 130.508 124.763L130.747 125.817C130.667 125.847 130.556 125.877 130.414 125.907C130.271 125.94 130.091 125.957 129.872 125.957C129.541 125.957 129.216 125.885 128.898 125.743C128.583 125.6 128.321 125.383 128.112 125.092C127.907 124.8 127.804 124.432 127.804 123.988V116.391Z" fill="black"/>
<defs>
<linearGradient id="paint0_linear_2922_42373" x1="-16.0907" y1="0.645996" x2="-16.0907" y2="277.316" gradientUnits="userSpaceOnUse">
<stop stop-color="#C0C0C0"/>
<stop offset="1" stop-color="#F8F8F8"/>
</linearGradient>
<linearGradient id="paint1_linear_2922_42373" x1="173.544" y1="134.221" x2="170.658" y2="166.852" gradientUnits="userSpaceOnUse">
<stop stop-color="#D4D4D4"/>
<stop offset="1" stop-color="white"/>
</linearGradient>
<clipPath id="clip0_2922_42373">
<rect width="1920" height="1092" fill="white" transform="translate(-840 -447)"/>
</clipPath>
</defs>
</svg>
