<svg width="34" height="32" viewBox="0 0 34 32" fill="none" xmlns="http://www.w3.org/2000/svg">
<path d="M25.5101 32C25.5101 31.9553 24.7384 31.508 23.1952 30.6583C21.6519 29.8532 20.8576 29.4507 20.8122 29.4507C22.9909 25.8728 24.4207 23.167 25.1015 21.3333C25.7824 19.4996 26.1228 17.0398 26.1228 13.9539L19.7228 13.0818L19.7228 -1.19044e-06L33.3398 0L33.3398 6.50734C33.3398 8.51992 33.3398 9.92872 33.3398 10.7338C33.3398 11.5388 33.2945 12.8358 33.2037 14.6247C33.1129 16.4137 32.9767 17.7554 32.7952 18.6499C32.6136 19.5444 32.3413 20.7296 31.9781 22.2055C31.5696 23.6813 31.093 24.8889 30.5484 25.8281C30.0037 26.812 29.3001 27.863 28.4377 28.9811C27.5753 30.0992 26.5994 31.1055 25.5101 32Z" fill="#42E8E0"/>
<path d="M6.44658 32C6.44658 31.9553 5.67495 31.508 4.13169 30.6583C2.58842 29.8532 1.7941 29.4507 1.74871 29.4507C3.92743 25.8728 5.35722 23.167 6.03807 21.3333C6.71892 19.4996 7.05935 17.0398 7.05935 13.9539L0.659347 13.0818L0.659348 -1.19044e-06L14.2764 0L14.2764 6.50734C14.2764 8.51992 14.2764 9.92872 14.2764 10.7338C14.2764 11.5388 14.231 12.8358 14.1402 14.6247C14.0494 16.4137 13.9132 17.7554 13.7317 18.6499C13.5501 19.5444 13.2778 20.7296 12.9147 22.2055C12.5062 23.6813 12.0296 24.8889 11.4849 25.8281C10.9402 26.812 10.2367 27.863 9.37424 28.9811C8.51183 30.0992 7.53594 31.1055 6.44658 32Z" fill="#42E8E0"/>
</svg>
