<svg width="34" height="32" viewBox="0 0 34 32" fill="none" xmlns="http://www.w3.org/2000/svg">
<path d="M8.48946 0C8.48946 0.044724 9.26109 0.491964 10.8043 1.34172C12.3476 2.14675 13.1419 2.54927 13.1873 2.54927C11.0086 6.12718 9.57882 8.83298 8.89797 10.6667C8.21711 12.5003 7.87669 14.9602 7.87669 18.0461L14.2767 18.9182V32H0.659668V25.4927C0.659668 23.4801 0.659668 22.0713 0.659668 21.2662C0.659668 20.4612 0.705058 19.1642 0.795838 17.3753C0.886618 15.5863 1.02279 14.2446 1.20435 13.3501C1.38591 12.4556 1.65825 11.2704 2.02137 9.79455C2.42988 8.31866 2.90648 7.11111 3.45116 6.17191C3.99584 5.18798 4.69938 4.13697 5.5618 3.01887C6.42421 1.90077 7.40009 0.894479 8.48946 0Z" fill="#42E8E0"/>
<path d="M27.5529 0C27.5529 0.044724 28.3246 0.491964 29.8678 1.34172C31.4111 2.14675 32.2054 2.54927 32.2508 2.54927C30.0721 6.12718 28.6423 8.83298 27.9614 10.6667C27.2806 12.5003 26.9402 14.9602 26.9402 18.0461L33.3402 18.9182V32H19.7231V25.4927C19.7231 23.4801 19.7231 22.0713 19.7231 21.2662C19.7231 20.4612 19.7685 19.1642 19.8593 17.3753C19.9501 15.5863 20.0863 14.2446 20.2678 13.3501C20.4494 12.4556 20.7217 11.2704 21.0848 9.79455C21.4934 8.31866 21.97 7.11111 22.5146 6.17191C23.0593 5.18798 23.7629 4.13697 24.6253 3.01887C25.4877 1.90077 26.4636 0.894479 27.5529 0Z" fill="#42E8E0"/>
</svg>
