<svg width="99" height="36" viewBox="0 0 99 36" fill="none" xmlns="http://www.w3.org/2000/svg">
<path d="M2.00598 25.5V1.29203H6.76598L8.80598 6.39203V25.5H2.00598ZM18.666 25.5L4.62398 7.85403L6.76598 1.29203L20.808 18.938L18.666 25.5ZM18.666 25.5L16.966 20.128V1.29203H23.766V25.5H18.666ZM39.7396 25.908C37.881 25.908 36.147 25.602 34.5376 24.99C32.951 24.3553 31.557 23.4713 30.3556 22.338C29.1543 21.2047 28.2136 19.8787 27.5336 18.36C26.8763 16.8187 26.5476 15.1527 26.5476 13.362C26.5476 11.5487 26.8763 9.88273 27.5336 8.36403C28.2136 6.84533 29.143 5.53073 30.3216 4.42003C31.523 3.30936 32.917 2.44803 34.5036 1.83603C36.0903 1.20136 37.813 0.884033 39.6716 0.884033C41.553 0.884033 43.2756 1.1787 44.8396 1.76803C46.4036 2.35736 47.7636 3.17336 48.9196 4.21603L44.3976 8.77203C43.8536 8.18273 43.185 7.71803 42.3916 7.37803C41.621 7.03803 40.7143 6.86803 39.6716 6.86803C38.765 6.86803 37.9263 7.01533 37.1556 7.31003C36.4076 7.60473 35.7616 8.03533 35.2176 8.60203C34.6736 9.16873 34.243 9.86003 33.9256 10.676C33.631 11.4693 33.4836 12.3647 33.4836 13.362C33.4836 14.382 33.631 15.3 33.9256 16.116C34.243 16.9093 34.6736 17.5893 35.2176 18.156C35.7616 18.7227 36.4076 19.1647 37.1556 19.482C37.9263 19.7767 38.765 19.924 39.6716 19.924C40.6916 19.924 41.5983 19.7653 42.3916 19.448C43.2076 19.1307 43.9103 18.666 44.4996 18.054L49.0556 22.61C47.8543 23.6527 46.5056 24.4687 45.0096 25.058C43.5136 25.6247 41.757 25.908 39.7396 25.908ZM51.4123 25.5V1.29203H58.2123V25.5H51.4123ZM66.0323 25.5V1.29203H72.8323V25.5H66.0323ZM55.1183 15.98V10.336H68.6843V15.98H55.1183ZM88.8138 25.908C86.9552 25.908 85.2212 25.602 83.6118 24.99C82.0252 24.3553 80.6312 23.4713 79.4298 22.338C78.2285 21.2047 77.2878 19.8787 76.6078 18.36C75.9505 16.8187 75.6218 15.1527 75.6218 13.362C75.6218 11.5487 75.9505 9.88273 76.6078 8.36403C77.2878 6.84533 78.2172 5.53073 79.3958 4.42003C80.5972 3.30936 81.9912 2.44803 83.5778 1.83603C85.1645 1.20136 86.8872 0.884033 88.7458 0.884033C90.6272 0.884033 92.3498 1.1787 93.9138 1.76803C95.4778 2.35736 96.8378 3.17336 97.9938 4.21603L93.4718 8.77203C92.9278 8.18273 92.2592 7.71803 91.4658 7.37803C90.6952 7.03803 89.7885 6.86803 88.7458 6.86803C87.8392 6.86803 87.0005 7.01533 86.2298 7.31003C85.4818 7.60473 84.8358 8.03533 84.2918 8.60203C83.7478 9.16873 83.3172 9.86003 82.9998 10.676C82.7052 11.4693 82.5578 12.3647 82.5578 13.362C82.5578 14.382 82.7052 15.3 82.9998 16.116C83.3172 16.9093 83.7478 17.5893 84.2918 18.156C84.8358 18.7227 85.4818 19.1647 86.2298 19.482C87.0005 19.7767 87.8392 19.924 88.7458 19.924C89.7658 19.924 90.6725 19.7653 91.4658 19.448C92.2818 19.1307 92.9845 18.666 93.5738 18.054L98.1298 22.61C96.9285 23.6527 95.5798 24.4687 94.0838 25.058C92.5878 25.6247 90.8312 25.908 88.8138 25.908Z" fill="black"/>
<path d="M0.380005 35.5V32H0.780005L0.955005 32.66V35.5H0.380005ZM2.80501 35.5L0.710005 32.7649L0.780005 32L2.875 34.735L2.80501 35.5ZM2.80501 35.5L2.63 34.8849V32H3.205V35.5H2.80501ZM3.80399 35.5L5.24398 32H5.64398L7.07398 35.5H6.45398L5.33398 32.665H5.54398L4.41398 35.5H3.80399ZM4.51398 34.825V34.325H6.36898V34.825H4.51398ZM8.07133 35.5V32.0999H8.64633V35.5H8.07133ZM6.93133 32.525V32H9.78633V32.525H6.93133ZM10.387 35.5V32H10.962V35.5H10.387ZM13.43 35.5499C13.18 35.5499 12.9467 35.5033 12.73 35.41C12.5134 35.3167 12.3234 35.1883 12.16 35.025C11.9967 34.8583 11.8684 34.6667 11.775 34.45C11.685 34.23 11.64 33.9949 11.64 33.7449C11.64 33.4949 11.685 33.2616 11.775 33.0449C11.8684 32.8282 11.995 32.6382 12.155 32.4749C12.3184 32.3082 12.5067 32.18 12.72 32.09C12.9367 31.9967 13.17 31.95 13.42 31.95C13.67 31.95 13.9017 31.9967 14.115 32.09C14.3317 32.18 14.5217 32.3082 14.685 32.4749C14.8484 32.6382 14.975 32.8299 15.065 33.0499C15.1584 33.2666 15.205 33.5 15.205 33.75C15.205 34 15.1584 34.235 15.065 34.455C14.975 34.6717 14.8484 34.8617 14.685 35.025C14.525 35.1883 14.3367 35.3167 14.12 35.41C13.9067 35.5033 13.6767 35.5499 13.43 35.5499ZM13.42 35C13.6567 35 13.8634 34.9467 14.04 34.84C14.22 34.7333 14.36 34.5867 14.46 34.4C14.5634 34.21 14.615 33.9916 14.615 33.7449C14.615 33.5616 14.585 33.3949 14.525 33.2449C14.4684 33.0916 14.3867 32.9599 14.28 32.8499C14.1734 32.7366 14.0467 32.65 13.9 32.59C13.7567 32.53 13.5967 32.5 13.42 32.5C13.1867 32.5 12.98 32.5533 12.8 32.66C12.6234 32.7633 12.4834 32.9083 12.38 33.095C12.28 33.2817 12.23 33.4982 12.23 33.7449C12.23 33.9282 12.2584 34.0983 12.315 34.255C12.375 34.4083 12.4567 34.54 12.56 34.65C12.6667 34.76 12.7934 34.8467 12.94 34.91C13.0867 34.97 13.2467 35 13.42 35ZM15.8898 35.5V32H16.2898L16.4648 32.66V35.5H15.8898ZM18.3148 35.5L16.2198 32.7649L16.2898 32L18.3848 34.735L18.3148 35.5ZM18.3148 35.5L18.1398 34.8849V32H18.7148V35.5H18.3148ZM19.3138 35.5L20.7538 32H21.1538L22.5838 35.5H21.9638L20.8438 32.665H21.0538L19.9238 35.5H19.3138ZM20.0238 34.825V34.325H21.8788V34.825H20.0238ZM23.1454 35.5V32H23.7204V35.5H23.1454ZM23.5404 35.5V34.9749H25.3704V35.5H23.5404ZM28.6464 35.5499C28.393 35.5499 28.158 35.505 27.9414 35.415C27.728 35.3217 27.5414 35.1932 27.3814 35.0299C27.2214 34.8632 27.098 34.6717 27.0114 34.455C26.9247 34.235 26.8814 34 26.8814 33.75C26.8814 33.5 26.9247 33.2666 27.0114 33.0499C27.098 32.8299 27.2214 32.6382 27.3814 32.4749C27.5414 32.3116 27.728 32.1833 27.9414 32.09C28.158 31.9967 28.393 31.95 28.6464 31.95C28.9297 31.95 29.1747 31.9967 29.3814 32.09C29.588 32.1833 29.7714 32.31 29.9314 32.47L29.5414 32.86C29.438 32.7467 29.3114 32.6583 29.1614 32.595C29.0147 32.5317 28.843 32.5 28.6464 32.5C28.473 32.5 28.3147 32.53 28.1714 32.59C28.028 32.65 27.903 32.7366 27.7964 32.8499C27.693 32.9599 27.613 33.0916 27.5564 33.2449C27.4997 33.3982 27.4714 33.5667 27.4714 33.75C27.4714 33.9333 27.4997 34.1017 27.5564 34.255C27.613 34.4083 27.693 34.5416 27.7964 34.6549C27.903 34.7649 28.028 34.85 28.1714 34.91C28.3147 34.97 28.473 35 28.6464 35C28.8597 35 29.0397 34.9682 29.1864 34.9049C29.3364 34.8382 29.463 34.7482 29.5664 34.6349L29.9564 35.025C29.7964 35.1883 29.608 35.3167 29.3914 35.41C29.1747 35.5033 28.9264 35.5499 28.6464 35.5499ZM32.0379 35.5499C31.7879 35.5499 31.5545 35.5033 31.3379 35.41C31.1212 35.3167 30.9312 35.1883 30.7679 35.025C30.6045 34.8583 30.4762 34.6667 30.3829 34.45C30.2929 34.23 30.2479 33.9949 30.2479 33.7449C30.2479 33.4949 30.2929 33.2616 30.3829 33.0449C30.4762 32.8282 30.6029 32.6382 30.7629 32.4749C30.9262 32.3082 31.1145 32.18 31.3279 32.09C31.5445 31.9967 31.7779 31.95 32.0279 31.95C32.2779 31.95 32.5095 31.9967 32.7229 32.09C32.9395 32.18 33.1295 32.3082 33.2929 32.4749C33.4562 32.6382 33.5829 32.8299 33.6729 33.0499C33.7662 33.2666 33.8129 33.5 33.8129 33.75C33.8129 34 33.7662 34.235 33.6729 34.455C33.5829 34.6717 33.4562 34.8617 33.2929 35.025C33.1329 35.1883 32.9445 35.3167 32.7279 35.41C32.5145 35.5033 32.2845 35.5499 32.0379 35.5499ZM32.0279 35C32.2645 35 32.4712 34.9467 32.6479 34.84C32.8279 34.7333 32.9679 34.5867 33.0679 34.4C33.1712 34.21 33.2229 33.9916 33.2229 33.7449C33.2229 33.5616 33.1929 33.3949 33.1329 33.2449C33.0762 33.0916 32.9945 32.9599 32.8879 32.8499C32.7812 32.7366 32.6545 32.65 32.5079 32.59C32.3645 32.53 32.2045 32.5 32.0279 32.5C31.7945 32.5 31.5879 32.5533 31.4079 32.66C31.2312 32.7633 31.0912 32.9083 30.9879 33.095C30.8879 33.2817 30.8379 33.4982 30.8379 33.7449C30.8379 33.9282 30.8662 34.0983 30.9229 34.255C30.9829 34.4083 31.0645 34.54 31.1679 34.65C31.2745 34.76 31.4012 34.8467 31.5479 34.91C31.6945 34.97 31.8545 35 32.0279 35ZM33.9886 35.5L35.4286 32H35.8286L37.2586 35.5H36.6386L35.5186 32.665H35.7286L34.5986 35.5H33.9886ZM34.6986 34.825V34.325H36.5536V34.825H34.6986ZM37.8202 35.5V32H38.3952V35.5H37.8202ZM38.2152 35.5V34.9749H40.0452V35.5H38.2152ZM40.6693 35.5V32H41.2443V35.5H40.6693ZM42.9823 35.5V32.0999H43.5573V35.5H42.9823ZM41.8423 32.525V32H44.6973V32.525H41.8423ZM45.298 35.5V32H45.873V35.5H45.298ZM48.341 35.5499C48.091 35.5499 47.8576 35.5033 47.641 35.41C47.4243 35.3167 47.2343 35.1883 47.071 35.025C46.9076 34.8583 46.7793 34.6667 46.686 34.45C46.596 34.23 46.551 33.9949 46.551 33.7449C46.551 33.4949 46.596 33.2616 46.686 33.0449C46.7793 32.8282 46.906 32.6382 47.066 32.4749C47.2293 32.3082 47.4176 32.18 47.631 32.09C47.8476 31.9967 48.081 31.95 48.331 31.95C48.581 31.95 48.8126 31.9967 49.026 32.09C49.2426 32.18 49.4326 32.3082 49.596 32.4749C49.7593 32.6382 49.886 32.8299 49.976 33.0499C50.0693 33.2666 50.116 33.5 50.116 33.75C50.116 34 50.0693 34.235 49.976 34.455C49.886 34.6717 49.7593 34.8617 49.596 35.025C49.436 35.1883 49.2476 35.3167 49.031 35.41C48.8176 35.5033 48.5876 35.5499 48.341 35.5499ZM48.331 35C48.5676 35 48.7743 34.9467 48.951 34.84C49.131 34.7333 49.271 34.5867 49.371 34.4C49.4743 34.21 49.526 33.9916 49.526 33.7449C49.526 33.5616 49.496 33.3949 49.436 33.2449C49.3793 33.0916 49.2976 32.9599 49.191 32.8499C49.0843 32.7366 48.9576 32.65 48.811 32.59C48.6676 32.53 48.5076 32.5 48.331 32.5C48.0976 32.5 47.891 32.5533 47.711 32.66C47.5343 32.7633 47.3943 32.9083 47.291 33.095C47.191 33.2817 47.141 33.4982 47.141 33.7449C47.141 33.9282 47.1693 34.0983 47.226 34.255C47.286 34.4083 47.3676 34.54 47.471 34.65C47.5776 34.76 47.7043 34.8467 47.851 34.91C47.9976 34.97 48.1576 35 48.331 35ZM50.8007 35.5V32H51.2007L51.3757 32.66V35.5H50.8007ZM53.2257 35.5L51.1307 32.7649L51.2007 32L53.2957 34.735L53.2257 35.5ZM53.2257 35.5L53.0507 34.8849V32H53.6257V35.5H53.2257ZM57.1957 35.5499C56.9457 35.5499 56.7123 35.5033 56.4957 35.41C56.279 35.3167 56.089 35.1883 55.9257 35.025C55.7623 34.8583 55.634 34.6667 55.5407 34.45C55.4507 34.23 55.4057 33.9949 55.4057 33.7449C55.4057 33.4949 55.4507 33.2616 55.5407 33.0449C55.634 32.8282 55.7607 32.6382 55.9207 32.4749C56.084 32.3082 56.2723 32.18 56.4857 32.09C56.7023 31.9967 56.9357 31.95 57.1857 31.95C57.4357 31.95 57.6673 31.9967 57.8807 32.09C58.0973 32.18 58.2873 32.3082 58.4507 32.4749C58.614 32.6382 58.7407 32.8299 58.8307 33.0499C58.924 33.2666 58.9707 33.5 58.9707 33.75C58.9707 34 58.924 34.235 58.8307 34.455C58.7407 34.6717 58.614 34.8617 58.4507 35.025C58.2907 35.1883 58.1023 35.3167 57.8857 35.41C57.6723 35.5033 57.4423 35.5499 57.1957 35.5499ZM57.1857 35C57.4223 35 57.629 34.9467 57.8057 34.84C57.9857 34.7333 58.1257 34.5867 58.2257 34.4C58.329 34.21 58.3807 33.9916 58.3807 33.7449C58.3807 33.5616 58.3507 33.3949 58.2907 33.2449C58.234 33.0916 58.1523 32.9599 58.0457 32.8499C57.939 32.7366 57.8123 32.65 57.6657 32.59C57.5223 32.53 57.3623 32.5 57.1857 32.5C56.9523 32.5 56.7457 32.5533 56.5657 32.66C56.389 32.7633 56.249 32.9083 56.1457 33.095C56.0457 33.2817 55.9957 33.4982 55.9957 33.7449C55.9957 33.9282 56.024 34.0983 56.0807 34.255C56.1407 34.4083 56.2223 34.54 56.3257 34.65C56.4323 34.76 56.559 34.8467 56.7057 34.91C56.8523 34.97 57.0123 35 57.1857 35ZM59.6554 35.5V32H60.0554L60.2304 32.66V35.5H59.6554ZM62.0804 35.5L59.9854 32.7649L60.0554 32L62.1504 34.735L62.0804 35.5ZM62.0804 35.5L61.9054 34.8849V32H62.4804V35.5H62.0804ZM64.4403 35.5V32H65.0153V35.5H64.4403ZM66.6653 35.5V32H67.2403V35.5H66.6653ZM64.8353 33.95V33.4249H66.7903V33.95H64.8353ZM68.0999 35.5V32H68.6749V35.5H68.0999ZM68.4949 35.5V34.9749H70.4549V35.5H68.4949ZM68.4949 33.965V33.4599H70.2849V33.965H68.4949ZM68.4949 32.525V32H70.4299V32.525H68.4949ZM70.8891 35.5L72.3291 32H72.7291L74.1591 35.5H73.5391L72.4191 32.665H72.6291L71.4991 35.5H70.8891ZM71.5991 34.825V34.325H73.4541V34.825H71.5991ZM74.7208 35.5V32H75.2958V35.5H74.7208ZM75.1158 35.5V34.9749H76.9458V35.5H75.1158ZM78.0202 35.5V32.0999H78.5952V35.5H78.0202ZM76.8802 32.525V32H79.7352V32.525H76.8802ZM80.3359 35.5V32H80.9109V35.5H80.3359ZM82.5609 35.5V32H83.1359V35.5H82.5609ZM80.7309 33.95V33.4249H82.6859V33.95H80.7309ZM86.6864 35.5499C86.4331 35.5499 86.1981 35.505 85.9814 35.415C85.7681 35.3217 85.5814 35.1932 85.4214 35.0299C85.2614 34.8632 85.1381 34.6717 85.0514 34.455C84.9647 34.235 84.9214 34 84.9214 33.75C84.9214 33.5 84.9647 33.2666 85.0514 33.0499C85.1381 32.8299 85.2614 32.6382 85.4214 32.4749C85.5814 32.3116 85.7681 32.1833 85.9814 32.09C86.1981 31.9967 86.4331 31.95 86.6864 31.95C86.9697 31.95 87.2147 31.9967 87.4214 32.09C87.6281 32.1833 87.8114 32.31 87.9714 32.47L87.5814 32.86C87.4781 32.7467 87.3514 32.6583 87.2014 32.595C87.0547 32.5317 86.8831 32.5 86.6864 32.5C86.5131 32.5 86.3547 32.53 86.2114 32.59C86.0681 32.65 85.9431 32.7366 85.8364 32.8499C85.7331 32.9599 85.6531 33.0916 85.5964 33.2449C85.5397 33.3982 85.5114 33.5667 85.5114 33.75C85.5114 33.9333 85.5397 34.1017 85.5964 34.255C85.6531 34.4083 85.7331 34.5416 85.8364 34.6549C85.9431 34.7649 86.0681 34.85 86.2114 34.91C86.3547 34.97 86.5131 35 86.6864 35C86.8997 35 87.0797 34.9682 87.2264 34.9049C87.3764 34.8382 87.5031 34.7482 87.6064 34.6349L87.9964 35.025C87.8364 35.1883 87.6481 35.3167 87.4314 35.41C87.2147 35.5033 86.9664 35.5499 86.6864 35.5499ZM88.2616 35.5L89.7016 32H90.1016L91.5316 35.5H90.9116L89.7916 32.665H90.0016L88.8716 35.5H88.2616ZM88.9716 34.825V34.325H90.8266V34.825H88.9716ZM92.4883 34.0149V33.54H93.3733C93.5499 33.54 93.6866 33.4949 93.7833 33.4049C93.8833 33.3116 93.9333 33.1833 93.9333 33.02C93.9333 32.8733 93.8849 32.75 93.7883 32.65C93.6916 32.55 93.5549 32.5 93.3783 32.5H92.4883V32H93.4033C93.6233 32 93.8166 32.0449 93.9833 32.1349C94.1499 32.2216 94.2783 32.3416 94.3683 32.4949C94.4616 32.6449 94.5083 32.8166 94.5083 33.0099C94.5083 33.2132 94.4616 33.39 94.3683 33.54C94.2783 33.69 94.1499 33.8066 93.9833 33.8899C93.8166 33.9732 93.6233 34.0149 93.4033 34.0149H92.4883ZM92.0933 35.5V32H92.6683V35.5H92.0933ZM94.0133 35.5L92.7883 33.9799L93.3233 33.785L94.7383 35.5H94.0133ZM95.2646 35.5V32H95.8396V35.5H95.2646ZM95.6596 35.5V34.9749H97.6196V35.5H95.6596ZM95.6596 33.965V33.4599H97.4496V33.965H95.6596ZM95.6596 32.525V32H97.5946V32.525H95.6596Z" fill="#42E8E0"/>
<path d="M0.380005 35.5V32H0.780005L0.955005 32.66V35.5H0.380005ZM2.80501 35.5L0.710005 32.7649L0.780005 32L2.875 34.735L2.80501 35.5ZM2.80501 35.5L2.63 34.8849V32H3.205V35.5H2.80501ZM3.80399 35.5L5.24398 32H5.64398L7.07398 35.5H6.45398L5.33398 32.665H5.54398L4.41398 35.5H3.80399ZM4.51398 34.825V34.325H6.36898V34.825H4.51398ZM8.07133 35.5V32.0999H8.64633V35.5H8.07133ZM6.93133 32.525V32H9.78633V32.525H6.93133ZM10.387 35.5V32H10.962V35.5H10.387ZM13.43 35.5499C13.18 35.5499 12.9467 35.5033 12.73 35.41C12.5134 35.3167 12.3234 35.1883 12.16 35.025C11.9967 34.8583 11.8684 34.6667 11.775 34.45C11.685 34.23 11.64 33.9949 11.64 33.7449C11.64 33.4949 11.685 33.2616 11.775 33.0449C11.8684 32.8282 11.995 32.6382 12.155 32.4749C12.3184 32.3082 12.5067 32.18 12.72 32.09C12.9367 31.9967 13.17 31.95 13.42 31.95C13.67 31.95 13.9017 31.9967 14.115 32.09C14.3317 32.18 14.5217 32.3082 14.685 32.4749C14.8484 32.6382 14.975 32.8299 15.065 33.0499C15.1584 33.2666 15.205 33.5 15.205 33.75C15.205 34 15.1584 34.235 15.065 34.455C14.975 34.6717 14.8484 34.8617 14.685 35.025C14.525 35.1883 14.3367 35.3167 14.12 35.41C13.9067 35.5033 13.6767 35.5499 13.43 35.5499ZM13.42 35C13.6567 35 13.8634 34.9467 14.04 34.84C14.22 34.7333 14.36 34.5867 14.46 34.4C14.5634 34.21 14.615 33.9916 14.615 33.7449C14.615 33.5616 14.585 33.3949 14.525 33.2449C14.4684 33.0916 14.3867 32.9599 14.28 32.8499C14.1734 32.7366 14.0467 32.65 13.9 32.59C13.7567 32.53 13.5967 32.5 13.42 32.5C13.1867 32.5 12.98 32.5533 12.8 32.66C12.6234 32.7633 12.4834 32.9083 12.38 33.095C12.28 33.2817 12.23 33.4982 12.23 33.7449C12.23 33.9282 12.2584 34.0983 12.315 34.255C12.375 34.4083 12.4567 34.54 12.56 34.65C12.6667 34.76 12.7934 34.8467 12.94 34.91C13.0867 34.97 13.2467 35 13.42 35ZM15.8898 35.5V32H16.2898L16.4648 32.66V35.5H15.8898ZM18.3148 35.5L16.2198 32.7649L16.2898 32L18.3848 34.735L18.3148 35.5ZM18.3148 35.5L18.1398 34.8849V32H18.7148V35.5H18.3148ZM19.3138 35.5L20.7538 32H21.1538L22.5838 35.5H21.9638L20.8438 32.665H21.0538L19.9238 35.5H19.3138ZM20.0238 34.825V34.325H21.8788V34.825H20.0238ZM23.1454 35.5V32H23.7204V35.5H23.1454ZM23.5404 35.5V34.9749H25.3704V35.5H23.5404ZM28.6464 35.5499C28.393 35.5499 28.158 35.505 27.9414 35.415C27.728 35.3217 27.5414 35.1932 27.3814 35.0299C27.2214 34.8632 27.098 34.6717 27.0114 34.455C26.9247 34.235 26.8814 34 26.8814 33.75C26.8814 33.5 26.9247 33.2666 27.0114 33.0499C27.098 32.8299 27.2214 32.6382 27.3814 32.4749C27.5414 32.3116 27.728 32.1833 27.9414 32.09C28.158 31.9967 28.393 31.95 28.6464 31.95C28.9297 31.95 29.1747 31.9967 29.3814 32.09C29.588 32.1833 29.7714 32.31 29.9314 32.47L29.5414 32.86C29.438 32.7467 29.3114 32.6583 29.1614 32.595C29.0147 32.5317 28.843 32.5 28.6464 32.5C28.473 32.5 28.3147 32.53 28.1714 32.59C28.028 32.65 27.903 32.7366 27.7964 32.8499C27.693 32.9599 27.613 33.0916 27.5564 33.2449C27.4997 33.3982 27.4714 33.5667 27.4714 33.75C27.4714 33.9333 27.4997 34.1017 27.5564 34.255C27.613 34.4083 27.693 34.5416 27.7964 34.6549C27.903 34.7649 28.028 34.85 28.1714 34.91C28.3147 34.97 28.473 35 28.6464 35C28.8597 35 29.0397 34.9682 29.1864 34.9049C29.3364 34.8382 29.463 34.7482 29.5664 34.6349L29.9564 35.025C29.7964 35.1883 29.608 35.3167 29.3914 35.41C29.1747 35.5033 28.9264 35.5499 28.6464 35.5499ZM32.0379 35.5499C31.7879 35.5499 31.5545 35.5033 31.3379 35.41C31.1212 35.3167 30.9312 35.1883 30.7679 35.025C30.6045 34.8583 30.4762 34.6667 30.3829 34.45C30.2929 34.23 30.2479 33.9949 30.2479 33.7449C30.2479 33.4949 30.2929 33.2616 30.3829 33.0449C30.4762 32.8282 30.6029 32.6382 30.7629 32.4749C30.9262 32.3082 31.1145 32.18 31.3279 32.09C31.5445 31.9967 31.7779 31.95 32.0279 31.95C32.2779 31.95 32.5095 31.9967 32.7229 32.09C32.9395 32.18 33.1295 32.3082 33.2929 32.4749C33.4562 32.6382 33.5829 32.8299 33.6729 33.0499C33.7662 33.2666 33.8129 33.5 33.8129 33.75C33.8129 34 33.7662 34.235 33.6729 34.455C33.5829 34.6717 33.4562 34.8617 33.2929 35.025C33.1329 35.1883 32.9445 35.3167 32.7279 35.41C32.5145 35.5033 32.2845 35.5499 32.0379 35.5499ZM32.0279 35C32.2645 35 32.4712 34.9467 32.6479 34.84C32.8279 34.7333 32.9679 34.5867 33.0679 34.4C33.1712 34.21 33.2229 33.9916 33.2229 33.7449C33.2229 33.5616 33.1929 33.3949 33.1329 33.2449C33.0762 33.0916 32.9945 32.9599 32.8879 32.8499C32.7812 32.7366 32.6545 32.65 32.5079 32.59C32.3645 32.53 32.2045 32.5 32.0279 32.5C31.7945 32.5 31.5879 32.5533 31.4079 32.66C31.2312 32.7633 31.0912 32.9083 30.9879 33.095C30.8879 33.2817 30.8379 33.4982 30.8379 33.7449C30.8379 33.9282 30.8662 34.0983 30.9229 34.255C30.9829 34.4083 31.0645 34.54 31.1679 34.65C31.2745 34.76 31.4012 34.8467 31.5479 34.91C31.6945 34.97 31.8545 35 32.0279 35ZM33.9886 35.5L35.4286 32H35.8286L37.2586 35.5H36.6386L35.5186 32.665H35.7286L34.5986 35.5H33.9886ZM34.6986 34.825V34.325H36.5536V34.825H34.6986ZM37.8202 35.5V32H38.3952V35.5H37.8202ZM38.2152 35.5V34.9749H40.0452V35.5H38.2152ZM40.6693 35.5V32H41.2443V35.5H40.6693ZM42.9823 35.5V32.0999H43.5573V35.5H42.9823ZM41.8423 32.525V32H44.6973V32.525H41.8423ZM45.298 35.5V32H45.873V35.5H45.298ZM48.341 35.5499C48.091 35.5499 47.8576 35.5033 47.641 35.41C47.4243 35.3167 47.2343 35.1883 47.071 35.025C46.9076 34.8583 46.7793 34.6667 46.686 34.45C46.596 34.23 46.551 33.9949 46.551 33.7449C46.551 33.4949 46.596 33.2616 46.686 33.0449C46.7793 32.8282 46.906 32.6382 47.066 32.4749C47.2293 32.3082 47.4176 32.18 47.631 32.09C47.8476 31.9967 48.081 31.95 48.331 31.95C48.581 31.95 48.8126 31.9967 49.026 32.09C49.2426 32.18 49.4326 32.3082 49.596 32.4749C49.7593 32.6382 49.886 32.8299 49.976 33.0499C50.0693 33.2666 50.116 33.5 50.116 33.75C50.116 34 50.0693 34.235 49.976 34.455C49.886 34.6717 49.7593 34.8617 49.596 35.025C49.436 35.1883 49.2476 35.3167 49.031 35.41C48.8176 35.5033 48.5876 35.5499 48.341 35.5499ZM48.331 35C48.5676 35 48.7743 34.9467 48.951 34.84C49.131 34.7333 49.271 34.5867 49.371 34.4C49.4743 34.21 49.526 33.9916 49.526 33.7449C49.526 33.5616 49.496 33.3949 49.436 33.2449C49.3793 33.0916 49.2976 32.9599 49.191 32.8499C49.0843 32.7366 48.9576 32.65 48.811 32.59C48.6676 32.53 48.5076 32.5 48.331 32.5C48.0976 32.5 47.891 32.5533 47.711 32.66C47.5343 32.7633 47.3943 32.9083 47.291 33.095C47.191 33.2817 47.141 33.4982 47.141 33.7449C47.141 33.9282 47.1693 34.0983 47.226 34.255C47.286 34.4083 47.3676 34.54 47.471 34.65C47.5776 34.76 47.7043 34.8467 47.851 34.91C47.9976 34.97 48.1576 35 48.331 35ZM50.8007 35.5V32H51.2007L51.3757 32.66V35.5H50.8007ZM53.2257 35.5L51.1307 32.7649L51.2007 32L53.2957 34.735L53.2257 35.5ZM53.2257 35.5L53.0507 34.8849V32H53.6257V35.5H53.2257ZM57.1957 35.5499C56.9457 35.5499 56.7123 35.5033 56.4957 35.41C56.279 35.3167 56.089 35.1883 55.9257 35.025C55.7623 34.8583 55.634 34.6667 55.5407 34.45C55.4507 34.23 55.4057 33.9949 55.4057 33.7449C55.4057 33.4949 55.4507 33.2616 55.5407 33.0449C55.634 32.8282 55.7607 32.6382 55.9207 32.4749C56.084 32.3082 56.2723 32.18 56.4857 32.09C56.7023 31.9967 56.9357 31.95 57.1857 31.95C57.4357 31.95 57.6673 31.9967 57.8807 32.09C58.0973 32.18 58.2873 32.3082 58.4507 32.4749C58.614 32.6382 58.7407 32.8299 58.8307 33.0499C58.924 33.2666 58.9707 33.5 58.9707 33.75C58.9707 34 58.924 34.235 58.8307 34.455C58.7407 34.6717 58.614 34.8617 58.4507 35.025C58.2907 35.1883 58.1023 35.3167 57.8857 35.41C57.6723 35.5033 57.4423 35.5499 57.1957 35.5499ZM57.1857 35C57.4223 35 57.629 34.9467 57.8057 34.84C57.9857 34.7333 58.1257 34.5867 58.2257 34.4C58.329 34.21 58.3807 33.9916 58.3807 33.7449C58.3807 33.5616 58.3507 33.3949 58.2907 33.2449C58.234 33.0916 58.1523 32.9599 58.0457 32.8499C57.939 32.7366 57.8123 32.65 57.6657 32.59C57.5223 32.53 57.3623 32.5 57.1857 32.5C56.9523 32.5 56.7457 32.5533 56.5657 32.66C56.389 32.7633 56.249 32.9083 56.1457 33.095C56.0457 33.2817 55.9957 33.4982 55.9957 33.7449C55.9957 33.9282 56.024 34.0983 56.0807 34.255C56.1407 34.4083 56.2223 34.54 56.3257 34.65C56.4323 34.76 56.559 34.8467 56.7057 34.91C56.8523 34.97 57.0123 35 57.1857 35ZM59.6554 35.5V32H60.0554L60.2304 32.66V35.5H59.6554ZM62.0804 35.5L59.9854 32.7649L60.0554 32L62.1504 34.735L62.0804 35.5ZM62.0804 35.5L61.9054 34.8849V32H62.4804V35.5H62.0804ZM64.4403 35.5V32H65.0153V35.5H64.4403ZM66.6653 35.5V32H67.2403V35.5H66.6653ZM64.8353 33.95V33.4249H66.7903V33.95H64.8353ZM68.0999 35.5V32H68.6749V35.5H68.0999ZM68.4949 35.5V34.9749H70.4549V35.5H68.4949ZM68.4949 33.965V33.4599H70.2849V33.965H68.4949ZM68.4949 32.525V32H70.4299V32.525H68.4949ZM70.8891 35.5L72.3291 32H72.7291L74.1591 35.5H73.5391L72.4191 32.665H72.6291L71.4991 35.5H70.8891ZM71.5991 34.825V34.325H73.4541V34.825H71.5991ZM74.7208 35.5V32H75.2958V35.5H74.7208ZM75.1158 35.5V34.9749H76.9458V35.5H75.1158ZM78.0202 35.5V32.0999H78.5952V35.5H78.0202ZM76.8802 32.525V32H79.7352V32.525H76.8802ZM80.3359 35.5V32H80.9109V35.5H80.3359ZM82.5609 35.5V32H83.1359V35.5H82.5609ZM80.7309 33.95V33.4249H82.6859V33.95H80.7309ZM86.6864 35.5499C86.4331 35.5499 86.1981 35.505 85.9814 35.415C85.7681 35.3217 85.5814 35.1932 85.4214 35.0299C85.2614 34.8632 85.1381 34.6717 85.0514 34.455C84.9647 34.235 84.9214 34 84.9214 33.75C84.9214 33.5 84.9647 33.2666 85.0514 33.0499C85.1381 32.8299 85.2614 32.6382 85.4214 32.4749C85.5814 32.3116 85.7681 32.1833 85.9814 32.09C86.1981 31.9967 86.4331 31.95 86.6864 31.95C86.9697 31.95 87.2147 31.9967 87.4214 32.09C87.6281 32.1833 87.8114 32.31 87.9714 32.47L87.5814 32.86C87.4781 32.7467 87.3514 32.6583 87.2014 32.595C87.0547 32.5317 86.8831 32.5 86.6864 32.5C86.5131 32.5 86.3547 32.53 86.2114 32.59C86.0681 32.65 85.9431 32.7366 85.8364 32.8499C85.7331 32.9599 85.6531 33.0916 85.5964 33.2449C85.5397 33.3982 85.5114 33.5667 85.5114 33.75C85.5114 33.9333 85.5397 34.1017 85.5964 34.255C85.6531 34.4083 85.7331 34.5416 85.8364 34.6549C85.9431 34.7649 86.0681 34.85 86.2114 34.91C86.3547 34.97 86.5131 35 86.6864 35C86.8997 35 87.0797 34.9682 87.2264 34.9049C87.3764 34.8382 87.5031 34.7482 87.6064 34.6349L87.9964 35.025C87.8364 35.1883 87.6481 35.3167 87.4314 35.41C87.2147 35.5033 86.9664 35.5499 86.6864 35.5499ZM88.2616 35.5L89.7016 32H90.1016L91.5316 35.5H90.9116L89.7916 32.665H90.0016L88.8716 35.5H88.2616ZM88.9716 34.825V34.325H90.8266V34.825H88.9716ZM92.4883 34.0149V33.54H93.3733C93.5499 33.54 93.6866 33.4949 93.7833 33.4049C93.8833 33.3116 93.9333 33.1833 93.9333 33.02C93.9333 32.8733 93.8849 32.75 93.7883 32.65C93.6916 32.55 93.5549 32.5 93.3783 32.5H92.4883V32H93.4033C93.6233 32 93.8166 32.0449 93.9833 32.1349C94.1499 32.2216 94.2783 32.3416 94.3683 32.4949C94.4616 32.6449 94.5083 32.8166 94.5083 33.0099C94.5083 33.2132 94.4616 33.39 94.3683 33.54C94.2783 33.69 94.1499 33.8066 93.9833 33.8899C93.8166 33.9732 93.6233 34.0149 93.4033 34.0149H92.4883ZM92.0933 35.5V32H92.6683V35.5H92.0933ZM94.0133 35.5L92.7883 33.9799L93.3233 33.785L94.7383 35.5H94.0133ZM95.2646 35.5V32H95.8396V35.5H95.2646ZM95.6596 35.5V34.9749H97.6196V35.5H95.6596ZM95.6596 33.965V33.4599H97.4496V33.965H95.6596ZM95.6596 32.525V32H97.5946V32.525H95.6596Z" fill="black" fill-opacity="0.1"/>
</svg>
